<svg width="34" height="34" viewBox="0 0 34 34" fill="none" xmlns="http://www.w3.org/2000/svg">
<path d="M17 34C26.3888 34 34 26.3888 34 17C34 7.61116 26.3888 0 17 0C7.61116 0 0 7.61116 0 17C0 26.3888 7.61116 34 17 34Z" fill="#B0BFC6"/>
<path d="M17 17C19.7614 17 22 14.7614 22 12C22 9.23858 19.7614 7 17 7C14.2386 7 12 9.23858 12 12C12 14.7614 14.2386 17 17 17Z" fill="white" fill-opacity="0.9"/>
<path d="M26.8992 24.5C26.6992 23.1 23.2992 19 16.9992 19C11.0992 19 7.29922 23.1 7.09922 24.5L6.19922 30.1C9.09922 32.5 12.8992 34 16.9992 34C21.0992 34 24.8992 32.5 27.7992 30.1L26.8992 24.5Z" fill="white" fill-opacity="0.9"/>
<path d="M33.5 17C33.5 26.1127 26.1127 33.5 17 33.5C7.8873 33.5 0.5 26.1127 0.5 17C0.5 7.8873 7.8873 0.5 17 0.5C26.1127 0.5 33.5 7.8873 33.5 17Z" stroke="#B0BFC6"/>
</svg>
