<svg width="18" height="18" viewBox="0 0 18 18" fill="none" xmlns="http://www.w3.org/2000/svg">
<path fill-rule="evenodd" clip-rule="evenodd" d="M0.328125 0.704023C0.328125 0.495839 0.496817 0.327148 0.705 0.327148H0.713789C3.02888 0.327148 5.20386 1.22799 6.84088 2.86502C7.64602 3.67016 8.27212 4.60515 8.70127 5.62215L9.00187 6.33437L9.30247 5.62215C9.73163 4.60517 10.3579 3.67016 11.1628 2.86499C12.7999 1.22798 14.9749 0.327148 17.29 0.327148H17.2987C17.507 0.327148 17.6756 0.495839 17.6756 0.704023V0.712813C17.6756 3.0279 16.7748 5.20289 15.1378 6.83991C13.6592 8.31844 11.7424 9.19579 9.68032 9.35224L9.37875 9.37511V14.2512L9.68977 14.2659C12.5842 14.4014 15.2852 15.3837 17.5187 16.9919C17.6875 17.1135 17.7259 17.349 17.6042 17.518C17.4826 17.6868 17.2472 17.7252 17.0783 17.6036C12.9284 14.6152 8.81355 14.6491 5.73068 15.4293C4.1921 15.8187 2.90939 16.3937 2.00298 16.8705C1.54938 17.1092 1.18946 17.3235 0.938768 17.478C0.855645 17.5292 0.782415 17.5752 0.723871 17.6119L0.723682 17.612L0.649775 17.6583L0.634326 17.6679C0.542731 17.6504 0.457985 17.5992 0.399418 17.5179C0.277815 17.349 0.316184 17.1135 0.485033 16.9919C2.8411 15.2953 5.57015 14.3943 8.31398 14.2659L8.625 14.2512V9.37511L8.32343 9.35224C6.26135 9.19579 4.34449 8.31844 2.86599 6.83991C1.22897 5.20289 0.328125 3.0279 0.328125 0.712813V0.704023ZM1.47321 1.11668L1.08048 1.0795L1.11766 1.47223C1.29059 3.29881 2.08604 4.99392 3.39901 6.30689C4.71198 7.61989 6.40709 8.41534 8.23365 8.58821L8.62642 8.62541L8.58922 8.23271C8.41628 6.40611 7.62082 4.711 6.30787 3.39803C4.99489 2.08505 3.29978 1.28961 1.47321 1.11668ZM16.8861 1.47223L16.9233 1.07951L16.5305 1.11668C14.7038 1.28961 13.0088 2.08506 11.6959 3.39803C10.3829 4.711 9.58747 6.40611 9.41453 8.23271L9.37733 8.62541L9.7701 8.58821C11.5967 8.41534 13.2918 7.61989 14.6047 6.30689C15.9177 4.99393 16.7132 3.29895 16.8861 1.47223Z" fill="#333646"/>
</svg>
