<svg width="18" height="18" viewBox="0 0 18 18" fill="none" xmlns="http://www.w3.org/2000/svg">
<path fill-rule="evenodd" clip-rule="evenodd" d="M9.00179 0.899902C7.05301 0.899902 5.47321 2.4797 5.47321 4.42847C5.47321 6.37725 7.05301 7.95705 9.00179 7.95705C10.9506 7.95705 12.5304 6.37725 12.5304 4.42847C12.5304 2.4797 10.9506 0.899902 9.00179 0.899902ZM6.43512 4.42847C6.43512 3.01094 7.58425 1.86181 9.00179 1.86181C10.4193 1.86181 11.5685 3.01094 11.5685 4.42847C11.5685 5.846 10.4193 6.99514 9.00179 6.99514C7.58425 6.99514 6.43512 5.846 6.43512 4.42847ZM9.00179 8.51895C5.79064 8.51895 3.1875 11.1221 3.1875 14.3332V15.857C3.1875 16.1227 3.40283 16.338 3.66845 16.338H14.3351C14.6007 16.338 14.8161 16.1227 14.8161 15.857V14.3332C14.8161 11.1221 12.2129 8.51895 9.00179 8.51895ZM4.1494 14.3332C4.1494 11.6533 6.32189 9.48085 9.00179 9.48085C11.6817 9.48085 13.8542 11.6533 13.8542 14.3332V15.3761H4.1494V14.3332Z" fill="#7A8793"/>
</svg>
