<svg width="22" height="23" fill="none" xmlns="http://www.w3.org/2000/svg"><g filter="url(#filter0_d)" fill="#fff"><path d="M11 0C4.9 0 0 4.9 0 11s4.9 11 11 11 11-4.9 11-11S17.1 0 11 0zm5.6 18.2c-.4-2.8-2.8-4.9-5.6-4.9-2.9 0-5.2 2.1-5.6 4.9-2.2-1.7-3.6-4.3-3.6-7.2 0-5.1 4.1-9.2 9.2-9.2s9.2 4.1 9.2 9.2c0 2.9-1.4 5.6-3.6 7.2z"/><path d="M11 12.6a3.4 3.4 0 100-6.8 3.4 3.4 0 000 6.8z"/></g><defs><filter id="filter0_d" x="0" y="0" width="22" height="23" filterUnits="userSpaceOnUse" color-interpolation-filters="sRGB"><feFlood flood-opacity="0" result="BackgroundImageFix"/><feColorMatrix in="SourceAlpha" values="0 0 0 0 0 0 0 0 0 0 0 0 0 0 0 0 0 0 127 0"/><feOffset dy="1"/><feColorMatrix values="0 0 0 0 0 0 0 0 0 0 0 0 0 0 0 0 0 0 0.16 0"/><feBlend in2="BackgroundImageFix" result="effect1_dropShadow"/><feBlend in="SourceGraphic" in2="effect1_dropShadow" result="shape"/></filter></defs></svg>