<svg version="1.1" id="Layer_1" xmlns="http://www.w3.org/2000/svg" x="0" y="0" viewBox="0 0 18 18" xml:space="preserve"><style>.st0{fill:#fff}</style><path class="st0" d="M9 8c1.9 0 3.5-1.6 3.5-3.5S10.9 1 9 1 5.5 2.5 5.5 4.4C5.5 6.4 7.1 8 9 8zM6.4 4.4C6.4 3 7.6 1.9 9 1.9c1.4 0 2.6 1.2 2.6 2.6C11.6 5.8 10.4 7 9 7 7.6 7 6.4 5.8 6.4 4.4zM9 8.5c-3.2 0-5.8 2.6-5.8 5.8v1.5c0 .3.2.5.5.5h10.7c.3 0 .5-.2.5-.5v-1.5c-.1-3.2-2.7-5.8-5.9-5.8zm4.9 5.8v1H4.1v-1c0-2.7 2.2-4.9 4.9-4.9 2.7.1 4.9 2.3 4.9 4.9z"/></svg>