<svg width="18" height="18" viewBox="0 0 18 18" fill="none" xmlns="http://www.w3.org/2000/svg">
<g clip-path="url(#clip0)">
<path fill-rule="evenodd" clip-rule="evenodd" d="M16.4181 13.5C16.368 13.5851 16.2863 13.6471 16.1908 13.6723C16.0954 13.6976 15.9937 13.6842 15.9081 13.635L13.4406 12.21L14.0331 14.4075C14.0589 14.504 14.0454 14.6068 13.9955 14.6933C13.9456 14.7798 13.8633 14.8429 13.7668 14.8688C13.6704 14.8946 13.5676 14.8811 13.4811 14.8312C13.3946 14.7812 13.3314 14.699 13.3056 14.6025L12.5256 11.685L9.00059 9.6525V13.725L11.1381 15.8625C11.1731 15.8975 11.2008 15.939 11.2197 15.9847C11.2386 16.0303 11.2484 16.0793 11.2484 16.1287C11.2484 16.1782 11.2386 16.2272 11.2197 16.2728C11.2008 16.3185 11.1731 16.36 11.1381 16.395C11.1031 16.43 11.0616 16.4577 11.0159 16.4766C10.9702 16.4955 10.9213 16.5053 10.8718 16.5053C10.8224 16.5053 10.7734 16.4955 10.7277 16.4766C10.6821 16.4577 10.6406 16.43 10.6056 16.395L9.00059 14.7825V17.625C9.00059 17.7245 8.96108 17.8198 8.89075 17.8902C8.82043 17.9605 8.72504 18 8.62559 18C8.52613 18 8.43075 17.9605 8.36042 17.8902C8.2901 17.8198 8.25059 17.7245 8.25059 17.625V14.7825L6.63809 16.395C6.60312 16.43 6.56161 16.4577 6.51593 16.4766C6.47025 16.4955 6.42129 16.5053 6.37184 16.5053C6.32239 16.5053 6.27343 16.4955 6.22775 16.4766C6.18206 16.4577 6.14055 16.43 6.10559 16.395C6.07062 16.36 6.04289 16.3185 6.02397 16.2728C6.00504 16.2272 5.9953 16.1782 5.9953 16.1287C5.9953 16.0793 6.00504 16.0303 6.02397 15.9847C6.04289 15.939 6.07062 15.8975 6.10559 15.8625L8.25059 13.7175V9.645L4.72559 11.685L3.94559 14.61C3.93278 14.6578 3.9107 14.7025 3.88059 14.7418C3.85048 14.781 3.81294 14.8139 3.77011 14.8387C3.72727 14.8634 3.67999 14.8794 3.63096 14.8859C3.58193 14.8923 3.53211 14.8891 3.48434 14.8762C3.43657 14.8634 3.39179 14.8414 3.35256 14.8112C3.31333 14.7811 3.28041 14.7436 3.25569 14.7008C3.23096 14.6579 3.21492 14.6107 3.20847 14.5616C3.20201 14.5126 3.20528 14.4628 3.21809 14.415L3.81059 12.2175L1.35059 13.6425C1.30774 13.6671 1.26047 13.6831 1.21147 13.6894C1.16246 13.6958 1.11268 13.6924 1.06498 13.6795C1.01727 13.6666 0.97257 13.6445 0.933426 13.6143C0.894282 13.5842 0.861461 13.5466 0.836838 13.5037C0.812216 13.4609 0.796273 13.4136 0.78992 13.3646C0.783567 13.3156 0.786928 13.2658 0.799812 13.2181C0.812696 13.1704 0.834851 13.1257 0.865011 13.0866C0.89517 13.0474 0.932745 13.0146 0.975588 12.99L3.43559 11.565L1.23809 10.9725C1.14291 10.9462 1.06196 10.8834 1.01281 10.7977C0.963663 10.712 0.950288 10.6105 0.975588 10.515C1.00358 10.4209 1.06669 10.3411 1.15186 10.2923C1.23702 10.2434 1.33771 10.2292 1.43309 10.2525L4.35059 11.0325L7.87559 9L4.35059 6.9675L1.42559 7.7475C1.33013 7.7728 1.22854 7.75943 1.14289 7.71028C1.05723 7.66113 0.994419 7.58018 0.968088 7.485C0.942788 7.38954 0.956163 7.28796 1.00531 7.2023C1.05446 7.11664 1.13541 7.05383 1.23059 7.0275L3.42809 6.435L0.968088 5.01C0.925245 4.98538 0.88767 4.95256 0.857511 4.91341C0.827351 4.87427 0.805196 4.82957 0.792312 4.78186C0.779428 4.73416 0.776067 4.68438 0.78242 4.63537C0.788773 4.58637 0.804716 4.53909 0.829338 4.49625C0.853961 4.45341 0.886782 4.41583 0.925926 4.38567C0.96507 4.35551 1.00977 4.33336 1.05748 4.32047C1.10518 4.30759 1.15496 4.30423 1.20397 4.31058C1.25297 4.31693 1.30024 4.33288 1.34309 4.3575L3.80309 5.7825L3.21809 3.585C3.19223 3.48853 3.20575 3.38573 3.25569 3.29923C3.30562 3.21273 3.38787 3.14961 3.48434 3.12375C3.58081 3.09789 3.6836 3.11142 3.77011 3.16135C3.85661 3.21128 3.91973 3.29353 3.94559 3.39L4.72559 6.315L8.25059 8.3475V4.2825L6.11309 2.1375C6.07812 2.10254 6.05039 2.06103 6.03147 2.01534C6.01254 1.96966 6.0028 1.9207 6.0028 1.87125C6.0028 1.8218 6.01254 1.77284 6.03147 1.72716C6.05039 1.68147 6.07812 1.63996 6.11309 1.605C6.14805 1.57004 6.18956 1.5423 6.23525 1.52338C6.28093 1.50445 6.32989 1.49472 6.37934 1.49472C6.42879 1.49472 6.47775 1.50445 6.52343 1.52338C6.56911 1.5423 6.61062 1.57004 6.64559 1.605L8.25059 3.2175V0.375C8.25059 0.275544 8.2901 0.180161 8.36042 0.109835C8.43075 0.0395088 8.52613 0 8.62559 0C8.72504 0 8.82043 0.0395088 8.89075 0.109835C8.96108 0.180161 9.00059 0.275544 9.00059 0.375V3.2175L10.6131 1.605C10.6481 1.57004 10.6896 1.5423 10.7352 1.52338C10.7809 1.50445 10.8299 1.49472 10.8793 1.49472C10.9288 1.49472 10.9777 1.50445 11.0234 1.52338C11.0691 1.5423 11.1106 1.57004 11.1456 1.605C11.1806 1.63996 11.2083 1.68147 11.2272 1.72716C11.2461 1.77284 11.2559 1.8218 11.2559 1.87125C11.2559 1.9207 11.2461 1.96966 11.2272 2.01534C11.2083 2.06103 11.1806 2.10254 11.1456 2.1375L9.00059 4.2825V8.355L12.5256 6.3225L13.3056 3.3975C13.3184 3.34973 13.3405 3.30495 13.3706 3.26572C13.4007 3.22649 13.4382 3.19357 13.4811 3.16885C13.5239 3.14412 13.5712 3.12808 13.6202 3.12163C13.6692 3.11518 13.7191 3.11845 13.7668 3.13125C13.8146 3.14405 13.8594 3.16614 13.8986 3.19625C13.9378 3.22636 13.9708 3.2639 13.9955 3.30673C14.0202 3.34956 14.0363 3.39685 14.0427 3.44588C14.0492 3.49491 14.0459 3.54473 14.0331 3.5925L13.4406 5.79L15.9081 4.365C15.9509 4.34038 15.9982 4.32443 16.0472 4.31808C16.0962 4.31173 16.146 4.31509 16.1937 4.32797C16.2414 4.34086 16.2861 4.36301 16.3253 4.39317C16.3644 4.42333 16.3972 4.46091 16.4218 4.50375C16.4465 4.54659 16.4624 4.59387 16.4688 4.64287C16.4751 4.69188 16.4717 4.74165 16.4589 4.78936C16.446 4.83707 16.4238 4.88177 16.3937 4.92091C16.3635 4.96006 16.3259 4.99288 16.2831 5.0175L13.8156 6.435L16.0131 7.0275C16.0609 7.0403 16.1056 7.06239 16.1449 7.0925C16.1841 7.12261 16.217 7.16015 16.2417 7.20298C16.2665 7.24581 16.2825 7.2931 16.289 7.34213C16.2954 7.39116 16.2921 7.44098 16.2793 7.48875C16.2665 7.53652 16.2444 7.5813 16.2143 7.62053C16.1842 7.65976 16.1467 7.69268 16.1039 7.7174C16.061 7.74213 16.0137 7.75817 15.9647 7.76462C15.9157 7.77107 15.8659 7.7678 15.8181 7.755L12.9006 6.9675L9.37559 9L12.9006 11.0325L15.8256 10.245C15.9221 10.2191 16.0249 10.2327 16.1114 10.2826C16.1979 10.3325 16.261 10.4148 16.2868 10.5113C16.3127 10.6077 16.2992 10.7105 16.2492 10.797C16.1993 10.8835 16.1171 10.9466 16.0206 10.9725L13.8231 11.565L16.2906 12.99C16.3757 13.0401 16.4377 13.1218 16.4629 13.2172C16.4882 13.3127 16.4748 13.4143 16.4256 13.5H16.4181Z" fill="#333646"/>
</g>
<defs>
<clipPath id="clip0">
<rect width="18" height="18" fill="white"/>
</clipPath>
</defs>
</svg>
