<svg width="10" height="10" viewBox="0 0 10 10" fill="none" xmlns="http://www.w3.org/2000/svg">
<g clip-path="url(#clip0)">
<path fill-rule="evenodd" clip-rule="evenodd" d="M2.38408 0.948511C2.33265 0.896712 2.29192 0.835289 2.26422 0.76775C2.23652 0.700211 2.2224 0.627878 2.22266 0.55488C2.22292 0.481883 2.23755 0.409652 2.26572 0.34231C2.2939 0.274968 2.33506 0.213834 2.38686 0.1624C2.43866 0.110966 2.50008 0.0702375 2.56762 0.042541C2.63516 0.0148445 2.70749 0.000722092 2.78049 0.000980033C2.85349 0.00123797 2.92572 0.0158713 2.99306 0.0440444C3.0604 0.0722175 3.12153 0.113379 3.17297 0.165178L7.61741 4.60962C7.72089 4.71371 7.77896 4.85452 7.77896 5.00129C7.77896 5.14806 7.72089 5.28887 7.61741 5.39296L3.17297 9.8374C3.12153 9.8892 3.0604 9.93036 2.99306 9.95853C2.92572 9.9867 2.85349 10.0013 2.78049 10.0016C2.70749 10.0019 2.63516 9.98773 2.56762 9.96004C2.50008 9.93234 2.43866 9.89161 2.38686 9.84018C2.33506 9.78874 2.2939 9.72761 2.26572 9.66027C2.23755 9.59293 2.22292 9.52069 2.22266 9.4477C2.2224 9.3747 2.23652 9.30237 2.26422 9.23483C2.29192 9.16729 2.33265 9.10586 2.38408 9.05407L6.43408 5.00407L2.38408 0.948511Z" fill="#545769"/>
</g>
<defs>
<clipPath id="clip0">
<rect y="-0.000976562" width="10" height="10" fill="white"/>
</clipPath>
</defs>
</svg>
