<svg width="18" height="18" viewBox="0 0 18 18" fill="none" xmlns="http://www.w3.org/2000/svg">
<path d="M17.625 11.9246C17.625 11.6996 17.475 11.5496 17.25 11.5496H13.725V6.07461C13.725 3.44961 11.625 1.34961 9 1.34961C6.375 1.34961 4.275 3.44961 4.275 6.07461V11.5496H0.75C0.525 11.5496 0.375 11.6996 0.375 11.9246C0.375 12.1496 0.525 12.2996 0.75 12.2996H1.35V16.2746C1.35 16.4996 1.5 16.6496 1.725 16.6496H16.35C16.575 16.6496 16.725 16.4996 16.725 16.2746V12.2996H17.25C17.475 12.2996 17.625 12.1496 17.625 11.9246ZM4.275 15.8996H2.1V12.2998H4.275V15.8996ZM5.025 6.07461C5.025 4.19961 6.375 2.54961 8.25 2.17461L8.625 2.09961V6.44961H5.025V6.07461ZM5.025 7.19961H8.625V11.5496H5.025V7.19961ZM7.2 15.8996H5.025V12.2998H7.2V15.8996ZM10.125 15.8996H7.95V12.2998H10.125V15.8996ZM12.975 15.8996H10.8V12.2998H12.975V15.8996ZM12.975 11.5496H9.375V7.19961H12.975V11.5496ZM12.975 6.44961H9.375V2.09961L9.75 2.17461C11.625 2.54961 12.975 4.19961 12.975 6.07461V6.44961ZM15.9 15.8996H13.725V12.2998H15.9V15.8996Z" fill="#333646"/>
</svg>
