<svg width="18" height="18" viewBox="0 0 18 18" fill="none" xmlns="http://www.w3.org/2000/svg">
<path fill-rule="evenodd" clip-rule="evenodd" d="M6.75 1.875V2.25H6.375C6.16789 2.25 6 2.4179 6 2.625C6 2.8321 6.16789 3 6.375 3H7.875C8.08208 3 8.25 2.8321 8.25 2.625C8.25 2.4179 8.08208 2.25 7.875 2.25H7.5V1.875C7.5 0.839468 6.66053 0 5.625 0C4.58947 0 3.75 0.839468 3.75 1.875V9H1.125C0.50368 9 0 9.5037 0 10.125C0 10.7463 0.50368 11.25 1.125 11.25H1.5V12.75C1.5 14.5642 2.78832 16.0775 4.5 16.425V16.875C4.5 17.0821 4.66789 17.25 4.875 17.25C5.08211 17.25 5.25 17.0821 5.25 16.875V16.5H12.75V16.875C12.75 17.0821 12.9179 17.25 13.125 17.25C13.3321 17.25 13.5 17.0821 13.5 16.875V16.425C15.2116 16.0775 16.5 14.5642 16.5 12.75V11.25H16.875C17.4963 11.25 18 10.7463 18 10.125C18 9.5037 17.4963 9 16.875 9H7.5H6.75H6H4.5V1.875C4.5 1.25368 5.00368 0.75 5.625 0.75C6.24632 0.75 6.75 1.25368 6.75 1.875ZM1.125 9.75H3.75H7.5H16.875C17.0821 9.75 17.25 9.91792 17.25 10.125C17.25 10.3321 17.0821 10.5 16.875 10.5H16.5H1.5H1.125C0.917895 10.5 0.75 10.3321 0.75 10.125C0.75 9.91792 0.917895 9.75 1.125 9.75ZM6.15765 3.9839C6.2117 3.93027 6.285 3.90015 6.36143 3.90015C6.43786 3.90015 6.51116 3.93027 6.56522 3.9839C6.61926 4.03752 6.64962 4.11025 6.64962 4.18609V4.41435C6.64962 4.49019 6.61926 4.56292 6.56522 4.61654C6.51116 4.67017 6.43786 4.70029 6.36143 4.70029C6.285 4.70029 6.2117 4.67017 6.15765 4.61654C6.10361 4.56292 6.07325 4.49019 6.07325 4.41435V4.18609C6.07325 4.11025 6.10361 4.03752 6.15765 3.9839ZM6.93718 3.9839C6.99122 3.93027 7.06453 3.90015 7.14096 3.90015C7.21739 3.90015 7.29069 3.93027 7.34474 3.9839C7.39879 4.03752 7.42915 4.11025 7.42915 4.18609V4.41435C7.42915 4.49019 7.39879 4.56292 7.34474 4.61654C7.29069 4.67017 7.21739 4.70029 7.14096 4.70029C7.06453 4.70029 6.99122 4.67017 6.93718 4.61654C6.88313 4.56292 6.85277 4.49019 6.85277 4.41435V4.18609C6.85277 4.11025 6.88313 4.03752 6.93718 3.9839ZM7.68128 3.9839C7.73535 3.93027 7.80863 3.90015 7.88505 3.90015C7.96147 3.90015 8.03483 3.93027 8.08883 3.9839C8.1429 4.03752 8.17327 4.11025 8.17327 4.18609V4.41435C8.17327 4.49019 8.1429 4.56292 8.08883 4.61654C8.03483 4.67017 7.96147 4.70029 7.88505 4.70029C7.80863 4.70029 7.73535 4.67017 7.68128 4.61654C7.6272 4.56292 7.5969 4.49019 7.5969 4.41435V4.18609C7.5969 4.11025 7.6272 4.03752 7.68128 3.9839ZM6.93718 4.9734C6.99122 4.91978 7.06453 4.88965 7.14096 4.88965C7.21739 4.88965 7.29069 4.91978 7.34474 4.9734C7.39879 5.02702 7.42915 5.09975 7.42915 5.17559V5.40386C7.42915 5.47969 7.39879 5.55242 7.34474 5.60605C7.29069 5.65967 7.21739 5.68979 7.14096 5.68979C7.06453 5.68979 6.99122 5.65967 6.93718 5.60605C6.88313 5.55242 6.85277 5.47969 6.85277 5.40386V5.17559C6.85277 5.09975 6.88313 5.02702 6.93718 4.9734ZM6.15765 4.9734C6.2117 4.91978 6.285 4.88965 6.36143 4.88965C6.43786 4.88965 6.51116 4.91978 6.56522 4.9734C6.61926 5.02702 6.64962 5.09975 6.64962 5.17559V5.40386C6.64962 5.47969 6.61926 5.55242 6.56522 5.60605C6.51116 5.65967 6.43786 5.68979 6.36143 5.68979C6.285 5.68979 6.2117 5.65967 6.15765 5.60605C6.10361 5.55242 6.07325 5.47969 6.07325 5.40386V5.17559C6.07325 5.09975 6.10361 5.02702 6.15765 4.9734ZM7.68128 4.9734C7.73535 4.91978 7.80863 4.88965 7.88505 4.88965C7.96147 4.88965 8.03483 4.91978 8.08883 4.9734C8.1429 5.02702 8.17327 5.09975 8.17327 5.17559V5.40386C8.17327 5.47969 8.1429 5.55242 8.08883 5.60605C8.03483 5.65967 7.96147 5.68979 7.88505 5.68979C7.80863 5.68979 7.73535 5.65967 7.68128 5.60605C7.6272 5.55242 7.5969 5.47969 7.5969 5.40386V5.17559C7.5969 5.09975 7.6272 5.02702 7.68128 4.9734ZM2.25 12.75V11.25H15.75V12.75C15.75 14.4068 14.4068 15.75 12.75 15.75H5.25C3.59314 15.75 2.25 14.4068 2.25 12.75Z" fill="#333646"/>
</svg>
