<svg width="18" height="18" viewBox="0 0 18 18" fill="none" xmlns="http://www.w3.org/2000/svg">
<path fill-rule="evenodd" clip-rule="evenodd" d="M4.89254 0.702227C4.89254 0.496145 5.05958 0.329102 5.26565 0.329102C5.47174 0.329102 5.63878 0.496145 5.63878 0.702227C5.63878 1.43312 5.34698 1.82183 5.02567 2.16226C4.98494 2.20541 4.94051 2.25079 4.89446 2.2978L4.89446 2.29781C4.76651 2.42847 4.62614 2.57181 4.51835 2.7154C4.35843 2.92842 4.23253 3.18477 4.23253 3.51469C4.23253 3.72077 4.06549 3.88782 3.8594 3.88782C3.65333 3.88782 3.48629 3.72077 3.48629 3.51469C3.48629 2.7838 3.77808 2.39509 4.0994 2.05466C4.14012 2.01151 4.18456 1.96613 4.2306 1.91911L4.23061 1.91911C4.35856 1.78845 4.49893 1.64511 4.60672 1.50152C4.76663 1.2885 4.89254 1.03214 4.89254 0.702227ZM9.32813 0.702227C9.32813 0.496145 9.49515 0.329102 9.70125 0.329102C9.90735 0.329102 10.0744 0.496145 10.0744 0.702227C10.0744 1.43289 9.78255 1.82168 9.46125 2.16223C9.42053 2.20541 9.37605 2.25081 9.33 2.29785C9.20205 2.42854 9.06173 2.57189 8.95395 2.71548C8.79405 2.92849 8.66813 3.18484 8.66813 3.51469C8.66813 3.72077 8.5011 3.88782 8.295 3.88782C8.0889 3.88782 7.92188 3.72077 7.92188 3.51469C7.92188 2.7838 8.2137 2.39509 8.535 2.05466C8.57573 2.01151 8.62013 1.96615 8.66618 1.91914V1.91911L8.66625 1.91909C8.79413 1.78844 8.93453 1.6451 9.0423 1.50152C9.2022 1.2885 9.32813 1.03214 9.32813 0.702227ZM13.7637 0.702227C13.7637 0.496145 13.9308 0.329102 14.1368 0.329102C14.3429 0.329102 14.51 0.496145 14.51 0.702227C14.51 1.43289 14.2182 1.82168 13.8968 2.16223C13.8561 2.20541 13.8116 2.2508 13.7656 2.29784C13.6376 2.42853 13.4973 2.57189 13.3895 2.71548C13.2296 2.92849 13.1037 3.18484 13.1037 3.51469C13.1037 3.72077 12.9367 3.88782 12.7306 3.88782C12.5246 3.88782 12.3575 3.72077 12.3575 3.51469C12.3575 2.78403 12.6493 2.39524 12.9706 2.05468C13.0114 2.01151 13.0558 1.96612 13.1018 1.91908C13.2298 1.78839 13.3702 1.64503 13.478 1.50144C13.6378 1.28842 13.7637 1.03208 13.7637 0.702227ZM0.328125 6.32716C0.328125 6.12107 0.495168 5.95403 0.70125 5.95403H17.295C17.5011 5.95403 17.6681 6.12109 17.6681 6.32712C17.6681 6.5332 17.5011 6.70024 17.295 6.70024H16.0853L16.057 6.99922C15.8381 9.31751 14.4977 11.3157 12.5835 12.4424L12.3236 12.5955L14.4741 17.136C14.5623 17.3223 14.4828 17.5448 14.2966 17.633C14.1101 17.7213 13.8878 17.6415 13.7996 17.4555L11.6472 12.911L11.3661 13.0109C10.8277 13.2023 10.2595 13.3302 9.6702 13.386L9.37125 13.4142V17.2852C9.37125 17.4912 9.20423 17.6583 8.99813 17.6583C8.79203 17.6583 8.625 17.4912 8.625 17.2852V13.4142L8.32605 13.386C7.73678 13.3302 7.1686 13.2023 6.63013 13.0109L6.34906 12.911L4.19662 17.4555C4.10866 17.6412 3.88646 17.7214 3.69968 17.633C3.51347 17.5448 3.434 17.3223 3.5222 17.136L5.67277 12.5955L5.41281 12.4425C3.49865 11.3157 2.15822 9.31751 1.93928 6.99925L1.91105 6.70028H0.70125C0.495168 6.70028 0.328125 6.53323 0.328125 6.32716ZM15.3428 6.70028H2.65346L2.69654 7.06862C3.06506 10.2192 5.74991 12.6717 8.99813 12.6717C12.2463 12.6717 14.9312 10.2192 15.2997 7.06862L15.3428 6.70028Z" fill="#333646"/>
</svg>
