<svg width="14" height="14" viewBox="0 0 14 14" fill="none" xmlns="http://www.w3.org/2000/svg">
<g clip-path="url(#clip0)">
<path fill-rule="evenodd" clip-rule="evenodd" d="M13.9767 8.63933L12.25 4.31683V1.3885C12.2485 1.17446 12.1624 0.969719 12.0105 0.818918C11.8586 0.668116 11.6532 0.583491 11.4392 0.583496H2.56083C2.11167 0.583496 1.75 0.945163 1.75 1.3885V4.31683L0.0233333 8.63933L0 8.75016V12.0227C0 12.396 0.250833 12.7052 0.589167 12.7985C0.589167 12.8102 0.583333 12.8218 0.583333 12.8335V13.7085C0.583333 13.7859 0.614062 13.86 0.66876 13.9147C0.723459 13.9694 0.797645 14.0002 0.875 14.0002C0.952355 14.0002 1.02654 13.9694 1.08124 13.9147C1.13594 13.86 1.16667 13.7859 1.16667 13.7085V12.8335H12.8333V13.7085C12.8333 13.7859 12.8641 13.86 12.9188 13.9147C12.9735 13.9694 13.0476 14.0002 13.125 14.0002C13.2024 14.0002 13.2765 13.9694 13.3312 13.9147C13.3859 13.86 13.4167 13.7859 13.4167 13.7085V12.8335C13.4167 12.8218 13.4108 12.8102 13.4108 12.7985C13.5798 12.7505 13.7287 12.6488 13.8349 12.5089C13.9412 12.369 13.9991 12.1984 14 12.0227V8.75016L13.9767 8.63933ZM2.33333 1.3885C2.33333 1.266 2.4325 1.16683 2.56083 1.16683H11.4392C11.4995 1.16683 11.5574 1.1908 11.6 1.23346C11.6427 1.27613 11.6667 1.33399 11.6667 1.39433V4.0835H11.0833V3.14433C11.0833 2.69516 10.7217 2.3335 10.2725 2.3335H8.4C7.945 2.3335 7.58333 2.69516 7.58333 3.14433V4.0835H6.41667V3.14433C6.41667 2.69516 6.055 2.3335 5.60583 2.3335H3.7275C3.27833 2.3335 2.91667 2.69516 2.91667 3.14433V4.0835H2.33333V1.3885ZM10.5 3.14433V5.01683C10.5 5.07717 10.476 5.13503 10.4334 5.1777C10.3907 5.22036 10.3328 5.24433 10.2725 5.24433H8.4C8.37012 5.24511 8.34038 5.23999 8.31248 5.22926C8.28458 5.21854 8.25907 5.20243 8.2374 5.18184C8.21573 5.16126 8.19833 5.1366 8.1862 5.10929C8.17406 5.08198 8.16742 5.05254 8.16667 5.02266V3.14433C8.16667 3.08399 8.19063 3.02613 8.2333 2.98346C8.27596 2.9408 8.33383 2.91683 8.39417 2.91683H10.2667C10.327 2.91683 10.3849 2.9408 10.4275 2.98346C10.4702 3.02613 10.4942 3.08399 10.4942 3.14433H10.5ZM5.83333 3.14433V5.01683C5.83411 5.04719 5.8288 5.0774 5.81772 5.10568C5.80664 5.13396 5.79 5.15973 5.7688 5.18148C5.74759 5.20323 5.72225 5.22051 5.69426 5.23231C5.66627 5.2441 5.63621 5.25017 5.60583 5.25016H3.7275C3.69762 5.25016 3.66804 5.24428 3.64044 5.23285C3.61284 5.22141 3.58776 5.20466 3.56663 5.18353C3.54551 5.1624 3.52875 5.13733 3.51732 5.10972C3.50588 5.08212 3.5 5.05254 3.5 5.02266V3.14433C3.5 3.08399 3.52397 3.02613 3.56663 2.98346C3.6093 2.9408 3.66716 2.91683 3.7275 2.91683H5.6C5.66034 2.91683 5.7182 2.9408 5.76087 2.98346C5.80353 3.02613 5.8275 3.08399 5.8275 3.14433H5.83333ZM2.24 4.66683H2.91667V5.02266C2.91667 5.47183 3.27833 5.8335 3.7275 5.8335H5.6C6.055 5.8335 6.41667 5.47183 6.41667 5.02266V4.66683H7.58333V5.02266C7.58333 5.47766 7.945 5.8335 8.39417 5.8335H10.2667C10.7217 5.8335 11.0833 5.47183 11.0833 5.02266V4.66683H11.76L13.3933 8.75016H0.606667L2.24 4.66683ZM13.4167 12.0227C13.4167 12.1452 13.3117 12.2502 13.1892 12.2502H0.810833C0.750497 12.2502 0.692631 12.2262 0.649967 12.1835C0.607302 12.1409 0.583333 12.083 0.583333 12.0227V9.3335H13.4167V12.0227Z" fill="black"/>
</g>
<defs>
<clipPath id="clip0">
<rect width="14" height="14" fill="white"/>
</clipPath>
</defs>
</svg>
