<svg width="18" height="18" viewBox="0 0 18 18" fill="none" xmlns="http://www.w3.org/2000/svg">
<path fill-rule="evenodd" clip-rule="evenodd" d="M11.989 5.15972C11.8616 4.55626 11.4404 4.08784 10.993 3.82319C10.765 3.68824 10.5131 3.59568 10.2656 3.56979C10.0198 3.54409 9.7482 3.58231 9.525 3.74969C9.35932 3.87396 9.32573 4.10901 9.45 4.27469C9.57428 4.44038 9.80933 4.47396 9.975 4.34969C10.0019 4.32958 10.0652 4.30292 10.1875 4.31572C10.3081 4.32832 10.4573 4.37762 10.6111 4.46867C10.8843 4.63027 11.1193 4.89036 11.2218 5.19321L10.0627 7.125H5.50693L5.05488 6H5.55C5.7571 6 5.925 5.8321 5.925 5.625C5.925 5.41789 5.7571 5.25 5.55 5.25H4.50004C4.5 5.25 4.49995 5.25 4.49991 5.25H3.375C3.1679 5.25 3 5.41789 3 5.625C3 5.8321 3.1679 6 3.375 6H4.2466L4.88649 7.59247C4.89476 7.6251 4.90731 7.656 4.9235 7.68457L5.02134 7.9281C4.53434 7.6554 3.97282 7.5 3.375 7.5C1.51104 7.5 0 9.01102 0 10.875C0 12.739 1.51104 14.25 3.375 14.25C5.11219 14.25 6.54283 12.9375 6.7294 11.2501H8.46233L11.4963 6.19345C11.7268 6.87498 12.0613 7.61017 12.4248 8.3157C11.7055 8.9346 11.25 9.85162 11.25 10.875C11.25 12.739 12.761 14.25 14.625 14.25C16.489 14.25 18 12.739 18 10.875C18 9.01102 16.489 7.5 14.625 7.5C14.0558 7.5 13.5197 7.64085 13.0492 7.8897C12.5574 6.92529 12.1511 5.95765 11.9953 5.19081C11.9936 5.18036 11.9915 5.16999 11.989 5.15972ZM6.51235 9.6285C6.62155 9.90315 6.69574 10.1955 6.7294 10.5001H8.03767L9.61267 7.875H5.80829L6.50556 9.61027C6.50799 9.61635 6.51025 9.62242 6.51235 9.6285ZM3.375 8.25C4.69744 8.25 5.79148 9.22792 5.97343 10.5001H3.375C3.1679 10.5001 3 10.6679 3 10.8751C3 11.0821 3.1679 11.2501 3.375 11.2501H5.9734C5.79143 12.5221 4.69741 13.5 3.375 13.5C1.92525 13.5 0.75 12.3247 0.75 10.875C0.75 9.42525 1.92525 8.25 3.375 8.25ZM12.7897 8.9982C13.3394 9.99157 13.9171 10.8942 14.3178 11.4667C14.4366 11.6364 14.6704 11.6776 14.8401 11.5588C15.0098 11.4401 15.051 11.2063 14.9322 11.0366C14.5348 10.4689 13.9501 9.55402 13.4005 8.55255C13.766 8.35935 14.1827 8.25 14.625 8.25C16.0748 8.25 17.25 9.42525 17.25 10.875C17.25 12.3247 16.0748 13.5 14.625 13.5C13.1753 13.5 12 12.3247 12 10.875C12 10.1395 12.3024 9.47475 12.7897 8.9982Z" fill="#333646"/>
</svg>
