<svg width="14" height="14" viewBox="0 0 14 14" fill="none" xmlns="http://www.w3.org/2000/svg">
<path fill-rule="evenodd" clip-rule="evenodd" d="M6.12565 0C6.0483 0 5.97411 0.0307291 5.91941 0.0854272C5.86471 0.140125 5.83398 0.214312 5.83398 0.291667V4.375C5.834 4.45135 5.80407 4.52467 5.75063 4.5792C5.69719 4.63374 5.62449 4.66514 5.54815 4.66667H4.66732V0.291667C4.66732 0.214312 4.63659 0.140125 4.58189 0.0854272C4.52719 0.0307291 4.45301 0 4.37565 0C4.2983 0 4.22411 0.0307291 4.16941 0.0854272C4.11471 0.140125 4.08398 0.214312 4.08398 0.291667V4.66667H3.20315C3.12681 4.66514 3.05412 4.63374 3.00067 4.5792C2.94723 4.52467 2.9173 4.45135 2.91732 4.375V0.291667C2.91732 0.214312 2.88659 0.140125 2.83189 0.0854272C2.77719 0.0307291 2.70301 0 2.62565 0C2.5483 0 2.47411 0.0307291 2.41941 0.0854272C2.36471 0.140125 2.33398 0.214312 2.33398 0.291667V4.375C2.33398 4.85917 2.72482 5.25 3.20315 5.25H4.08398V8.16667C4.08398 8.18417 4.08982 8.20167 4.09565 8.21917C3.92279 8.27662 3.77236 8.38694 3.66559 8.53452C3.55883 8.68211 3.50113 8.85951 3.50065 9.04167V13.125C3.50065 13.6092 3.89148 14 4.37565 14C4.85982 14 5.25065 13.6092 5.25065 13.125V9.04167C5.25065 8.65667 4.99982 8.33583 4.65565 8.21917C4.66148 8.20167 4.66732 8.18417 4.66732 8.16667V5.25H5.54815C5.7792 5.24846 6.00027 5.15559 6.1631 4.99166C6.32594 4.82774 6.41732 4.60606 6.41732 4.375V0.291667C6.41732 0.214312 6.38659 0.140125 6.33189 0.0854272C6.27719 0.0307291 6.20301 0 6.12565 0V0ZM4.66732 9.04167V13.125C4.66732 13.2024 4.63659 13.2765 4.58189 13.3312C4.52719 13.3859 4.45301 13.4167 4.37565 13.4167C4.2983 13.4167 4.22411 13.3859 4.16941 13.3312C4.11471 13.2765 4.08398 13.2024 4.08398 13.125V9.04167C4.08398 8.87833 4.21232 8.75 4.37565 8.75C4.53898 8.75 4.66732 8.87833 4.66732 9.04167ZM11.3757 0H10.209C9.39232 0 8.75065 0.624167 8.75065 1.45833V5.54167C8.75065 6.37583 9.39232 7 10.209 7H11.084V8.21917C10.9905 8.1851 10.8918 8.16734 10.7923 8.16667C10.3082 8.16667 9.91732 8.5575 9.91732 9.04167V13.125C9.91732 13.6092 10.3082 14 10.7923 14C11.2765 14 11.6673 13.6092 11.6673 13.125V0H11.3757ZM10.209 6.41667C9.70732 6.41667 9.33398 6.04917 9.33398 5.54167V1.45833C9.33398 0.950833 9.71315 0.583333 10.209 0.583333H11.084V6.41667H10.209ZM11.084 13.125C11.084 13.2024 11.0533 13.2765 10.9986 13.3312C10.9439 13.3859 10.8697 13.4167 10.7923 13.4167C10.715 13.4167 10.6408 13.3859 10.5861 13.3312C10.5314 13.2765 10.5007 13.2024 10.5007 13.125V9.04167C10.5007 8.87833 10.629 8.75 10.7923 8.75C10.9557 8.75 11.084 8.87833 11.084 9.04167V13.125Z" fill="black"/>
</svg>
