<svg width="18" height="18" viewBox="0 0 18 18" fill="none" xmlns="http://www.w3.org/2000/svg">
<path d="M17.0631 7.90817L15.6172 7.24793L14.341 5.21187C13.9721 4.6217 13.3229 4.26392 12.6258 4.26761H7.18892C6.55818 4.26761 5.96064 4.559 5.57704 5.06064L3.92827 7.21842L1.18033 7.97088C0.483196 8.16268 0 8.80079 0 9.52374V10.575C0 11.4639 0.708195 12.1979 1.59713 12.1979H1.83319C2.11721 13.2934 3.23483 13.95 4.33032 13.6659C5.04958 13.4778 5.61392 12.9172 5.79835 12.1979H11.9951C12.2791 13.2934 13.3967 13.95 14.4922 13.6659C15.2114 13.4778 15.7758 12.9172 15.9602 12.1979H16.4028C17.2918 12.1979 18 11.4639 18 10.575V9.3762C18.0037 8.74547 17.6348 8.17006 17.0631 7.90817ZM3.81393 12.9873C3.09098 12.9873 2.5045 12.4008 2.5045 11.6778C2.5045 10.9549 3.09098 10.3684 3.81393 10.3684C4.53688 10.3684 5.12335 10.9549 5.12335 11.6778C5.12704 12.3971 4.54056 12.9836 3.81393 12.9873ZM13.9758 12.9873C13.2528 12.9873 12.6664 12.4008 12.6664 11.6778C12.6664 10.9549 13.2528 10.3684 13.9758 10.3684C14.6987 10.3684 15.2852 10.9549 15.2852 11.6778C15.2889 12.3971 14.7024 12.9836 13.9758 12.9873ZM16.4028 11.4602H16.0119C15.8901 10.3352 14.8758 9.52374 13.7508 9.64915C12.7955 9.75243 12.043 10.5086 11.9397 11.4602H5.84999C5.72827 10.3352 4.71392 9.52374 3.58893 9.64915C2.6336 9.75243 1.88114 10.5086 1.77787 11.4602H1.59344C1.11024 11.4602 0.734015 11.0582 0.734015 10.575V9.52374C0.730326 9.12907 0.992211 8.78604 1.37213 8.67907L4.24548 7.89342C4.32294 7.87129 4.39302 7.82703 4.44097 7.76063L6.15982 5.50695C6.40695 5.18974 6.78687 5.00531 7.18892 5.00531H12.6258C13.0684 5.00162 13.4852 5.22662 13.7176 5.60285L15.0528 7.73481C15.0897 7.79752 15.1487 7.84547 15.2114 7.87498L16.7532 8.57948C17.0631 8.72333 17.2623 9.03317 17.2586 9.3762V10.575H17.2623C17.2623 11.0582 16.886 11.4602 16.4028 11.4602Z" fill="#333646"/>
</svg>
