<svg width="11" height="11" viewBox="0 0 11 11" fill="none" xmlns="http://www.w3.org/2000/svg">
<rect width="11" height="11" fill="#F7F8FA"/>
<path fill-rule="evenodd" clip-rule="evenodd" d="M10.0949 2.09263C10.3682 1.81926 10.3682 1.37605 10.0949 1.10268C9.8215 0.829315 9.37829 0.829314 9.10492 1.10268L5.49881 4.70879L1.89389 1.10387C1.62053 0.830501 1.17731 0.830501 0.903944 1.10387C0.630577 1.37724 0.630577 1.82045 0.903944 2.09382L4.50886 5.69874L0.90248 9.30512C0.629114 9.57849 0.629113 10.0217 0.90248 10.2951C1.17585 10.5684 1.61906 10.5684 1.89243 10.2951L5.49881 6.68869L9.10638 10.2963C9.37975 10.5696 9.82297 10.5696 10.0963 10.2963C10.3697 10.0229 10.3697 9.57967 10.0963 9.30631L6.48876 5.69874L10.0949 2.09263Z" fill="#7A8793"/>
</svg>
