<svg width="18" height="18" viewBox="0 0 18 18" fill="none" xmlns="http://www.w3.org/2000/svg">
<path fill-rule="evenodd" clip-rule="evenodd" d="M13.9723 5.82653H13.8486L13.3736 5.82656V6.64908H17.2473C17.4539 6.64908 17.6235 6.81867 17.6235 7.02531C17.6235 7.23197 17.4539 7.40155 17.2473 7.40155H13.3735V8.55032C13.3735 8.75694 13.204 8.92652 12.9973 8.92652H11.0973C10.8907 8.92652 10.7211 8.75694 10.7211 8.55032V5.82653H10.1223C9.91567 5.82653 9.7461 5.65694 9.7461 5.45029V3.92653H6.97359V17.124H9.61492L8.6949 10.6578L8.69445 10.6549C8.68642 10.607 8.69452 10.4924 8.75152 10.3932C8.80305 10.3035 8.89507 10.224 9.07237 10.224H15.0223C15.1296 10.224 15.2025 10.2467 15.2525 10.2759C15.3022 10.3049 15.3362 10.3445 15.3596 10.3891C15.4089 10.4829 15.4099 10.5972 15.4002 10.655L14.4797 17.124H17.4973C17.704 17.124 17.8736 17.2937 17.8736 17.5003C17.8736 17.7069 17.704 17.8765 17.4973 17.8765H0.497331C0.290678 17.8765 0.121094 17.7069 0.121094 17.5003V0.500259C0.121094 0.293607 0.290678 0.124023 0.497331 0.124023H17.4973C17.704 0.124023 17.8736 0.293607 17.8736 0.500259V3.55029C17.8736 3.75694 17.704 3.92653 17.4973 3.92653H14.3486V5.45029C14.3486 5.65694 14.179 5.82653 13.9723 5.82653ZM17.1211 0.876529H0.873605V5.27409H2.84734C3.05399 5.27409 3.22357 5.44368 3.22357 5.65032C3.22357 5.85698 3.05399 6.02656 2.84734 6.02656H0.873605V7.17405H1.92237C2.12901 7.17405 2.2986 7.34364 2.2986 7.55027C2.2986 7.75697 2.12901 7.92655 1.92237 7.92655H0.873605V17.124H6.22113V3.55026C6.22113 3.3436 6.39071 3.17402 6.59736 3.17402H17.1211V0.876529ZM13.5961 3.92653H10.4986V5.07402H13.5961V3.92653ZM12.6211 5.82653H11.4736V8.17404H12.6211V5.82653ZM14.5896 10.9765H9.50512L10.3647 17.124H13.73L14.5896 10.9765Z" fill="#333646"/>
</svg>
