<svg width="18" height="18" viewBox="0 0 18 18" fill="none" xmlns="http://www.w3.org/2000/svg">
<path fill-rule="evenodd" clip-rule="evenodd" d="M18 11.1L15.75 5.55V1.8C15.75 1.5 15.6 1.275 15.45 1.05C15.225 0.825 15 0.75 14.7 0.75H9.375H8.625H3.3C2.7 0.75 2.25 1.2 2.25 1.8V5.55L0 11.1V11.25V15.45C0 15.9 0.3 16.35 0.75 16.425C0.75 16.425 0.75 16.425 0.75 16.5V17.625C0.75 17.7 0.825 17.85 0.825 17.925C0.9 17.925 1.05 18 1.125 18C1.2 18 1.35 17.925 1.425 17.925C1.425 17.85 1.5 17.7 1.5 17.625V16.5H8.625H9.375H16.5V17.625C16.5 17.7 16.575 17.85 16.575 17.925C16.65 18 16.725 18 16.875 18C17.025 18 17.1 17.925 17.175 17.925C17.25 17.85 17.25 17.775 17.25 17.625V16.5C17.25 16.5 17.25 16.5 17.25 16.425C17.475 16.35 17.625 16.2 17.775 16.05C17.925 15.9 18 15.675 18 15.45V11.25V11.1ZM17.25 11.25H9.375V6H15.15L17.25 11.25ZM14.7 1.5C14.775 1.5 14.85 1.5 14.925 1.575C15 1.65 15 1.725 15 1.8V5.25H9.375V1.5H14.7ZM3 1.8C3 1.65 3.15 1.5 3.3 1.5H8.625V5.25H3V1.8ZM2.85 6H8.625V11.25H0.75L2.85 6ZM1.05 15.75C0.975 15.75 0.9 15.75 0.825 15.675C0.75 15.6 0.75 15.525 0.75 15.45V12H8.625V15.75H1.05ZM17.25 15.45C17.25 15.6 17.1 15.75 16.95 15.75H9.375V12H17.25V15.45Z" fill="#333646"/>
</svg>
