<svg width="18" height="18" viewBox="0 0 18 18" fill="none" xmlns="http://www.w3.org/2000/svg">
<g clip-path="url(#clip0)">
<path fill-rule="evenodd" clip-rule="evenodd" d="M4.125 3.75H3.75V9.75H14.25V3.75H4.125ZM13.5 9H4.5V4.5H13.5V9ZM17.925 14.0175L17.895 13.98L17.8125 13.875L17.5125 13.4925L16.6125 12.33L15.75 11.2275V3C15.75 2.80238 15.672 2.61274 15.533 2.4723C15.394 2.33187 15.2051 2.25198 15.0075 2.25H2.9925C2.58 2.25 2.25 2.5875 2.25 3V11.2125L2.1075 11.3925C1.6575 11.9625 1.2075 12.54 0.7875 13.0875L0.6675 13.245C0.45 13.5225 0.255 13.785 0.075 14.025L0 14.1225V14.25C0 15.2625 0.4875 15.75 1.5 15.75H16.5C17.3775 15.75 18 15.2175 18 14.25V14.1225L17.9175 14.0175H17.925ZM3 3H15.0075C15 3 15 8.94 15 10.5H3V3ZM16.5 15H1.5C0.9525 15 0.78 14.85 0.7575 14.3625C0.915 14.1525 1.08 13.9425 1.2525 13.71L1.3725 13.5525C1.94886 12.8027 2.53138 12.0577 3.12 11.3175L3.1725 11.25H14.805L16.005 12.795L16.905 13.9575C17.0095 14.0918 17.1155 14.2282 17.22 14.3625C17.1825 14.805 16.935 15.0075 16.485 15.0075L16.5 15ZM10.86 12.285C10.8401 12.2043 10.7939 12.1325 10.7287 12.081C10.6636 12.0294 10.5831 12.0009 10.5 12H7.5C7.41561 11.9992 7.33342 12.0269 7.26674 12.0787C7.20005 12.1304 7.15275 12.2031 7.1325 12.285L6.7575 13.785C6.74377 13.8405 6.74292 13.8985 6.75503 13.9544C6.76713 14.0103 6.79186 14.0627 6.82733 14.1075C6.86279 14.1524 6.90805 14.1886 6.95965 14.2133C7.01124 14.238 7.0678 14.2505 7.125 14.25H10.875C10.9322 14.2505 10.9888 14.238 11.0404 14.2133C11.0919 14.1886 11.1372 14.1524 11.1727 14.1075C11.2081 14.0627 11.2329 14.0103 11.245 13.9544C11.2571 13.8985 11.2562 13.8405 11.2425 13.785L10.8675 12.285H10.86ZM7.605 13.5L7.7925 12.75H10.2075L10.395 13.5H7.605Z" fill="#333646"/>
</g>
<defs>
<clipPath id="clip0">
<rect width="18" height="18" fill="white"/>
</clipPath>
</defs>
</svg>
