<svg width="18" height="18" viewBox="0 0 18 18" fill="none" xmlns="http://www.w3.org/2000/svg">
<g clip-path="url(#clip0)">
<path fill-rule="evenodd" clip-rule="evenodd" d="M17.9692 1.80766C17.9089 1.66133 17.7657 1.56585 17.6076 1.56585H16.4338V0.391982C16.4338 0.233914 16.3382 0.0914723 16.1919 0.0304314C16.0464 -0.03138 15.8781 0.00302897 15.7654 0.11495L14.2003 1.68008C14.1275 1.75363 14.086 1.85304 14.086 1.95711V3.36029L9.2952 8.15115C8.9859 7.94618 8.61525 7.82662 8.21715 7.82662C7.13798 7.82662 6.26075 8.70473 6.26075 9.78308C6.26075 10.8615 7.13802 11.7395 8.21715 11.7395C9.29632 11.7395 10.1736 10.8615 10.1736 9.78308C10.1736 9.38475 10.0539 9.0138 9.84855 8.70428L14.6393 3.91358H16.0425C16.1465 3.91358 16.246 3.8729 16.3195 3.79931L17.8847 2.23414C17.9957 2.12226 18.0294 1.954 17.9692 1.80766ZM8.21715 8.60925C8.39797 8.60925 8.56943 8.65035 8.72258 8.72377L7.93965 9.50663C7.78702 9.65925 7.78702 9.90735 7.93965 10.06C8.01637 10.1359 8.1165 10.1742 8.2167 10.1742C8.31682 10.1742 8.41703 10.1359 8.49293 10.06L9.27608 9.27682C9.34972 9.4302 9.39105 9.60195 9.39105 9.78315C9.39105 10.4303 8.86432 10.957 8.21715 10.957C7.56997 10.957 7.0433 10.4303 7.0433 9.78315C7.0433 9.1359 7.56997 8.60925 8.21715 8.60925ZM15.8804 3.13098H14.8686V2.11911L15.6511 1.33654V1.95711C15.6511 2.1731 15.8264 2.34842 16.0424 2.34842H16.663L15.8804 3.13098ZM14.5278 5.14306C14.707 5.0249 14.9496 5.07263 15.0701 5.2534C15.963 6.601 16.4342 8.16772 16.4342 9.783C16.4342 14.3141 12.7482 18.0001 8.21708 18.0001C3.68594 18.0001 0 14.3141 0 9.783C0 5.25186 3.68594 1.56592 8.21708 1.56592C9.83228 1.56592 11.3983 2.03781 12.7466 2.92995C12.9258 3.04891 12.9759 3.29228 12.8569 3.47228C12.7364 3.65306 12.4938 3.70078 12.3146 3.58262C11.0954 2.77577 9.67815 2.34848 8.21708 2.34848C4.11793 2.34848 0.782565 5.68384 0.782565 9.783C0.782565 13.8821 4.11793 17.2174 8.21708 17.2174C12.3162 17.2174 15.6516 13.8821 15.6516 9.78292C15.6516 8.32192 15.2251 6.90463 14.4174 5.68538C14.2984 5.50537 14.3478 5.26202 14.5278 5.14306ZM12.2826 7.40946C12.475 7.31555 12.7106 7.39691 12.8045 7.59338C13.1372 8.2875 13.3054 9.02392 13.3054 9.78308C13.3054 12.5878 11.0234 14.8698 8.21858 14.8698C5.41383 14.8698 3.13183 12.5878 3.13183 9.78308C3.13183 6.97828 5.41383 4.69629 8.21858 4.69629C8.97773 4.69629 9.71408 4.86455 10.4074 5.19635C10.6023 5.29027 10.6845 5.52346 10.5914 5.71832C10.4983 5.91319 10.2643 5.99536 10.0694 5.90222C9.48248 5.62129 8.85953 5.47886 8.21858 5.47886C5.84585 5.47886 3.91444 7.40946 3.91444 9.783C3.91444 12.1566 5.84593 14.0872 8.21865 14.0872C10.5914 14.0872 12.5228 12.1566 12.5228 9.783C12.5228 9.14213 12.3796 8.5191 12.0987 7.9314C12.0055 7.73655 12.0877 7.50338 12.2826 7.40946Z" fill="#333646"/>
</g>
<defs>
<clipPath id="clip0">
<rect width="18" height="18" fill="white"/>
</clipPath>
</defs>
</svg>
