<svg width="18" height="18" viewBox="0 0 18 18" fill="none" xmlns="http://www.w3.org/2000/svg">
<path fill-rule="evenodd" clip-rule="evenodd" d="M3 0.75H15C15.4142 0.75 15.75 1.08579 15.75 1.5V3.75H2.25V1.5C2.25 1.08579 2.58578 0.75 3 0.75ZM1.5 4.5V3.75V1.5C1.5 0.671572 2.17157 0 3 0H15C15.8285 0 16.5 0.671573 16.5 1.5V3.75V4.5V14.25V15V16.5C16.5 17.3284 15.8285 18 15 18H3C2.17157 18 1.5 17.3284 1.5 16.5V15V14.25V4.5ZM15.75 4.5V14.25H2.25V4.5H15.75ZM15.75 15V16.5C15.75 16.9142 15.4142 17.25 15 17.25H3C2.58579 17.25 2.25 16.9142 2.25 16.5V15H15.75ZM6 6.375C6 6.16789 6.16789 6 6.375 6H11.625C11.8321 6 12 6.16789 12 6.375C12 6.58211 11.8321 6.75 11.625 6.75H6.375C6.16789 6.75 6 6.58211 6 6.375ZM13.125 2.28735C13.125 2.59801 12.8731 2.84985 12.5625 2.84985C12.2519 2.84985 12 2.59801 12 2.28735C12 1.97669 12.2519 1.72485 12.5625 1.72485C12.8731 1.72485 13.125 1.97669 13.125 2.28735ZM10.3125 2.84985C10.6231 2.84985 10.875 2.59801 10.875 2.28735C10.875 1.97669 10.6231 1.72485 10.3125 1.72485C10.0019 1.72485 9.75 1.97669 9.75 2.28735C9.75 2.59801 10.0019 2.84985 10.3125 2.84985ZM8.625 2.28735C8.625 2.59801 8.37316 2.84985 8.0625 2.84985C7.75184 2.84985 7.5 2.59801 7.5 2.28735C7.5 1.97669 7.75184 1.72485 8.0625 1.72485C8.37316 1.72485 8.625 1.97669 8.625 2.28735ZM5.8125 2.84985C6.12316 2.84985 6.375 2.59801 6.375 2.28735C6.375 1.97669 6.12316 1.72485 5.8125 1.72485C5.50184 1.72485 5.25 1.97669 5.25 2.28735C5.25 2.59801 5.50184 2.84985 5.8125 2.84985Z" fill="#333646"/>
</svg>
