<svg width="18" height="18" viewBox="0 0 18 18" fill="none" xmlns="http://www.w3.org/2000/svg">
<path fill-rule="evenodd" clip-rule="evenodd" d="M7.125 3C7.7463 3 8.25 2.49632 8.25 1.875C8.25 1.25368 7.7463 0.75 7.125 0.75C6.50368 0.75 6 1.25368 6 1.875C6 2.49632 6.50368 3 7.125 3ZM9 1.875C9 2.78246 8.35537 3.53936 7.499 3.7127L8.13022 7.5H11.625C11.8321 7.5 12 7.66792 12 7.875C12 8.08208 11.8321 8.25 11.625 8.25H8.25525L8.41103 9.18503C8.50147 9.7275 8.97083 10.1251 9.52073 10.1251H12.3476C13.1971 10.1251 13.9405 10.6961 14.1593 11.5169L15.2881 15.7501H16.5001C16.7071 15.7501 16.8751 15.9179 16.8751 16.1251C16.8751 16.3321 16.7071 16.5001 16.5001 16.5001H15.0001C14.8302 16.5001 14.6815 16.3859 14.6378 16.2217L13.4347 11.7102C13.3034 11.2177 12.8573 10.8751 12.3476 10.8751H9.52073C8.60415 10.8751 7.82198 10.2124 7.67123 9.30832L6.75516 3.81171C6.74958 3.77825 6.74862 3.74508 6.75182 3.71286C5.89507 3.53983 5.25 2.78275 5.25 1.875C5.25 0.839468 6.08947 0 7.125 0C8.16052 0 9 0.839468 9 1.875ZM11.9882 12.7381C12.0012 12.5378 11.8372 12.3749 11.6365 12.3749C11.4358 12.3749 11.2745 12.5379 11.2595 12.7381C11.1994 13.5479 10.9386 14.332 10.4982 15.0187C9.99232 15.8077 9.27067 16.435 8.4189 16.8261C7.56712 17.2172 6.62104 17.3557 5.69291 17.2253C4.76478 17.0947 3.89359 16.7006 3.18273 16.0897C2.47188 15.4789 1.95121 14.6769 1.68253 13.779C1.41385 12.8811 1.40843 11.9249 1.66693 11.024C1.92543 10.1231 2.43698 9.3153 3.14088 8.6964C3.75356 8.15775 4.48955 7.78193 5.28104 7.60057C5.47672 7.55573 5.61356 7.37174 5.58335 7.17328C5.55314 6.97482 5.36741 6.83724 5.17132 6.88019C4.24236 7.08369 3.37805 7.51995 2.66087 8.15047C1.85251 8.86117 1.26503 9.78893 0.968168 10.8236C0.671304 11.8581 0.677521 12.9562 0.986078 13.9874C1.29464 15.0186 1.89258 15.9396 2.70894 16.6411C3.5253 17.3426 4.52579 17.7952 5.59168 17.9451C6.65756 18.0949 7.74405 17.936 8.72227 17.4868C9.70043 17.0376 10.5292 16.3172 11.1102 15.4111C11.6256 14.6072 11.9269 13.6871 11.9882 12.7381Z" fill="#333646"/>
</svg>
