<svg width="18" height="18" viewBox="0 0 18 18" fill="none" xmlns="http://www.w3.org/2000/svg">
<g clip-path="url(#clip0)">
<path fill-rule="evenodd" clip-rule="evenodd" d="M17.97 11.1075L15.75 5.55V1.785C15.748 1.50981 15.6373 1.24657 15.442 1.05268C15.2467 0.858797 14.9827 0.749993 14.7075 0.75H3.2925C2.715 0.75 2.25 1.215 2.25 1.785V5.55L0.03 11.1075L0 11.25V15.4575C0 15.9375 0.3225 16.335 0.7575 16.455C0.7575 16.47 0.75 16.485 0.75 16.5V17.625C0.75 17.7245 0.789509 17.8198 0.859835 17.8902C0.930161 17.9605 1.02554 18 1.125 18C1.22446 18 1.31984 17.9605 1.39017 17.8902C1.46049 17.8198 1.5 17.7245 1.5 17.625V16.5H16.5V17.625C16.5 17.7245 16.5395 17.8198 16.6098 17.8902C16.6802 17.9605 16.7755 18 16.875 18C16.9745 18 17.0698 17.9605 17.1402 17.8902C17.2105 17.8198 17.25 17.7245 17.25 17.625V16.5C17.25 16.485 17.2425 16.47 17.2425 16.455C17.4598 16.3933 17.6511 16.2626 17.7878 16.0827C17.9244 15.9028 17.9989 15.6834 18 15.4575V11.25L17.97 11.1075ZM3 1.785C3 1.6275 3.1275 1.5 3.2925 1.5H14.7075C14.7851 1.5 14.8595 1.53082 14.9143 1.58567C14.9692 1.64053 15 1.71492 15 1.7925V5.25H14.25V4.0425C14.25 3.465 13.785 3 13.2075 3H10.8C10.215 3 9.75 3.465 9.75 4.0425V5.25H8.25V4.0425C8.25 3.465 7.785 3 7.2075 3H4.7925C4.215 3 3.75 3.465 3.75 4.0425V5.25H3V1.785ZM13.5 4.0425V6.45C13.5 6.52758 13.4692 6.60197 13.4143 6.65683C13.3595 6.71168 13.2851 6.7425 13.2075 6.7425H10.8C10.7616 6.7435 10.7234 6.73692 10.6875 6.72313C10.6516 6.70935 10.6188 6.68863 10.5909 6.66216C10.5631 6.63569 10.5407 6.604 10.5251 6.56888C10.5095 6.53376 10.501 6.49592 10.5 6.4575V4.0425C10.5 3.96492 10.5308 3.89053 10.5857 3.83567C10.6405 3.78082 10.7149 3.75 10.7925 3.75H13.2C13.2776 3.75 13.352 3.78082 13.4068 3.83567C13.4617 3.89053 13.4925 3.96492 13.4925 4.0425H13.5ZM7.5 4.0425V6.45C7.501 6.48904 7.49418 6.52788 7.47993 6.56424C7.46567 6.6006 7.44429 6.63373 7.41703 6.6617C7.38976 6.68966 7.35718 6.71187 7.32119 6.72704C7.28521 6.74221 7.24655 6.75001 7.2075 6.75H4.7925C4.75409 6.75 4.71605 6.74243 4.68057 6.72774C4.64508 6.71304 4.61283 6.69149 4.58567 6.66433C4.55851 6.63717 4.53696 6.60492 4.52227 6.56944C4.50757 6.53395 4.5 6.49591 4.5 6.4575V4.0425C4.5 3.96492 4.53082 3.89053 4.58567 3.83567C4.64053 3.78082 4.71492 3.75 4.7925 3.75H7.2C7.27758 3.75 7.35197 3.78082 7.40683 3.83567C7.46168 3.89053 7.4925 3.96492 7.4925 4.0425H7.5ZM2.88 6H3.75V6.4575C3.75 7.035 4.215 7.5 4.7925 7.5H7.2C7.785 7.5 8.25 7.035 8.25 6.4575V6H9.75V6.4575C9.75 7.0425 10.215 7.5 10.7925 7.5H13.2C13.785 7.5 14.25 7.035 14.25 6.4575V6H15.12L17.22 11.25H0.78L2.88 6ZM17.25 15.4575C17.25 15.615 17.115 15.75 16.9575 15.75H1.0425C0.964924 15.75 0.890526 15.7192 0.835671 15.6643C0.780817 15.6095 0.75 15.5351 0.75 15.4575V12H17.25V15.4575Z" fill="#333646"/>
</g>
<defs>
<clipPath id="clip0">
<rect width="18" height="18" fill="white"/>
</clipPath>
</defs>
</svg>
