<svg width="18" height="18" viewBox="0 0 18 18" fill="none" xmlns="http://www.w3.org/2000/svg">
<path d="M17.933 6.34855L16.0675 3.36385C15.9988 3.25398 15.8791 3.1875 15.7494 3.1875H12.3777C12.376 3.1875 12.3749 3.1875 12.3733 3.1875H5.62546C5.62465 3.1875 5.62353 3.1875 5.62244 3.1875H2.24985C2.12075 3.1875 2.00048 3.25398 1.93182 3.36385L0.0569845 6.36366C-0.0152626 6.47929 -0.0190947 6.62488 0.0471055 6.74406C0.113024 6.86352 0.238534 6.93742 0.375047 6.93742H4.01236L8.36079 10.0891L2.77994 14.1338C2.61214 14.2551 2.57477 14.4897 2.69617 14.6572C2.7695 14.7583 2.88404 14.8121 3.0002 14.8121C3.07656 14.8121 3.15345 14.7891 3.21993 14.7407L8.99987 10.5522L14.7793 14.7407C14.8458 14.7891 14.9232 14.8121 14.999 14.8121C15.1155 14.8121 15.2297 14.7583 15.3033 14.6572C15.4247 14.4897 15.3874 14.2551 15.2198 14.1338L9.63878 10.0891L13.9872 6.93742H17.6242C17.6248 6.93742 17.6248 6.93742 17.6248 6.93742C17.8319 6.93742 18 6.76962 18 6.56251C18 6.48285 17.9752 6.40923 17.933 6.34855ZM4.42243 6.18732H1.05153L2.45777 3.93732H5.11678L4.42243 6.18732ZM5.90147 3.93732H8.62471V6.18732H5.20741L5.90147 3.93732ZM8.99991 9.62551L5.29035 6.93742H12.7089L8.99991 9.62551ZM9.37482 6.18732V3.93732H12.0981L12.7924 6.18732H9.37482ZM13.5769 6.18732L12.8831 3.93732H15.5418L16.948 6.18732H13.5769Z" fill="#333646"/>
</svg>
