<svg width="18" height="18" viewBox="0 0 18 18" fill="none" xmlns="http://www.w3.org/2000/svg">
<g clip-path="url(#clip0)">
<path fill-rule="evenodd" clip-rule="evenodd" d="M16.875 17.25H15.75V0.75H16.875C16.9745 0.75 17.0698 0.710491 17.1402 0.640165C17.2105 0.569839 17.25 0.474456 17.25 0.375C17.25 0.275544 17.2105 0.180161 17.1402 0.109835C17.0698 0.0395088 16.9745 0 16.875 0L0.375 0C0.275544 0 0.180161 0.0395088 0.109835 0.109835C0.0395088 0.180161 0 0.275544 0 0.375C0 0.474456 0.0395088 0.569839 0.109835 0.640165C0.180161 0.710491 0.275544 0.75 0.375 0.75H1.5V17.25H0.375C0.275544 17.25 0.180161 17.2895 0.109835 17.3598C0.0395088 17.4302 0 17.5255 0 17.625C0 17.7245 0.0395088 17.8198 0.109835 17.8902C0.180161 17.9605 0.275544 18 0.375 18H16.875C16.9745 18 17.0698 17.9605 17.1402 17.8902C17.2105 17.8198 17.25 17.7245 17.25 17.625C17.25 17.5255 17.2105 17.4302 17.1402 17.3598C17.0698 17.2895 16.9745 17.25 16.875 17.25ZM8.25 2.25V17.25H2.25V0.75H8.25V2.25ZM15 17.25H9V0.75H15V17.25ZM3.1095 8.1405C3.07458 8.10567 3.04687 8.06428 3.02797 8.01872C3.00906 7.97317 2.99933 7.92433 2.99933 7.875C2.99933 7.82567 3.00906 7.77683 3.02797 7.73128C3.04687 7.68572 3.07458 7.64433 3.1095 7.6095L4.6095 6.1095C4.64433 6.07458 4.68572 6.04687 4.73127 6.02797C4.77683 6.00906 4.82567 5.99933 4.875 5.99933C4.92433 5.99933 4.97317 6.00906 5.01873 6.02797C5.06428 6.04687 5.10567 6.07458 5.1405 6.1095L6.6405 7.6095C6.67537 7.64437 6.70302 7.68576 6.72189 7.73131C6.74076 7.77687 6.75047 7.82569 6.75047 7.875C6.75047 7.92431 6.74076 7.97313 6.72189 8.01869C6.70302 8.06424 6.67537 8.10563 6.6405 8.1405C6.60563 8.17537 6.56424 8.20302 6.51869 8.22189C6.47313 8.24076 6.42431 8.25047 6.375 8.25047C6.32569 8.25047 6.27687 8.24076 6.23131 8.22189C6.18576 8.20302 6.14437 8.17537 6.1095 8.1405L5.25 7.28025V10.875C5.25 10.9745 5.21049 11.0698 5.14016 11.1402C5.06984 11.2105 4.97446 11.25 4.875 11.25C4.77554 11.25 4.68016 11.2105 4.60984 11.1402C4.53951 11.0698 4.5 10.9745 4.5 10.875V7.28025L3.6405 8.1405C3.60567 8.17542 3.56428 8.20313 3.51873 8.22203C3.47317 8.24094 3.42433 8.25067 3.375 8.25067C3.32567 8.25067 3.27683 8.24094 3.23127 8.22203C3.18572 8.20313 3.14433 8.17542 3.1095 8.1405ZM10.6095 9.6405C10.5391 9.57009 10.4995 9.47458 10.4995 9.375C10.4995 9.27542 10.5391 9.17991 10.6095 9.1095C10.6799 9.03909 10.7754 8.99953 10.875 8.99953C10.9746 8.99953 11.0701 9.03909 11.1405 9.1095L12 9.96975V6.375C12 6.27554 12.0395 6.18016 12.1098 6.10983C12.1802 6.03951 12.2755 6 12.375 6C12.4745 6 12.5698 6.03951 12.6402 6.10983C12.7105 6.18016 12.75 6.27554 12.75 6.375V9.96975L13.6095 9.1095C13.6799 9.03909 13.7754 8.99953 13.875 8.99953C13.9746 8.99953 14.0701 9.03909 14.1405 9.1095C14.2109 9.17991 14.2505 9.27542 14.2505 9.375C14.2505 9.47458 14.2109 9.57009 14.1405 9.6405L12.6405 11.1405C12.6057 11.1754 12.5643 11.2031 12.5187 11.222C12.4732 11.2409 12.4243 11.2507 12.375 11.2507C12.3257 11.2507 12.2768 11.2409 12.2313 11.222C12.1857 11.2031 12.1443 11.1754 12.1095 11.1405L10.6095 9.6405Z" fill="#333646"/>
</g>
<defs>
<clipPath id="clip0">
<rect width="18" height="18" fill="white"/>
</clipPath>
</defs>
</svg>
