<svg width="18" height="18" viewBox="0 0 18 18" fill="none" xmlns="http://www.w3.org/2000/svg">
<path fill-rule="evenodd" clip-rule="evenodd" d="M2.625 1.5C2.4179 1.5 2.25 1.66789 2.25 1.875V3H1.125C0.917895 3 0.75 3.16789 0.75 3.375C0.75 3.5821 0.917895 3.75 1.125 3.75H2.25V4.875C2.25 5.0821 2.4179 5.25 2.625 5.25C2.8321 5.25 3 5.0821 3 4.875V3.75H4.125C4.33211 3.75 4.5 3.5821 4.5 3.375C4.5 3.16789 4.33211 3 4.125 3H3V1.875C3 1.66789 2.8321 1.5 2.625 1.5ZM17.25 12.75H0.75V11.625V9.75C0.75 8.92155 1.42157 8.25 2.25 8.25H12H17.25V12.75ZM18 8.25V13.5V16.875C18 17.0821 17.8321 17.25 17.625 17.25C17.4179 17.25 17.25 17.0821 17.25 16.875V13.5H0.75V16.875C0.75 17.0821 0.582106 17.25 0.375 17.25C0.167893 17.25 0 17.0821 0 16.875V13.5V11.625V9.75C0 8.50733 1.00736 7.5 2.25 7.5H12C12 6.25736 13.0073 5.25 14.25 5.25H17.25V2.625C17.25 2.4179 17.4179 2.25 17.625 2.25C17.8321 2.25 18 2.4179 18 2.625V5.25V7.5V8.25ZM17.25 6H14.25C13.4215 6 12.75 6.67157 12.75 7.5H17.25V6Z" fill="#333646"/>
</svg>
