<svg width="18" height="18" viewBox="0 0 18 18" fill="none" xmlns="http://www.w3.org/2000/svg">
<path fill-rule="evenodd" clip-rule="evenodd" d="M8.63022 4.02565C6.86197 2.20759 3.98938 2.20759 2.22113 4.02565C0.460145 5.83623 0.460145 8.76638 2.22113 10.577L8.65562 17.1927C8.84446 17.3868 9.15632 17.3868 9.34517 17.1927L15.7797 10.577C17.5406 8.76638 17.5406 5.83623 15.7797 4.02565C14.0114 2.20759 11.1388 2.20759 9.37056 4.02565L9.00039 4.40625L8.63022 4.02565ZM2.91067 4.69631C4.30124 3.26658 6.55011 3.26658 7.94067 4.69631L8.65562 5.43139C8.84446 5.62556 9.15632 5.62556 9.34517 5.43139L10.0601 4.69631C11.4507 3.26658 13.6995 3.26658 15.0901 4.69631C16.4879 6.13352 16.4879 8.46909 15.0901 9.9063L9.00039 16.1675L2.91067 9.9063C1.51284 8.46909 1.51284 6.13352 2.91067 4.69631Z" fill="#7A8793"/>
</svg>
