<svg width="18" height="18" viewBox="0 0 18 18" fill="none" xmlns="http://www.w3.org/2000/svg">
<path fill-rule="evenodd" clip-rule="evenodd" d="M5.48589 0.580645C5.48589 0.363537 5.66192 0.1875 5.87903 0.1875C6.09614 0.1875 6.27217 0.363537 6.27217 0.580645V4.39717H10.0887C10.3058 4.39717 10.4818 4.57321 10.4818 4.79032C10.4818 5.00743 10.3058 5.18347 10.0887 5.18347H6.02327L3.612 7.22782H14.3881L11.8667 5.09019C11.7786 5.0155 11.7278 4.90584 11.7278 4.79032V0.580645C11.7278 0.36353 11.9039 0.1875 12.121 0.1875C12.3381 0.1875 12.5141 0.36353 12.5141 0.580645V4.60822L15.6039 7.22782H16.5484C16.7655 7.22782 16.9415 7.40385 16.9415 7.62097C16.9415 7.8381 16.7655 8.01412 16.5484 8.01412H15.8528V17.0262H17.4193C17.6365 17.0262 17.8125 17.2022 17.8125 17.4193C17.8125 17.6365 17.6365 17.8125 17.4193 17.8125H0.580646C0.363537 17.8125 0.1875 17.6365 0.1875 17.4193C0.1875 17.2022 0.363537 17.0262 0.580646 17.0262H2.14718V8.01412H1.45161C1.23451 8.01412 1.05847 7.8381 1.05847 7.62097C1.05847 7.40386 1.23451 7.22782 1.45161 7.22782H2.39609L5.48589 4.60822V0.580645ZM15.0665 8.01412H2.93347V17.0262H4.79637V11.5403C4.79637 11.3232 4.97241 11.1472 5.18951 11.1472H12.8105C13.0277 11.1472 13.2036 11.3232 13.2036 11.5403V17.0262H15.0665V8.01412ZM4.76008 9.50805C4.76008 9.29092 4.93612 9.1149 5.15323 9.1149H6.02419C6.2413 9.1149 6.41734 9.29092 6.41734 9.50805C6.41734 9.72517 6.2413 9.9012 6.02419 9.9012H5.15323C4.93612 9.9012 4.76008 9.72517 4.76008 9.50805ZM8.1714 9.50805C8.1714 9.29092 8.34743 9.1149 8.56455 9.1149H9.43545C9.65265 9.1149 9.8286 9.29092 9.8286 9.50805C9.8286 9.72517 9.65265 9.9012 9.43545 9.9012H8.56455C8.34743 9.9012 8.1714 9.72517 8.1714 9.50805ZM11.5826 9.50805C11.5826 9.29092 11.7586 9.1149 11.9758 9.1149H12.8468C13.0639 9.1149 13.2399 9.29092 13.2399 9.50805C13.2399 9.72517 13.0639 9.9012 12.8468 9.9012H11.9758C11.7586 9.9012 11.5826 9.72517 11.5826 9.50805ZM12.4174 11.9335H5.58266V17.0262H12.4174V11.9335Z" fill="#333646"/>
</svg>
