<svg width="14" height="14" viewBox="0 0 14 14" fill="none" xmlns="http://www.w3.org/2000/svg">
<g clip-path="url(#clip0)">
<path d="M13.1748 5.29357L7.34146 0.129384C7.14672 -0.0430458 6.85387 -0.0432099 6.65913 0.129384L0.825812 5.29357C0.71548 5.39119 0.652344 5.53154 0.652344 5.67892V13.4853C0.652344 13.7696 0.882769 14 1.16706 14H12.8337C13.118 14 13.3484 13.7696 13.3484 13.4853V5.67892C13.3484 5.53154 13.2853 5.39121 13.1748 5.29357ZM12.319 12.9706H1.68178V5.91072L7.00037 1.20219L12.319 5.91072V12.9706Z" fill="#7A8793"/>
<path d="M8.73427 8.42383H5.2686C4.9843 8.42383 4.75391 8.65425 4.75391 8.93855V13.4851H5.78331V9.45324H8.21942V13.4851H9.24883H9.24899V8.93855C9.24897 8.65425 9.01857 8.42383 8.73427 8.42383Z" fill="#7A8793"/>
</g>
<defs>
<clipPath id="clip0">
<rect width="14" height="14" fill="white"/>
</clipPath>
</defs>
</svg>
