<svg width="18" height="18" viewBox="0 0 18 18" fill="none" xmlns="http://www.w3.org/2000/svg">
<path fill-rule="evenodd" clip-rule="evenodd" d="M4.49844 0.150391C3.97344 0.150391 3.52344 0.600391 3.52344 1.12539V15.7504C3.52344 16.2754 3.97344 16.7254 4.49844 16.7254H5.84844V17.4754C5.84844 17.7004 5.99844 17.8504 6.22344 17.8504C6.44844 17.8504 6.59844 17.7004 6.59844 17.4754V16.7254H11.4734V17.4754C11.4734 17.7004 11.6234 17.8504 11.8484 17.8504C12.0734 17.8504 12.2234 17.7004 12.2234 17.4754V16.7254H13.4984C14.0234 16.7254 14.4734 16.2754 14.4734 15.7504V1.12539C14.4734 0.600391 14.0234 0.150391 13.4984 0.150391H4.49844ZM4.34844 0.975394H13.6484H13.7234V6.9754H4.34844V0.975394ZM4.34844 7.7254H13.6484H13.7234V15.9754H4.34844V7.7254ZM11.3984 2.85009C11.3984 2.62509 11.5484 2.47509 11.7734 2.47509C11.9984 2.47509 12.1484 2.62509 12.1484 2.85009V5.10009C12.1484 5.32509 11.9984 5.47509 11.7734 5.47509C11.5484 5.47509 11.3984 5.32509 11.3984 5.10009V2.85009ZM11.3984 9.60009C11.3984 9.37509 11.5484 9.22509 11.7734 9.22509C11.9984 9.22509 12.1484 9.37509 12.1484 9.60009V11.8501C12.1484 12.0751 11.9984 12.2251 11.7734 12.2251C11.5484 12.2251 11.3984 12.0751 11.3984 11.8501V9.60009Z" fill="#333646"/>
</svg>
