<svg width="18" height="18" viewBox="0 0 18 18" fill="none" xmlns="http://www.w3.org/2000/svg">
<path fill-rule="evenodd" clip-rule="evenodd" d="M4.60515 0.0935641C4.80163 0.0280714 5.014 0.134257 5.07949 0.330735L5.60449 1.90573C5.66999 2.10221 5.5638 2.31458 5.36732 2.38008C5.17084 2.44557 4.95847 2.33938 4.89298 2.14291L4.36798 0.567906C4.30248 0.371427 4.40867 0.159057 4.60515 0.0935641ZM10.2171 1.00605C10.4675 0.498605 10.9732 0.149658 11.5504 0.149658C12.3485 0.149658 13.0097 0.816689 13.0486 1.6474C13.2294 1.5528 13.4336 1.49966 13.6504 1.49966C14.4575 1.49966 15.0754 2.11755 15.0754 2.92466V8.02466L15.3004 7.72466C15.3042 7.71956 15.3082 7.71454 15.3123 7.70959C15.7736 7.15598 16.5994 6.89201 17.2547 7.42771C17.9637 7.94479 18.028 9.00334 17.5573 9.66521L16.2087 11.6131C16.1874 11.6439 16.1615 11.6714 16.1321 11.6946L14.1754 13.2319V17.5497C14.1754 17.7567 14.0075 17.9247 13.8004 17.9247C13.5933 17.9247 13.4254 17.7567 13.4254 17.5497V13.0497C13.4254 12.9346 13.4783 12.8259 13.5687 12.7548L15.6242 11.1397L16.9452 9.23164C17.2201 8.84689 17.1369 8.26519 16.8074 8.02984C16.7999 8.02436 16.7925 8.01874 16.7853 8.01274C16.5439 7.81151 16.1795 7.84586 15.8942 8.18291L15.0004 9.37466C14.9036 9.50381 14.735 9.55646 14.5818 9.50539C14.4286 9.45439 14.3254 9.31106 14.3254 9.14966V2.92466C14.3254 2.53177 14.0433 2.24966 13.6504 2.24966C13.3504 2.24966 13.0504 2.51341 13.0504 2.92466V6.37466C13.0504 6.58177 12.8825 6.74966 12.6754 6.74966C12.4683 6.74966 12.3004 6.58177 12.3004 6.37466V1.72466C12.3004 1.24088 11.9278 0.899662 11.5504 0.899662C11.1731 0.899662 10.8004 1.24088 10.8004 1.72466V6.44966C10.8004 6.65677 10.6325 6.82466 10.4254 6.82466C10.2183 6.82466 10.0504 6.65677 10.0504 6.44966V2.24966C10.0504 1.76588 9.67778 1.42466 9.30038 1.42466C9.00038 1.42466 8.70038 1.68841 8.70038 2.09966V5.64415C9.33015 5.75446 9.82613 6.31872 9.82613 6.97466V7.84466C10.0342 7.72549 10.27 7.64966 10.5011 7.64966C11.3083 7.64966 11.9261 8.26759 11.9261 9.07466V12.2997C11.9261 13.8252 11.6259 15.35 11.0261 16.7997V17.5495C11.0261 17.7566 10.8583 17.9245 10.6511 17.9245C10.4441 17.9245 10.2761 17.7566 10.2761 17.5495V16.7247C10.2761 16.6747 10.2862 16.6252 10.3055 16.5792C10.8863 15.1999 11.1761 13.7494 11.1761 12.2997V9.07466C11.1761 8.68174 10.8941 8.39966 10.5011 8.39966C10.3877 8.39966 10.2089 8.46401 10.0526 8.59909C9.89738 8.73311 9.82613 8.88169 9.82613 8.99966V10.9497C9.82613 11.1567 9.65828 11.3247 9.45113 11.3247C9.24405 11.3247 9.07613 11.1567 9.07613 10.9497V6.97466C9.07613 6.65677 8.79405 6.37466 8.47613 6.37466C8.08328 6.37466 7.80113 6.65677 7.80113 7.04966V10.7997C7.80113 11.0067 7.63328 11.1747 7.42616 11.1747C7.21905 11.1747 7.05116 11.0067 7.05116 10.7997V6.44966C7.05116 6.05677 6.76905 5.77466 6.37616 5.77466C5.98327 5.77466 5.62616 6.13177 5.62616 6.52466V10.7997C5.62616 11.0067 5.45827 11.1747 5.25116 11.1747C5.04405 11.1747 4.87616 11.0067 4.87616 10.7997V7.64966C4.87616 7.38628 4.64915 7.12466 4.35116 7.12466C4.03327 7.12466 3.75116 7.40677 3.75116 7.72466V13.4247C3.75116 13.5845 3.64982 13.7268 3.49874 13.779C3.34766 13.8313 3.18006 13.782 3.08129 13.6563L2.25629 12.6063C2.25027 12.5987 2.24455 12.5908 2.23914 12.5826C2.0721 12.3321 1.71768 12.2594 1.4142 12.4584C1.08113 12.7 1.01465 13.1313 1.27967 13.5044L2.51941 15.1817L4.49937 16.6483C4.59485 16.719 4.65116 16.8309 4.65116 16.9497V17.5495C4.65116 17.7566 4.48327 17.9245 4.27616 17.9245C4.06905 17.9245 3.90116 17.7566 3.90116 17.5495V17.1386L2.02795 15.751C1.99809 15.7289 1.97168 15.7024 1.9496 15.6726L0.670972 13.9427C0.189206 13.2682 0.27122 12.3531 0.983199 11.8445L0.993151 11.8377C1.58453 11.4434 2.41976 11.5176 2.85435 12.1536L3.00116 12.3404V7.72466C3.00116 6.99255 3.61905 6.37466 4.35116 6.37466C4.54281 6.37466 4.71959 6.41612 4.87663 6.48845C4.89155 5.90759 5.264 5.39094 5.77539 5.15708V4.34966C5.77539 3.55918 6.37703 2.84966 7.27539 2.84966C7.50593 2.84966 7.74158 2.92498 7.95038 3.04773V2.09966C7.95038 1.31091 8.55038 0.674658 9.30038 0.674658C9.64433 0.674658 9.96285 0.798554 10.2171 1.00605ZM7.95038 4.27466V5.71905C7.85415 5.75548 7.76348 5.8018 7.6794 5.85689C7.47966 5.4013 7.05144 5.08273 6.52539 5.03182V4.34966C6.52539 3.94013 6.82375 3.59966 7.27539 3.59966C7.38757 3.59966 7.56368 3.66288 7.7169 3.80214C7.86503 3.93682 7.95038 4.10471 7.95038 4.27466ZM2.29055 1.68406C2.14411 1.5376 1.90667 1.5376 1.76023 1.68406C1.61378 1.8305 1.61378 2.06794 1.76023 2.21438L2.88522 3.33938C3.03167 3.48583 3.26911 3.48583 3.41555 3.33938C3.562 3.19294 3.562 2.9555 3.41555 2.80906L2.29055 1.68406ZM0.918766 4.16419C0.733522 4.07156 0.50827 4.14664 0.415649 4.33189C0.323027 4.51713 0.398111 4.74238 0.583354 4.835L2.08335 5.585C2.26859 5.67763 2.49385 5.60254 2.58647 5.4173C2.67909 5.23206 2.60401 5.0068 2.41877 4.91419L0.918766 4.16419Z" fill="#333646"/>
</svg>
