<svg width="18" height="18" viewBox="0 0 18 18" fill="none" xmlns="http://www.w3.org/2000/svg">
<path d="M11.6992 2.2002C11.1992 2.2002 10.8992 2.8002 11.2992 3.2002L11.9992 4.0002L10.2992 5.7002C9.99922 6.0002 9.99922 6.5002 10.2992 6.8002C10.5992 7.1002 11.0992 7.1002 11.3992 6.8002L12.9992 5.0002L13.6992 5.7002C14.0992 6.1002 14.6992 5.8002 14.6992 5.3002V2.8002C14.6992 2.5002 14.3992 2.2002 14.0992 2.2002C14.0992 2.2002 11.6992 2.2002 11.6992 2.2002ZM3.19922 6.0002C3.19922 6.3002 3.49922 6.4002 3.69922 6.2002L4.99922 5.0002L6.69922 6.7002C6.89922 7.0002 7.39922 7.0002 7.69922 6.7002C7.99922 6.4002 7.99922 5.9002 7.69922 5.6002L5.99922 4.0002L7.19922 2.8002C7.39922 2.6002 7.29922 2.2002 6.99922 2.2002H3.79922C3.49922 2.2002 3.19922 2.5002 3.19922 2.8002C3.19922 2.8002 3.19922 6.0002 3.19922 6.0002ZM6.99922 14.8002C7.29922 14.8002 7.39922 14.5002 7.19922 14.3002L5.99922 13.0002L7.69922 11.4002C7.99922 11.1002 7.99922 10.6002 7.69922 10.3002C7.39922 10.0002 6.89922 10.0002 6.59922 10.3002L4.99922 12.0002L3.79922 10.8002C3.59922 10.6002 3.29922 10.7002 3.29922 11.0002V14.2002C3.29922 14.5002 3.59922 14.8002 3.89922 14.8002H6.99922ZM14.7992 11.0002C14.7992 10.7002 14.4992 10.6002 14.2992 10.8002L12.9992 12.0002L11.3992 10.3002C11.0992 10.0002 10.5992 10.0002 10.2992 10.3002C9.99922 10.6002 9.99922 11.1002 10.2992 11.4002L11.9992 13.0002L10.7992 14.2002C10.5992 14.4002 10.6992 14.7002 10.9992 14.7002H14.1992C14.4992 14.7002 14.7992 14.4002 14.7992 14.1002V11.0002Z" fill="#545769"/>
</svg>
