<svg width="12" height="12" viewBox="0 0 12 12" fill="none" xmlns="http://www.w3.org/2000/svg">
<g clip-path="url(#clip0)">
<path d="M2.65945 7.252L2.24175 8.81134L0.715055 8.84364C0.258797 7.99738 0 7.02916 0 6.00025C0 5.0053 0.241969 4.06705 0.670875 3.24091H0.671203L2.03039 3.49009L2.6258 4.84112C2.50118 5.20443 2.43326 5.59443 2.43326 6.00025C2.4333 6.44069 2.51309 6.86268 2.65945 7.252Z" fill="#FBBB00"/>
<path d="M11.8952 4.87921C11.9641 5.24216 12.0001 5.617 12.0001 6.00009C12.0001 6.42965 11.9549 6.84866 11.8688 7.25284C11.5768 8.62823 10.8136 9.82921 9.75633 10.6791L9.75601 10.6788L8.04404 10.5914L7.80174 9.07888C8.50327 8.66746 9.05152 8.02361 9.34032 7.25284H6.13196V4.87921H9.38712H11.8952Z" fill="#518EF8"/>
<path d="M9.75584 10.6786L9.75617 10.6789C8.72794 11.5054 7.42177 11.9999 5.99991 11.9999C3.71497 11.9999 1.72838 10.7227 0.714966 8.84329L2.65936 7.25165C3.16606 8.60395 4.47057 9.56659 5.99991 9.56659C6.65726 9.56659 7.27311 9.38889 7.80155 9.07867L9.75584 10.6786Z" fill="#28B446"/>
<path d="M9.8298 1.38131L7.88606 2.97263C7.33915 2.63077 6.69265 2.43328 6.00002 2.43328C4.43606 2.43328 3.10716 3.44009 2.62584 4.84088L0.671227 3.24066H0.670898C1.66948 1.31538 3.68112 0 6.00002 0C7.45584 0 8.79068 0.518578 9.8298 1.38131Z" fill="#F14336"/>
</g>
<defs>
<clipPath id="clip0">
<rect width="12" height="12" fill="white"/>
</clipPath>
</defs>
</svg>
