<svg width="18" height="18" viewBox="0 0 18 18" fill="none" xmlns="http://www.w3.org/2000/svg">
<path fill-rule="evenodd" clip-rule="evenodd" d="M4.5 10.125V13.875C4.5 14.0821 4.33211 14.25 4.125 14.25C3.9179 14.25 3.75 14.0821 3.75 13.875V12.375V5.625V4.125C3.75 3.9179 3.9179 3.75 4.125 3.75C4.33211 3.75 4.5 3.9179 4.5 4.125V7.875V10.125ZM5.25 10.125V13.875C5.25 14.4963 4.74632 15 4.125 15C3.50368 15 3 14.4963 3 13.875V13.436C2.88271 13.4774 2.75649 13.5 2.625 13.5C2.00368 13.5 1.5 12.9963 1.5 12.375V10.125H1.125C0.50368 10.125 0 9.6213 0 9C0 8.3787 0.50368 7.875 1.125 7.875H1.5V5.625C1.5 5.00368 2.00368 4.5 2.625 4.5C2.75649 4.5 2.88271 4.52256 3 4.56401V4.125C3 3.50368 3.50368 3 4.125 3C4.74632 3 5.25 3.50368 5.25 4.125V7.875H12.75V4.125C12.75 3.50368 13.2537 3 13.875 3C14.4963 3 15 3.50368 15 4.125V4.56401C15.1173 4.52256 15.2435 4.5 15.375 4.5C15.9963 4.5 16.5 5.00368 16.5 5.625V7.875H16.875C17.4963 7.875 18 8.3787 18 9C18 9.6213 17.4963 10.125 16.875 10.125H16.5V12.375C16.5 12.9963 15.9963 13.5 15.375 13.5C15.2435 13.5 15.1173 13.4774 15 13.436V13.875C15 14.4963 14.4963 15 13.875 15C13.2537 15 12.75 14.4963 12.75 13.875V10.125H5.25ZM2.25 7.875V5.625C2.25 5.4179 2.4179 5.25 2.625 5.25C2.8321 5.25 3 5.4179 3 5.625V12.375C3 12.5821 2.8321 12.75 2.625 12.75C2.4179 12.75 2.25 12.5821 2.25 12.375V10.125V7.875ZM1.5 8.625H1.125C0.917895 8.625 0.75 8.79292 0.75 9C0.75 9.20708 0.917895 9.375 1.125 9.375H1.5V8.625ZM16.875 9.375H16.5V8.625H16.875C17.0821 8.625 17.25 8.79292 17.25 9C17.25 9.20708 17.0821 9.375 16.875 9.375ZM15.75 5.625V7.875V10.125V12.375C15.75 12.5821 15.5821 12.75 15.375 12.75C15.1679 12.75 15 12.5821 15 12.375V5.625C15 5.4179 15.1679 5.25 15.375 5.25C15.5821 5.25 15.75 5.4179 15.75 5.625ZM5.25 9.375H12.75V8.625H5.25V9.375ZM13.5 10.125V13.875C13.5 14.0821 13.6679 14.25 13.875 14.25C14.0821 14.25 14.25 14.0821 14.25 13.875V12.375V5.625V4.125C14.25 3.9179 14.0821 3.75 13.875 3.75C13.6679 3.75 13.5 3.9179 13.5 4.125V7.875V10.125Z" fill="#333646"/>
</svg>
