<svg width="18" height="18" viewBox="0 0 18 18" fill="none" xmlns="http://www.w3.org/2000/svg">
<g clip-path="url(#clip0)">
<path fill-rule="evenodd" clip-rule="evenodd" d="M4.87078 3.75C4.3735 3.75 3.89659 3.94754 3.54496 4.29917C3.19333 4.6508 2.99578 5.12772 2.99578 5.625C2.99578 6.12228 3.19333 6.59919 3.54496 6.95082C3.89659 7.30245 4.3735 7.5 4.87078 7.5C5.36806 7.5 5.84498 7.30245 6.19661 6.95082C6.54824 6.59919 6.74578 6.12228 6.74578 5.625C6.74578 5.12772 6.54824 4.6508 6.19661 4.29917C5.84498 3.94754 5.36806 3.75 4.87078 3.75ZM4.87078 6.75C4.57241 6.75 4.28626 6.63147 4.07529 6.42049C3.86431 6.20952 3.74578 5.92337 3.74578 5.625C3.74578 5.32663 3.86431 5.04048 4.07529 4.8295C4.28626 4.61853 4.57241 4.5 4.87078 4.5C5.16915 4.5 5.4553 4.61853 5.66628 4.8295C5.87725 5.04048 5.99578 5.32663 5.99578 5.625C5.99578 5.92337 5.87725 6.20952 5.66628 6.42049C5.4553 6.63147 5.16915 6.75 4.87078 6.75ZM12.4833 3.6825C12.1265 3.56786 11.769 3.45536 11.4108 3.345C10.4187 3.033 9.42365 2.73049 8.42578 2.4375C6.41578 1.8525 5.04328 1.515 4.49578 1.5C1.92328 1.53 -0.0117188 3.21 -0.0117188 5.625C-0.0117188 7.125 0.723281 8.34 1.88578 9.0525C1.88578 9.0675 1.88578 9.0825 1.89328 9.0975C2.03578 9.6075 2.12578 10.2975 2.18578 11.1225C2.25209 12.1637 2.2646 13.2075 2.22328 14.25C2.22426 14.4486 2.26447 14.6451 2.34161 14.8281C2.41875 15.0111 2.53129 15.1771 2.67276 15.3164C2.81424 15.4558 2.98187 15.5659 3.16601 15.6403C3.35015 15.7147 3.54718 15.752 3.74578 15.75H5.26828C6.20578 15.75 6.74578 15.2025 6.74578 14.265C6.74578 14.2125 6.74578 14.16 6.74578 14.0325C6.72328 12.6375 6.86578 11.58 7.41328 10.425C7.61401 9.99856 7.86586 9.59812 8.16328 9.2325C8.19382 9.19477 8.21674 9.15147 8.23078 9.105C8.61437 9.00921 8.99689 8.90921 9.37828 8.805C10.4226 8.51814 11.4603 8.20806 12.4908 7.875C12.5659 7.84964 12.631 7.80114 12.6768 7.73646C12.7226 7.67179 12.7468 7.59425 12.7458 7.515V4.0275C12.7463 3.94731 12.721 3.86908 12.6738 3.80429C12.6265 3.7395 12.5598 3.69155 12.4833 3.6675V3.6825ZM6.73078 10.11C6.12328 11.3925 5.97328 12.555 5.99578 14.0475V14.265C5.99578 14.79 5.78578 15 5.26828 15H3.74578C3.29578 15 2.97328 14.64 2.97328 14.265C3.01569 13.2001 3.00317 12.1336 2.93578 11.07C2.90192 10.5292 2.83681 9.99079 2.74078 9.4575C3.27328 9.645 3.86578 9.75 4.48828 9.75C5.12578 9.75 6.02578 9.6075 7.13578 9.3675C6.97828 9.6075 6.84328 9.855 6.72328 10.11H6.73078ZM11.9958 4.875V7.2525C11.0615 7.54908 10.1213 7.82664 9.17578 8.085C8.74723 8.20297 8.3172 8.31548 7.88578 8.4225C6.40078 8.79 5.22328 8.9925 4.49578 8.9925C2.32828 8.9925 0.745781 7.605 0.745781 5.6175C0.745781 3.645 2.32828 2.265 4.50328 2.2425C4.94578 2.25 6.31078 2.5875 8.23078 3.15C9.48284 3.51746 10.7304 3.89999 11.9733 4.2975L12.0033 4.305V4.8675L11.9958 4.875ZM17.9358 7.2C17.8504 7.33146 17.744 7.44801 17.6208 7.545C17.3558 7.75996 17.0245 7.87656 16.6833 7.875C16.3308 7.875 16.0833 7.7625 15.5508 7.4475C15.1458 7.2 14.9733 7.125 14.8083 7.125C14.5833 7.125 14.3958 7.1625 14.2458 7.2225C14.1958 7.23942 14.148 7.26207 14.1033 7.29C14.025 7.34201 13.9301 7.36275 13.8373 7.34813C13.7445 7.33351 13.6606 7.28459 13.6021 7.21104C13.5437 7.1375 13.5149 7.04469 13.5216 6.95098C13.5283 6.85727 13.57 6.76949 13.6383 6.705C13.7058 6.6525 13.8183 6.585 13.9683 6.525C14.2362 6.42206 14.5213 6.37115 14.8083 6.375C15.1608 6.375 15.4083 6.4875 15.9408 6.8025C16.3458 7.05 16.5183 7.125 16.6833 7.125C16.8552 7.12697 17.0224 7.06858 17.1558 6.96C17.2133 6.91523 17.2639 6.86215 17.3058 6.8025C17.3585 6.71796 17.4426 6.65783 17.5397 6.63532C17.6367 6.61282 17.7387 6.62979 17.8233 6.6825C17.9078 6.73521 17.968 6.81935 17.9905 6.9164C18.013 7.01345 17.996 7.11546 17.9433 7.2H17.9358ZM13.5783 4.9875C13.517 4.90979 13.4889 4.81098 13.5001 4.71264C13.5113 4.61429 13.561 4.52437 13.6383 4.4625C13.7058 4.41 13.8183 4.3425 13.9683 4.2825C14.2362 4.17956 14.5213 4.12865 14.8083 4.1325C15.1608 4.1325 15.4083 4.245 15.9408 4.56C16.3458 4.8075 16.5183 4.8825 16.6833 4.8825C16.8552 4.88447 17.0224 4.82608 17.1558 4.7175C17.2133 4.67273 17.2639 4.61965 17.3058 4.56C17.3585 4.47546 17.4426 4.41533 17.5397 4.39282C17.6367 4.37032 17.7387 4.38729 17.8233 4.44C17.9078 4.49271 17.968 4.57685 17.9905 4.6739C18.013 4.77095 17.996 4.87296 17.9433 4.9575C17.8579 5.08896 17.7515 5.20551 17.6283 5.3025C17.3633 5.51746 17.032 5.63406 16.6908 5.6325C16.3383 5.6325 16.0908 5.52 15.5583 5.205C15.1533 4.9575 14.9808 4.8825 14.8158 4.8825C14.5908 4.8825 14.4033 4.92 14.2533 4.98C14.2033 4.99692 14.1555 5.01957 14.1108 5.0475C14.0331 5.10881 13.9343 5.13692 13.8359 5.12568C13.7376 5.11444 13.6477 5.06477 13.5858 4.9875H13.5783Z" fill="#333646"/>
</g>
<defs>
<clipPath id="clip0">
<rect width="18" height="18" fill="white"/>
</clipPath>
</defs>
</svg>
