<svg width="14" height="14" viewBox="0 0 14 14" fill="none" xmlns="http://www.w3.org/2000/svg">
<g clip-path="url(#clip0)">
<path d="M1.5 5.5V13.5H13V5.5L7 0.5L1.5 5.5Z" fill="#DDE4EB"/>
<path fill-rule="evenodd" clip-rule="evenodd" d="M7.34146 0.129383L13.1748 5.29357C13.2853 5.39121 13.3484 5.53154 13.3484 5.67892V13.4853C13.3484 13.7696 13.118 14 12.8337 14H1.16706C0.882769 14 0.652344 13.7696 0.652344 13.4853V5.67892C0.652344 5.53154 0.71548 5.39119 0.825812 5.29357L6.65913 0.129383C6.85387 -0.0432097 7.14672 -0.0430457 7.34146 0.129383ZM9.24899 12.9706H12.319V5.91072L7.00037 1.20219L1.68178 5.91072V12.9706H4.75391V8.93855C4.75391 8.65425 4.9843 8.42383 5.2686 8.42383H8.73427C9.01857 8.42383 9.24897 8.65425 9.24899 8.93855V12.9706ZM8.21942 12.9706V9.45324H5.78331V12.9706H8.21942Z" fill="#7A8793"/>
</g>
<defs>
<clipPath id="clip0">
<rect width="14" height="14" fill="white"/>
</clipPath>
</defs>
</svg>
