<svg width="18" height="18" viewBox="0 0 18 18" fill="none" xmlns="http://www.w3.org/2000/svg">
<g clip-path="url(#clip0)">
<path fill-rule="evenodd" clip-rule="evenodd" d="M17.9921 13.785L17.6171 12.285C17.5968 12.2031 17.5495 12.1304 17.4828 12.0787C17.4161 12.0269 17.334 11.9992 17.2496 12H0.749558C0.665168 11.9992 0.582983 12.0269 0.516293 12.0787C0.449603 12.1304 0.402309 12.2031 0.382058 12.285L0.00705788 13.785C-0.00667232 13.8405 -0.00751843 13.8985 0.00458428 13.9544C0.016687 14.0103 0.0414178 14.0627 0.0768842 14.1075C0.112351 14.1524 0.157613 14.1886 0.209207 14.2133C0.260802 14.238 0.317361 14.2505 0.374558 14.25H17.6246C17.6818 14.2505 17.7383 14.238 17.7899 14.2133C17.8415 14.1886 17.8868 14.1524 17.9222 14.1075C17.9577 14.0627 17.9824 14.0103 17.9945 13.9544C18.0066 13.8985 18.0058 13.8405 17.9921 13.785ZM17.1446 13.5H0.854558L1.04206 12.75H16.9571L17.1446 13.5ZM1.12456 11.25H16.8746C16.9258 11.2501 16.9764 11.2397 17.0235 11.2195C17.0705 11.1992 17.1129 11.1696 17.148 11.1323C17.1831 11.0951 17.2103 11.0511 17.2277 11.0029C17.2452 10.9548 17.2526 10.9036 17.2496 10.8525C17.0921 8.4375 16.3346 6.75 14.9996 6.75C12.7996 6.74803 10.5996 6.74803 8.39956 6.75H7.11706C6.96706 6.75 6.92206 6.69 6.97456 6.5475C7.01387 6.42639 7.05638 6.30635 7.10206 6.1875C7.19956 5.9325 7.30456 5.6775 7.42456 5.4375C7.73206 4.845 8.03956 4.5 8.24956 4.5H16.1246C16.7771 4.5 17.1971 3.975 17.1746 3.36C17.1521 2.745 16.6946 2.25 16.0121 2.25H7.49956C4.61956 2.25 2.03206 5.55 0.757058 10.785C0.743328 10.8405 0.742482 10.8985 0.754585 10.9544C0.766687 11.0103 0.791418 11.0627 0.826885 11.1075C0.862351 11.1524 0.907613 11.1886 0.959208 11.2133C1.0108 11.238 1.06736 11.2505 1.12456 11.25ZM7.49956 3H16.0121C16.2746 3 16.4246 3.1575 16.4321 3.39C16.4396 3.6075 16.3271 3.75 16.1321 3.75H8.24956C7.64956 3.75 7.18456 4.26 6.75706 5.1C6.56224 5.48868 6.39921 5.8925 6.26956 6.3075C6.03706 6.9225 6.44206 7.5 7.11706 7.5H8.39956C10.5996 7.49971 12.7996 7.49971 14.9996 7.5C15.7046 7.5 16.2821 8.685 16.4621 10.5H1.61206C2.84956 5.8425 5.13706 3 7.49956 3ZM11.2496 9C11.2496 8.80109 11.3286 8.61032 11.4692 8.46967C11.6099 8.32902 11.8006 8.25 11.9996 8.25C12.1985 8.25 12.3892 8.32902 12.5299 8.46967C12.6705 8.61032 12.7496 8.80109 12.7496 9C12.7496 9.19891 12.6705 9.38968 12.5299 9.53033C12.3892 9.67098 12.1985 9.75 11.9996 9.75C11.8006 9.75 11.6099 9.67098 11.4692 9.53033C11.3286 9.38968 11.2496 9.19891 11.2496 9ZM13.4996 9C13.4996 8.80109 13.5786 8.61032 13.7192 8.46967C13.8599 8.32902 14.0507 8.25 14.2496 8.25C14.4485 8.25 14.6392 8.32902 14.7799 8.46967C14.9205 8.61032 14.9996 8.80109 14.9996 9C14.9996 9.19891 14.9205 9.38968 14.7799 9.53033C14.6392 9.67098 14.4485 9.75 14.2496 9.75C14.0507 9.75 13.8599 9.67098 13.7192 9.53033C13.5786 9.38968 13.4996 9.19891 13.4996 9Z" fill="#333646"/>
</g>
<defs>
<clipPath id="clip0">
<rect width="18" height="18" fill="white"/>
</clipPath>
</defs>
</svg>
