<svg width="18" height="18" viewBox="0 0 18 18" fill="none" xmlns="http://www.w3.org/2000/svg">
<g clip-path="url(#clip0)">
<path fill-rule="evenodd" clip-rule="evenodd" d="M17.6292 17.2498H17.2542V8.93233C17.4737 8.85591 17.6638 8.71299 17.7982 8.52345C17.9327 8.33392 18.0047 8.10719 18.0042 7.87483C18.0042 7.57646 17.8857 7.29031 17.6747 7.07933C17.4637 6.86835 17.1776 6.74983 16.8792 6.74983H1.13672C0.872891 6.75187 0.618174 6.84658 0.417097 7.0174C0.216019 7.18821 0.0813722 7.42426 0.0366943 7.68429C-0.00798369 7.94431 0.0401494 8.21177 0.172679 8.4399C0.30521 8.66804 0.513705 8.84233 0.761719 8.93233V17.2498H0.386719C0.287263 17.2498 0.19188 17.2893 0.121554 17.3597C0.0512276 17.43 0.0117188 17.5254 0.0117188 17.6248C0.0117188 17.7243 0.0512276 17.8197 0.121554 17.89C0.19188 17.9603 0.287263 17.9998 0.386719 17.9998H17.6367C17.7362 17.9998 17.8316 17.9603 17.9019 17.89C17.9722 17.8197 18.0117 17.7243 18.0117 17.6248C18.0117 17.5254 17.9722 17.43 17.9019 17.3597C17.8316 17.2893 17.7362 17.2498 17.6367 17.2498H17.6292ZM3.00422 17.2498H1.50422V8.99983H3.00422V17.2498ZM5.25422 17.2498H3.75422V8.99983H5.25422V17.2498ZM7.50422 17.2498H6.00422V8.99983H7.50422V17.2498ZM9.75422 17.2498H8.25422V8.99983H9.75422V17.2498ZM12.0042 17.2498H10.5042V8.99983H12.0042V17.2498ZM14.2542 17.2498H12.7542V8.99983H14.2542V17.2498ZM16.5042 17.2498H15.0042V8.99983H16.5042V17.2498ZM16.5042 8.24983H1.12922C1.02976 8.24983 0.93438 8.21032 0.864054 8.13999C0.793728 8.06966 0.754219 7.97428 0.754219 7.87483C0.754219 7.66483 0.919219 7.49983 1.12922 7.49983H16.8717C16.9712 7.49983 17.0666 7.53933 17.1369 7.60966C17.2072 7.67999 17.2467 7.77537 17.2467 7.87483C17.2467 8.08483 17.0817 8.24983 16.8717 8.24983H16.5042ZM8.34422 2.78233C7.65422 1.83733 7.77422 0.997326 8.38922 0.397326C8.53424 0.252018 8.7013 0.130522 8.88422 0.0373263C8.92898 0.0118618 8.97852 -0.00410857 9.02973 -0.00958929C9.08094 -0.01507 9.13272 -0.00994358 9.18187 0.00547044C9.23101 0.0208845 9.27645 0.0462556 9.31535 0.0800024C9.35426 0.113749 9.38579 0.155148 9.408 0.201618C9.4302 0.248089 9.44259 0.298635 9.4444 0.350105C9.44621 0.401575 9.4374 0.452866 9.41851 0.500781C9.39963 0.548696 9.37108 0.592208 9.33464 0.628604C9.2982 0.664999 9.25466 0.693499 9.20672 0.712326C9.09643 0.769456 8.99531 0.842767 8.90672 0.929826C8.54672 1.28233 8.48672 1.70983 8.91422 2.30233C10.4817 4.00483 10.4817 5.49733 9.16922 5.96983C9.07652 6.00042 8.97554 5.99366 8.88774 5.95098C8.79995 5.9083 8.73226 5.83307 8.69905 5.74127C8.66585 5.64947 8.66975 5.54834 8.70993 5.45937C8.75011 5.37041 8.8234 5.30061 8.91422 5.26483C9.61922 5.00983 9.61922 4.16983 8.33672 2.77483L8.34422 2.78233ZM11.3442 2.78233C10.6542 1.83733 10.7742 0.997326 11.3892 0.397326C11.5342 0.252018 11.7013 0.130522 11.8842 0.0373263C11.929 0.0118618 11.9785 -0.00410857 12.0297 -0.00958929C12.0809 -0.01507 12.1327 -0.00994358 12.1819 0.00547044C12.231 0.0208845 12.2764 0.0462556 12.3154 0.0800024C12.3543 0.113749 12.3858 0.155148 12.408 0.201618C12.4302 0.248089 12.4426 0.298635 12.4444 0.350105C12.4462 0.401575 12.4374 0.452866 12.4185 0.500781C12.3996 0.548696 12.3711 0.592208 12.3346 0.628604C12.2982 0.664999 12.2547 0.693499 12.2067 0.712326C12.0964 0.769456 11.9953 0.842767 11.9067 0.929826C11.5467 1.28233 11.4867 1.70983 11.9142 2.30233C13.4817 4.00483 13.4817 5.49733 12.1692 5.96983C12.0765 6.00042 11.9755 5.99366 11.8877 5.95098C11.7999 5.9083 11.7323 5.83307 11.6991 5.74127C11.6658 5.64947 11.6698 5.54834 11.7099 5.45937C11.7501 5.37041 11.8234 5.30061 11.9142 5.26483C12.6192 5.00983 12.6192 4.16983 11.3367 2.77483L11.3442 2.78233ZM5.34422 2.78233C4.65422 1.83733 4.77422 0.997326 5.38922 0.397326C5.53424 0.252018 5.7013 0.130522 5.88422 0.0373263C5.92899 0.0118618 5.97852 -0.00410857 6.02973 -0.00958929C6.08094 -0.01507 6.13272 -0.00994358 6.18187 0.00547044C6.23101 0.0208845 6.27645 0.0462556 6.31535 0.0800024C6.35426 0.113749 6.38579 0.155148 6.408 0.201618C6.4302 0.248089 6.44259 0.298635 6.4444 0.350105C6.44621 0.401575 6.4374 0.452866 6.41851 0.500781C6.39963 0.548696 6.37108 0.592208 6.33464 0.628604C6.2982 0.664999 6.25466 0.693499 6.20672 0.712326C6.09643 0.769456 5.99531 0.842767 5.90672 0.929826C5.54672 1.28233 5.48672 1.70983 5.91422 2.30233C7.48172 4.00483 7.48172 5.49733 6.16922 5.96983C6.07652 6.00042 5.97554 5.99366 5.88774 5.95098C5.79995 5.9083 5.73226 5.83307 5.69905 5.74127C5.66585 5.64947 5.66975 5.54834 5.70993 5.45937C5.75011 5.37041 5.8234 5.30061 5.91422 5.26483C6.61922 5.00983 6.61922 4.16983 5.33672 2.77483L5.34422 2.78233Z" fill="#333646"/>
</g>
<defs>
<clipPath id="clip0">
<rect width="18" height="18" fill="white"/>
</clipPath>
</defs>
</svg>
