<svg width="18" height="18" viewBox="0 0 18 18" fill="none" xmlns="http://www.w3.org/2000/svg">
<path fill-rule="evenodd" clip-rule="evenodd" d="M1.12344 3.37539L1.16608 3.3434L1.20377 3.30572C1.30356 3.20593 1.41817 3.15039 1.57344 3.15039C1.71379 3.15039 1.85002 3.19496 2.0642 3.35014C2.47167 3.72848 2.97307 3.82539 3.37344 3.82539H3.45496L3.53458 3.80787C7.17739 3.00645 10.8934 3.00578 14.6153 3.80853L14.6208 3.80972L14.6263 3.81083C15.3995 3.96546 15.882 3.47893 16.0384 3.32111L16.0385 3.32107L16.0537 3.30572C16.1536 3.20593 16.2682 3.15039 16.4234 3.15039C16.5268 3.15039 16.7104 3.22297 16.7931 3.30572L16.8308 3.3434L16.8734 3.37539C16.8956 3.39206 16.9069 3.40478 16.9125 3.41222C16.9182 3.41964 16.9228 3.42759 16.927 3.43831C16.9365 3.46194 16.9484 3.50952 16.9484 3.60039C16.9484 3.70375 16.8758 3.8873 16.7931 3.97006C16.47 4.2932 16.4348 4.67678 16.4538 4.92353C16.462 5.03069 16.4815 5.12774 16.4915 5.17767L16.4931 5.18537L16.4984 5.21294V5.27885L16.5265 5.37845C17.1641 7.64567 17.1641 10.1301 16.5265 12.3974L16.5235 12.4079L16.5208 12.4185C16.4423 12.7324 16.3307 13.3433 16.7931 13.8057C17.0252 14.0378 17.0252 14.3879 16.7931 14.6201C16.6933 14.7198 16.5787 14.7754 16.4234 14.7754C16.2231 14.7754 16.0468 14.6882 15.9787 14.6201C15.8626 14.5038 15.5288 14.1754 14.9234 14.1754H14.6935L14.6153 14.1923C10.8945 14.9948 7.10235 14.9948 3.38157 14.1923L3.37606 14.1911L3.37053 14.1899C3.06122 14.1281 2.76494 14.1463 2.49121 14.2707C2.26038 14.3756 2.10055 14.5369 2.03044 14.6077L2.01811 14.6201C1.786 14.8522 1.43587 14.8522 1.20377 14.6201C1.10398 14.5202 1.04844 14.4056 1.04844 14.2504C1.04844 14.147 1.12102 13.9634 1.20377 13.8807C1.38487 13.6996 1.51282 13.469 1.54159 13.1813C1.56499 12.9473 1.51503 12.7244 1.47604 12.5685L1.47411 12.5607L1.47201 12.5531C0.831688 10.2052 0.833331 7.79364 1.47043 5.52845L1.47339 5.51791L1.47604 5.50729C1.57452 5.1134 1.61592 4.63702 1.29748 4.15937L1.25628 4.09757L1.20377 4.04506C1.10398 3.94526 1.04844 3.83064 1.04844 3.67539C1.04844 3.58235 1.06076 3.50332 1.08068 3.44688C1.09872 3.39578 1.11595 3.381 1.12344 3.37539ZM3.37344 3.07539C3.07344 3.07539 2.77344 3.00039 2.54844 2.77539C2.24844 2.55039 1.94844 2.40039 1.57344 2.40039C1.19844 2.40039 0.898438 2.55039 0.673438 2.77539C0.373438 3.00039 0.298438 3.37539 0.298438 3.67539C0.298438 4.05039 0.448438 4.35039 0.673438 4.57539C0.823438 4.80039 0.823438 5.02539 0.748438 5.32539C0.0734374 7.72539 0.0734374 10.2754 0.748438 12.7504C0.823438 13.0504 0.823438 13.2004 0.673438 13.3504C0.448438 13.5754 0.298438 13.9504 0.298438 14.2504C0.298438 14.6254 0.448438 14.9254 0.673438 15.1504C1.19844 15.6754 2.02344 15.6754 2.54844 15.1504C2.69844 15.0004 2.84844 14.8504 3.22344 14.9254C7.04844 15.7504 10.9484 15.7504 14.7734 14.9254H14.9234C15.2234 14.9254 15.3734 15.0754 15.4484 15.1504C15.6734 15.3754 16.0484 15.5254 16.4234 15.5254C16.7984 15.5254 17.0984 15.3754 17.3234 15.1504C17.8484 14.6254 17.8484 13.8004 17.3234 13.2754C17.1734 13.1254 17.1734 12.9004 17.2484 12.6004C17.9234 10.2004 17.9234 7.57539 17.2484 5.17539C17.2484 5.1381 17.2391 5.09155 17.2287 5.03918L17.2285 5.03828V5.03822C17.1969 4.88003 17.1547 4.66912 17.3234 4.50039C17.5484 4.27538 17.6984 3.90039 17.6984 3.60039C17.6984 3.30039 17.6234 3.00039 17.3234 2.77539C17.0984 2.55039 16.7234 2.40039 16.4234 2.40039C16.0484 2.40039 15.7484 2.55039 15.5234 2.77539C15.3734 2.92539 15.1484 3.15039 14.7734 3.07539C10.9484 2.25039 7.12344 2.25039 3.37344 3.07539ZM11.5142 7.39044C11.6606 7.24397 11.6606 7.00652 11.5142 6.86008C11.3677 6.71363 11.1303 6.71363 10.9839 6.86008L8.2212 9.62274L6.6083 8.33244C6.44657 8.20307 6.21059 8.22924 6.08121 8.39102C5.95183 8.55272 5.97805 8.78867 6.13978 8.91804L8.0148 10.418C8.16397 10.5374 8.37907 10.5255 8.51422 10.3904L11.5142 7.39044Z" fill="#333646"/>
</svg>
