<svg width="18" height="18" viewBox="0 0 18 18" fill="none" xmlns="http://www.w3.org/2000/svg">
<path fill-rule="evenodd" clip-rule="evenodd" d="M1.60183 14.6646V14.7921C1.60183 14.9878 1.76069 15.1389 1.97362 15.1389C2.17163 15.1389 2.32644 14.9755 2.34605 14.7794L2.35752 14.6646H15.6572V14.7921C15.6572 14.9878 15.8161 15.1389 16.0291 15.1389C16.2271 15.1389 16.3819 14.9755 16.4014 14.7794L16.4129 14.6646H16.5533C17.2818 14.6646 17.8738 14.0725 17.8738 13.3441V4.1838C17.85 3.45238 17.2555 2.86133 16.5284 2.86133H1.44937C0.720934 2.86133 0.128906 3.45336 0.128906 4.1818V13.3441C0.128906 14.0725 0.720932 14.6646 1.44937 14.6646H1.60183ZM17.1053 13.2166V13.3441C17.1053 13.6642 16.8485 13.921 16.5284 13.921H1.44937C1.1293 13.921 0.87249 13.6642 0.87249 13.3441V4.1818C0.87249 3.86172 1.1293 3.60491 1.44937 3.60491H16.5284C16.8485 3.60491 17.1053 3.86172 17.1053 4.1818V13.2166ZM2.77093 12.0232H11.2395V5.50199H2.77093V7.37973H4.89568C5.09987 7.37973 5.26746 7.54731 5.26746 7.75153C5.26746 7.95576 5.09987 8.12331 4.89568 8.12331H2.77093V9.37693H3.64738C3.85159 9.37693 4.01917 9.54456 4.01917 9.74871C4.01917 9.95293 3.85159 10.1206 3.64738 10.1206H2.77093V12.0232ZM2.39914 4.7583H11.5864C11.7869 4.7583 11.9611 4.92329 11.9831 5.13627V12.395C11.9831 12.5992 11.8155 12.7668 11.6113 12.7668H2.39914C2.19493 12.7668 2.02734 12.5992 2.02734 12.395V5.13009C2.02734 4.92589 2.19493 4.7583 2.39914 4.7583ZM15.8509 6.07877C15.8509 6.80721 15.2589 7.39924 14.5304 7.39924C13.8019 7.39924 13.21 6.80725 13.21 6.07878C13.21 5.35032 13.8019 4.7583 14.5304 4.7583C15.2589 4.7583 15.8509 5.35033 15.8509 6.07877ZM13.9535 6.05382C13.9535 6.3739 14.2103 6.63071 14.5304 6.63071C14.8505 6.63071 15.1073 6.3739 15.1073 6.05382C15.1073 5.73374 14.8505 5.47693 14.5304 5.47693C14.2103 5.47693 13.9535 5.73374 13.9535 6.05382ZM15.1015 9.12396C15.1015 9.32818 14.934 9.49581 14.7298 9.49581H14.3053C14.1012 9.49581 13.9336 9.32818 13.9336 9.12396C13.9336 8.91981 14.1012 8.75218 14.3053 8.75218H14.7298C14.9548 8.75218 15.1016 8.91561 15.1015 9.12396ZM14.7298 10.6001H14.3053C14.1012 10.6001 13.9336 10.7677 13.9336 10.9719C13.9336 11.1761 14.1012 11.3437 14.3053 11.3437H14.7298C14.934 11.3437 15.1015 11.1761 15.1015 10.9719C15.1015 10.7635 14.9548 10.6001 14.7298 10.6001Z" fill="#333646"/>
</svg>
