<svg width="14" height="14" viewBox="0 0 14 14" fill="none" xmlns="http://www.w3.org/2000/svg">
<path d="M11.9492 7.33224H10.5788C10.3923 7.33224 10.2117 7.35773 10.0399 7.40459C9.70085 6.73817 9.00873 6.28027 8.21119 6.28027H5.78881C4.99127 6.28027 4.29915 6.73817 3.96014 7.40459C3.78829 7.35773 3.60771 7.33224 3.4212 7.33224H2.05078C0.91998 7.33224 0 8.25222 0 9.38302V11.5738C0 12.2522 0.551988 12.8042 1.23047 12.8042H12.7695C13.448 12.8042 14 12.2522 14 11.5738V9.38302C14 8.25222 13.08 7.33224 11.9492 7.33224ZM3.73803 8.33111V11.9839H1.23047C1.00431 11.9839 0.820312 11.7999 0.820312 11.5738V9.38305C0.820312 8.70457 1.3723 8.15258 2.05078 8.15258H3.4212C3.53254 8.15258 3.64036 8.1677 3.743 8.19557C3.74005 8.24044 3.73803 8.28556 3.73803 8.33111ZM9.44166 11.9839H4.55834V8.33108C4.55834 7.6526 5.11033 7.10061 5.78881 7.10061H8.21119C8.88967 7.10061 9.44166 7.6526 9.44166 8.33108V11.9839ZM13.1797 11.5738C13.1797 11.7999 12.9957 11.9839 12.7695 11.9839H10.262V8.33108C10.262 8.2855 10.2599 8.24038 10.257 8.19554C10.3596 8.1677 10.4675 8.15256 10.5788 8.15256H11.9492C12.6277 8.15256 13.1797 8.70454 13.1797 9.38302V11.5738Z" fill="#7A8793"/>
<path d="M2.73641 3.45898C1.73156 3.45898 0.914063 4.27648 0.914063 5.28134C0.914035 6.28619 1.73156 7.10369 2.73641 7.10369C3.74124 7.10369 4.55877 6.28619 4.55877 5.28134C4.55877 4.27648 3.74127 3.45898 2.73641 3.45898ZM2.73639 6.28338C2.18385 6.28338 1.73435 5.83387 1.73435 5.28134C1.73435 4.7288 2.18385 4.2793 2.73639 4.2793C3.28892 4.2793 3.73843 4.7288 3.73843 5.28134C3.73843 5.83387 3.28892 6.28338 2.73639 6.28338Z" fill="#7A8793"/>
<path d="M7.00104 1.1958C5.65857 1.1958 4.56641 2.28796 4.56641 3.63043C4.56641 4.9729 5.65857 6.06507 7.00104 6.06507C8.34351 6.06507 9.43567 4.9729 9.43567 3.63043C9.43567 2.28799 8.34351 1.1958 7.00104 1.1958ZM7.00104 5.24475C6.11089 5.24475 5.38672 4.52058 5.38672 3.63043C5.38672 2.74031 6.11089 2.01611 7.00104 2.01611C7.89119 2.01611 8.61536 2.74028 8.61536 3.63043C8.61536 4.52058 7.89119 5.24475 7.00104 5.24475Z" fill="#7A8793"/>
<path d="M11.2638 3.45898C10.2589 3.45898 9.44141 4.27648 9.44141 5.28134C9.44143 6.28619 10.2589 7.10369 11.2638 7.10369C12.2686 7.10369 13.0861 6.28619 13.0861 5.28134C13.0861 4.27648 12.2686 3.45898 11.2638 3.45898ZM11.2638 6.28338C10.7112 6.28338 10.2617 5.83387 10.2617 5.28134C10.2617 4.7288 10.7112 4.2793 11.2638 4.2793C11.8163 4.2793 12.2658 4.7288 12.2658 5.28134C12.2658 5.83387 11.8163 6.28338 11.2638 6.28338Z" fill="#7A8793"/>
</svg>
