<svg width="18" height="18" viewBox="0 0 18 18" fill="none" xmlns="http://www.w3.org/2000/svg">
<g clip-path="url(#clip0)">
<path fill-rule="evenodd" clip-rule="evenodd" d="M4.28139 16.2897C4.18881 16.3829 4.1155 16.4935 4.06565 16.6151C4.01579 16.7366 3.99037 16.8668 3.99084 16.9982C3.9913 17.1296 4.01764 17.2596 4.06835 17.3809C4.11907 17.5021 4.19316 17.6121 4.2864 17.7047C4.37963 17.7973 4.49019 17.8706 4.61176 17.9204C4.73334 17.9703 4.86353 17.9957 4.99493 17.9953C5.12633 17.9948 5.25634 17.9685 5.37756 17.9177C5.49877 17.867 5.60881 17.7929 5.7014 17.6997L13.7014 9.6997C13.8876 9.51234 13.9922 9.25889 13.9922 8.9947C13.9922 8.73052 13.8876 8.47707 13.7014 8.2897L5.7014 0.289703C5.60881 0.196464 5.49877 0.122374 5.37756 0.0716627C5.25634 0.0209511 5.12633 -0.00538883 4.99493 -0.00585313C4.86353 -0.00631742 4.73334 0.019103 4.61176 0.0689567C4.49019 0.11881 4.37963 0.192121 4.2864 0.284703C4.19316 0.377285 4.11907 0.487325 4.06835 0.60854C4.01764 0.729756 3.9913 0.859773 3.99084 0.991167C3.99037 1.12256 4.01579 1.25276 4.06565 1.37433C4.1155 1.4959 4.18881 1.60646 4.28139 1.6997L11.5714 8.9897L4.28139 16.2897Z" fill="#6BB63F"/>
</g>
<defs>
<clipPath id="clip0">
<rect width="18" height="18" fill="white"/>
</clipPath>
</defs>
</svg>
