<svg width="18" height="18" viewBox="0 0 18 18" fill="none" xmlns="http://www.w3.org/2000/svg">
<path fill-rule="evenodd" clip-rule="evenodd" d="M1.20039 3.30039L1.12539 3.37539C1.05039 3.52539 1.05039 3.60039 1.05039 3.67539C1.05039 3.82539 1.12539 3.97539 1.20039 4.05039L1.27539 4.12539L1.35039 4.20038C1.65039 4.65039 1.57539 5.17539 1.50039 5.55039C0.825392 7.87539 0.825392 10.2754 1.50039 12.6004C1.57539 12.7504 1.57539 12.9754 1.57539 13.2004C1.50039 13.5004 1.35039 13.7254 1.27539 13.7254C1.20039 13.8004 1.12539 14.0254 1.12539 14.1004C1.12539 14.2504 1.20039 14.4004 1.27539 14.4754C1.50039 14.7004 1.87539 14.7004 2.10039 14.4754C2.13203 14.4754 2.17703 14.4353 2.23539 14.3834C2.31533 14.3122 2.42033 14.2187 2.55039 14.1754C2.85039 14.0254 3.15039 14.0254 3.45039 14.1004C7.20039 14.9254 10.9504 14.9254 14.7004 14.1004H14.7754H15.0004C15.6004 14.1004 15.9004 14.4004 16.0504 14.5504C16.1254 14.6254 16.2754 14.7004 16.5004 14.7004C16.6504 14.7004 16.8004 14.6254 16.8754 14.5504C17.1004 14.3254 17.1004 13.9504 16.8754 13.7254C16.3504 13.2754 16.5004 12.6754 16.5754 12.3754C17.2504 10.0504 17.2504 7.57539 16.5754 5.32538C16.5754 5.2469 16.5565 5.17245 16.5377 5.09834C16.519 5.0249 16.5004 4.95179 16.5004 4.87539C16.5004 4.57539 16.5754 4.20038 16.8754 3.90039C16.8755 3.86372 16.8821 3.82018 16.8893 3.77263C16.9117 3.62545 16.9398 3.43981 16.8004 3.30039C16.7254 3.22539 16.5004 3.15039 16.4254 3.15039C16.2754 3.15039 16.1254 3.22539 16.0504 3.30039C15.9004 3.52539 15.3754 3.97539 14.6254 3.82538C10.8754 3.00039 7.20039 3.00039 3.52539 3.82538H3.45039H3.37539C3.00039 3.82538 2.47539 3.75039 2.10039 3.37539C1.87539 3.22539 1.72539 3.15039 1.57539 3.15039C1.42539 3.15039 1.27539 3.22539 1.20039 3.30039ZM2.55039 2.77539C2.77539 3.00039 3.07539 3.07538 3.37539 3.07538C7.12539 2.25039 10.9504 2.25039 14.7754 3.07538C15.1504 3.15039 15.3754 2.92539 15.5254 2.77539C15.7504 2.55039 16.0504 2.40039 16.4254 2.40039C16.7254 2.40039 17.1004 2.55039 17.3254 2.77539C17.6254 3.00039 17.7004 3.30039 17.7004 3.60039C17.7004 3.90039 17.5504 4.27539 17.3254 4.50039C17.2108 4.61498 17.2275 4.77334 17.2418 4.90859C17.2462 4.95039 17.2504 4.98998 17.2504 5.02539V5.17539C17.9254 7.57539 17.9254 10.2004 17.2504 12.6004C17.1754 12.9004 17.1754 13.1254 17.3254 13.2754C17.8504 13.8004 17.8504 14.6254 17.3254 15.1504C17.1004 15.3754 16.8004 15.5254 16.4254 15.5254C16.0504 15.5254 15.6754 15.3754 15.4504 15.1504C15.3754 15.0754 15.2254 14.9254 14.9254 14.9254H14.7754C10.9504 15.7504 7.05039 15.7504 3.22539 14.9254C2.85039 14.8504 2.70039 15.0004 2.55039 15.1504C2.02539 15.6754 1.20039 15.6754 0.675391 15.1504C0.450391 14.9254 0.300391 14.6254 0.300391 14.2504C0.300391 13.9504 0.450391 13.5754 0.675391 13.3504C0.825392 13.2004 0.825392 13.0504 0.750391 12.7504C0.0753906 10.2754 0.0753906 7.72539 0.750391 5.32538C0.825392 5.02539 0.825392 4.80039 0.675391 4.57538C0.450391 4.35039 0.300391 4.05039 0.300391 3.67539C0.300391 3.37539 0.375391 3.00039 0.675391 2.77539C0.900392 2.55039 1.20039 2.40039 1.57539 2.40039C1.95039 2.40039 2.25039 2.55039 2.55039 2.77539ZM6.54727 6.21218C6.56555 6.21878 6.58298 6.22507 6.60195 6.22507C6.67695 6.22507 6.82695 6.30007 6.90195 6.37507L9.00195 8.47509L11.102 6.37507C11.252 6.22507 11.477 6.22507 11.627 6.37507C11.777 6.52507 11.777 6.75007 11.627 6.90007L9.52695 9.00009L11.627 11.1001C11.777 11.2501 11.777 11.4751 11.627 11.6251C11.477 11.7751 11.252 11.7751 11.102 11.6251L9.00195 9.52509L6.90195 11.6251C6.90195 11.6251 6.82695 11.7001 6.75195 11.7001C6.60195 11.7751 6.45195 11.7001 6.37695 11.6251C6.22695 11.4751 6.22695 11.2501 6.37695 11.1001L8.47695 9.00009L6.37695 6.90007C6.22695 6.75007 6.10641 6.49507 6.30195 6.30007C6.43194 6.17053 6.49328 6.19268 6.54727 6.21218Z" fill="#333646"/>
</svg>
