<svg width="18" height="18" viewBox="0 0 18 18" fill="none" xmlns="http://www.w3.org/2000/svg">
<path fill-rule="evenodd" clip-rule="evenodd" d="M14.3996 0.750315L3.14961 16.8003L2.84961 17.2503C2.69961 17.4003 2.47461 17.4753 2.32461 17.3253C2.17461 17.1753 2.09961 16.9503 2.24961 16.8003L3.52461 15.0003H2.77461C1.42461 15.0003 0.299609 13.8753 0.224609 12.6003V11.9253C0.224609 11.1003 0.449609 10.2753 0.974609 9.6753L5.47461 3.75032C6.14961 3.00032 6.97461 2.62532 8.02462 2.62532H12.2246L13.7996 0.300317C13.9496 0.150317 14.1746 0.0753174 14.3246 0.225317C14.4746 0.375317 14.4746 0.600317 14.3996 0.750315ZM2.77461 12.8253H5.02461L5.54961 12.0753H2.77461C2.54961 12.0753 2.39961 12.2253 2.39961 12.4503C2.39961 12.6753 2.54961 12.8253 2.77461 12.8253ZM6.07461 4.20032L1.57461 10.0503C1.49961 10.1253 1.42461 10.2003 1.42461 10.2753C1.79961 10.0503 2.24961 9.9003 2.77461 9.9003H7.12461L11.6996 3.37532H7.94962C7.19961 3.37532 6.52461 3.67532 6.07461 4.20032ZM0.974609 12.4503C0.974609 13.4253 1.79961 14.2503 2.77461 14.2503L4.04961 14.25L4.49902 13.6503H2.77461C2.17461 13.6503 1.64961 13.1253 1.64961 12.5253C1.64961 11.9253 2.17461 11.4003 2.77461 11.4003H6.07461L6.59961 10.6503H2.77461C1.79961 10.6503 0.974609 11.4753 0.974609 12.4503ZM17.4002 3.975C16.9502 3.15 16.1252 2.625 15.1502 2.625H13.9502L13.4252 3.375H15.1502C15.8252 3.375 16.4252 3.75 16.7252 4.35C17.0252 4.95 17.0252 5.625 16.6502 6.15L11.8502 13.2C11.4002 13.875 10.5752 14.25 9.75022 14.25H5.85019L5.32519 15H10.0502H10.2002C11.1002 14.85 11.9252 14.4 12.4502 13.65L17.2502 6.525C17.7752 5.775 17.8502 4.8 17.4002 3.975ZM10.424 11.7753C10.424 11.1753 9.89902 10.6503 9.29902 10.6503L8.39902 10.65L8.84902 10.0503H9.29902C10.274 10.0503 11.099 10.8753 11.099 11.8503C11.099 12.8253 10.274 13.6503 9.29902 13.6503H6.37402L6.89902 12.9003H9.29902C9.89902 12.9003 10.424 12.3753 10.424 11.7753ZM9.29962 11.3254C9.52462 11.3254 9.67462 11.4755 9.67462 11.7004C9.67462 11.9255 9.52462 12.0754 9.29962 12.0754H7.34961L7.87462 11.3254H9.29962Z" fill="#333646"/>
</svg>
