<svg width="18" height="18" viewBox="0 0 18 18" fill="none" xmlns="http://www.w3.org/2000/svg">
<path fill-rule="evenodd" clip-rule="evenodd" d="M9 0C4.05 0 0 4.05 0 9C0 13.95 4.05 18 9 18C13.95 18 18 13.95 18 9C18 4.05 13.95 0 9 0ZM9 17.25C4.425 17.25 0.75 13.575 0.75 9C0.75 6.975 1.5 5.1 2.7 3.6L7.275 8.025L2.85 9.75C2.475 9.9 2.25 10.35 2.4 10.725L3 12.15C3.15 12.525 3.6 12.75 3.975 12.6L9.675 10.425L14.55 15.15C13.125 16.425 11.175 17.25 9 17.25ZM7.875 8.625L9.075 9.75L5.1 11.25L4.5 9.9L7.875 8.625ZM4.35 11.55L3.675 11.85L3.15 10.425L3.825 10.125L4.35 11.55ZM15.075 14.55L3.225 3.075C4.725 1.65 6.75 0.75 9 0.75C13.575 0.75 17.25 4.425 17.25 9C17.25 11.175 16.425 13.125 15.075 14.55ZM15.6006 7.27526L15.0006 5.85026C14.8506 5.47526 14.4006 5.25025 14.0256 5.40025L11.2506 6.52526L8.8506 7.42525L9.4506 8.02522L10.8756 7.50023L11.4006 8.92523L10.6506 9.22522L11.2506 9.75023L15.1506 8.25023C15.5256 8.10023 15.7506 7.65023 15.6006 7.27526ZM12.0756 8.62523L11.5506 7.20025L14.3256 6.15026L14.8506 7.57522L12.0756 8.62523ZM3.75 7.5C3.75 7.91423 3.41421 8.25 3 8.25C2.58579 8.25 2.25 7.91423 2.25 7.5C2.25 7.08578 2.58579 6.75 3 6.75C3.41421 6.75 3.75 7.08578 3.75 7.5ZM1.875 9.75C2.0821 9.75 2.25 9.58208 2.25 9.375C2.25 9.16792 2.0821 9 1.875 9C1.66789 9 1.5 9.16792 1.5 9.375C1.5 9.58208 1.66789 9.75 1.875 9.75ZM3 5.625C3 5.83211 2.8321 6 2.625 6C2.4179 6 2.25 5.83211 2.25 5.625C2.25 5.41789 2.4179 5.25 2.625 5.25C2.8321 5.25 3 5.41789 3 5.625Z" fill="#333646"/>
</svg>
