<svg width="18" height="18" viewBox="0 0 18 18" fill="none" xmlns="http://www.w3.org/2000/svg">
<path fill-rule="evenodd" clip-rule="evenodd" d="M7.875 0C7.77554 0 7.68016 0.0395088 7.60983 0.109835C7.53951 0.180161 7.5 0.275544 7.5 0.375V5.625C7.50002 5.72317 7.46154 5.81743 7.39283 5.88755C7.32412 5.95766 7.23065 5.99804 7.1325 6H6V0.375C6 0.275544 5.96049 0.180161 5.89016 0.109835C5.81984 0.0395088 5.72446 0 5.625 0C5.52554 0 5.43016 0.0395088 5.35984 0.109835C5.28951 0.180161 5.25 0.275544 5.25 0.375V6H4.1175C4.01935 5.99804 3.92588 5.95766 3.85717 5.88755C3.78846 5.81743 3.74998 5.72317 3.75 5.625V0.375C3.75 0.275544 3.71049 0.180161 3.64016 0.109835C3.56984 0.0395088 3.47446 0 3.375 0C3.27554 0 3.18016 0.0395088 3.10984 0.109835C3.03951 0.180161 3 0.275544 3 0.375V5.625C3 6.2475 3.5025 6.75 4.1175 6.75H5.25V10.5C5.25 10.5225 5.2575 10.545 5.265 10.5675C5.04276 10.6414 4.84934 10.7832 4.71207 10.973C4.5748 11.1627 4.50062 11.3908 4.5 11.625V16.875C4.5 17.4975 5.0025 18 5.625 18C6.2475 18 6.75 17.4975 6.75 16.875V11.625C6.75 11.13 6.4275 10.7175 5.985 10.5675C5.9925 10.545 6 10.5225 6 10.5V6.75H7.1325C7.42957 6.74802 7.71379 6.62862 7.92315 6.41786C8.13251 6.20709 8.25001 5.92207 8.25 5.625V0.375C8.25 0.275544 8.21049 0.180161 8.14017 0.109835C8.06984 0.0395088 7.97446 0 7.875 0V0ZM6 11.625V16.875C6 16.9745 5.96049 17.0698 5.89016 17.1402C5.81984 17.2105 5.72446 17.25 5.625 17.25C5.52554 17.25 5.43016 17.2105 5.35984 17.1402C5.28951 17.0698 5.25 16.9745 5.25 16.875V11.625C5.25 11.415 5.415 11.25 5.625 11.25C5.835 11.25 6 11.415 6 11.625ZM14.625 0H13.125C12.075 0 11.25 0.8025 11.25 1.875V7.125C11.25 8.1975 12.075 9 13.125 9H14.25V10.5675C14.1298 10.5237 14.0029 10.5009 13.875 10.5C13.2525 10.5 12.75 11.0025 12.75 11.625V16.875C12.75 17.4975 13.2525 18 13.875 18C14.4975 18 15 17.4975 15 16.875V0H14.625ZM13.125 8.25C12.48 8.25 12 7.7775 12 7.125V1.875C12 1.2225 12.4875 0.75 13.125 0.75H14.25V8.25H13.125ZM14.25 16.875C14.25 16.9745 14.2105 17.0698 14.1402 17.1402C14.0698 17.2105 13.9745 17.25 13.875 17.25C13.7755 17.25 13.6802 17.2105 13.6098 17.1402C13.5395 17.0698 13.5 16.9745 13.5 16.875V11.625C13.5 11.415 13.665 11.25 13.875 11.25C14.085 11.25 14.25 11.415 14.25 11.625V16.875Z" fill="#333646"/>
</svg>
