<svg width="18" height="18" viewBox="0 0 18 18" fill="none" xmlns="http://www.w3.org/2000/svg">
<path fill-rule="evenodd" clip-rule="evenodd" d="M11.6584 0.0644531C9.19567 0.0644531 7.18682 2.02423 7.09948 4.46615L7.09744 4.52324L7.0405 4.52792C4.14325 4.76615 1.87323 7.12012 1.78558 10.0807C1.78384 10.1474 1.78498 10.2598 1.83844 10.3547C1.88811 10.4428 1.99033 10.5283 2.22083 10.5283H12.8274C13.054 10.5283 13.1566 10.4431 13.2073 10.3544C13.2617 10.2591 13.2643 10.1463 13.2626 10.0806C13.175 7.12346 10.9156 4.77669 8.0253 4.53146L7.96365 4.52623L7.9665 4.46445C8.05665 2.5032 9.6753 0.938438 11.6548 0.938438C13.6954 0.938438 15.3538 2.59682 15.3538 4.63745V17.5007C15.3538 17.7415 15.5482 17.9359 15.789 17.9359C16.0298 17.9359 16.2242 17.7415 16.2242 17.5007V4.6339C16.2242 2.11512 14.177 0.0644531 11.6584 0.0644531ZM2.69914 9.585C3.02224 7.18684 5.05084 5.37733 7.52415 5.37733C9.99742 5.37733 12.026 7.18684 12.3491 9.585L12.3589 9.65783H2.68932L2.69914 9.585ZM6.22819 16.1726C5.98737 16.1726 5.79297 16.367 5.79297 16.6079V17.4971C5.79297 17.7379 5.98737 17.9323 6.22819 17.9323C6.46901 17.9323 6.66341 17.7379 6.66341 17.4971V16.6079C6.66341 16.367 6.46901 16.1726 6.22819 16.1726ZM8.38575 16.6079C8.38575 16.367 8.58015 16.1726 8.82097 16.1726C9.0618 16.1726 9.2562 16.367 9.2562 16.6079V17.4971C9.2562 17.7379 9.0618 17.9323 8.82097 17.9323C8.58015 17.9323 8.38575 17.7379 8.38575 17.4971V16.6079ZM4.93912 13.6304C4.69831 13.6304 4.50391 13.8248 4.50391 14.0656V14.9513C4.50391 15.1921 4.69831 15.3865 4.93912 15.3865C5.17995 15.3865 5.37435 15.1921 5.37435 14.9513V14.0656C5.37435 13.8248 5.17995 13.6304 4.93912 13.6304ZM7.08789 14.0656C7.08789 13.8248 7.28229 13.6304 7.5231 13.6304C7.76392 13.6304 7.95832 13.8248 7.95832 14.0656V14.9513C7.95832 15.1921 7.76392 15.3865 7.5231 15.3865C7.28229 15.3865 7.08789 15.1921 7.08789 14.9513V14.0656ZM10.11 13.6304C9.86917 13.6304 9.67477 13.8248 9.67477 14.0656V14.9513C9.67477 15.1921 9.86917 15.3865 10.11 15.3865C10.3508 15.3865 10.5452 15.1921 10.5452 14.9513V14.0656C10.5452 13.8251 10.3476 13.6304 10.11 13.6304ZM3.21191 11.5175C3.21191 11.2767 3.40631 11.0823 3.64714 11.0823C3.88872 11.0823 4.08543 11.2772 4.08236 11.5167V12.4067C4.08236 12.6475 3.88795 12.842 3.64714 12.842C3.40631 12.842 3.21191 12.6475 3.21191 12.4067V11.5175ZM6.22819 11.0823C5.98737 11.0823 5.79297 11.2767 5.79297 11.5175V12.4067C5.79297 12.6475 5.98737 12.842 6.22819 12.842C6.46901 12.842 6.66341 12.6475 6.66341 12.4067V11.5175C6.66341 11.2767 6.46901 11.0823 6.22819 11.0823ZM8.38575 11.5175C8.38575 11.2767 8.58015 11.0823 8.82097 11.0823C9.0618 11.0823 9.2562 11.2767 9.2562 11.5175V12.4067C9.2562 12.6476 9.0618 12.842 8.82097 12.842C8.58015 12.842 8.38575 12.6476 8.38575 12.4067V11.5175ZM11.3962 11.0823C11.1553 11.0823 10.9609 11.2767 10.9609 11.5175V12.4067C10.9609 12.6475 11.1553 12.842 11.3962 12.842C11.637 12.842 11.8314 12.6476 11.8314 12.4067V11.5175C11.8314 11.2767 11.637 11.0823 11.3962 11.0823Z" fill="#333646"/>
</svg>
