<svg width="18" height="18" viewBox="0 0 18 18" fill="none" xmlns="http://www.w3.org/2000/svg">
<path fill-rule="evenodd" clip-rule="evenodd" d="M9 0C4.0275 0 0 4.0275 0 9C0 13.9725 4.0275 18 9 18C13.9725 18 18 13.9725 18 9C18 4.0275 13.9725 0 9 0ZM9 17.25C4.4475 17.25 0.75 13.56 0.75 9C0.75 4.44 4.4475 0.75 9 0.75C13.5525 0.75 17.25 4.4475 17.25 9C17.25 13.5525 13.5525 17.25 9 17.25ZM9.375 4.5H6V13.125C6 13.2245 6.03951 13.3198 6.10983 13.3902C6.18016 13.4605 6.27554 13.5 6.375 13.5C6.47446 13.5 6.56984 13.4605 6.64017 13.3902C6.71049 13.3198 6.75 13.2245 6.75 13.125V9.75H9.375C10.8225 9.75 12 8.5725 12 7.125C12 5.6775 10.8225 4.5 9.375 4.5ZM9.375 9H6.75V5.25H9.375C10.41 5.25 11.25 6.09 11.25 7.125C11.25 8.16 10.41 9 9.375 9Z" fill="#333646"/>
</svg>
