<svg width="18" height="18" viewBox="0 0 18 18" fill="none" xmlns="http://www.w3.org/2000/svg">
<path fill-rule="evenodd" clip-rule="evenodd" d="M6.73604 2.03129C5.83173 2.10368 5.08502 3.0242 5.17813 4.18745C5.27124 5.35069 6.15486 6.14072 7.05918 6.06834C7.9635 5.99595 8.7102 5.07542 8.61712 3.91218C8.52397 2.74894 7.6404 1.95891 6.73604 2.03129ZM4.43053 4.24728C4.31213 2.76804 5.26835 1.39638 6.67621 1.28369C8.08402 1.17101 9.2463 2.3731 9.36472 3.85234C9.48307 5.33158 8.5269 6.70325 7.11902 6.81593C5.71117 6.92862 4.54894 5.72652 4.43053 4.24728ZM5.40718 8.64973C6.24268 8.0108 7.20243 7.57415 8.1756 7.57415C9.16612 7.57415 10.1167 8.00495 10.9396 8.64028C11.7643 9.2771 12.4857 10.1379 13.0262 11.0484C13.5656 11.9572 13.9379 12.9376 14.0429 13.8217C14.1468 14.6967 13.9944 15.5563 13.3741 16.105L13.3696 16.1089C13.0452 16.387 12.7084 16.5133 12.3403 16.5316C11.9935 16.5487 11.634 16.4683 11.2699 16.375C11.187 16.3537 11.1019 16.3312 11.0144 16.3081C10.3195 16.1245 9.4665 15.8992 8.2506 15.8992C7.2787 15.8992 6.61669 16.116 6.01623 16.3126H6.01621C5.89572 16.352 5.77771 16.3906 5.66018 16.4266C5.31106 16.5332 4.94879 16.6201 4.55588 16.5945C4.15579 16.5684 3.75666 16.4285 3.31969 16.1376C2.53457 15.6283 2.2651 14.7763 2.31684 13.8761C2.36824 12.9817 2.73378 11.9902 3.27844 11.076C3.82506 10.1584 4.56827 9.29128 5.40718 8.64973ZM3.0656 13.9192C3.02364 14.6494 3.24112 15.1935 3.72931 15.5094L3.73363 15.5122H3.73361C4.08332 15.7453 4.35854 15.83 4.60469 15.8461C4.85866 15.8626 5.11514 15.8089 5.44102 15.7093C5.54341 15.678 5.65102 15.6426 5.76483 15.6052L5.76514 15.605H5.76523C6.37012 15.4059 7.14989 15.1492 8.2506 15.1492C9.56812 15.1492 10.5077 15.3979 11.2069 15.5831L11.2075 15.5833L11.2085 15.5835L11.21 15.5839C11.2956 15.6066 11.3776 15.6283 11.4562 15.6484C11.8234 15.7426 12.0826 15.7934 12.3031 15.7825C12.5014 15.7726 12.6796 15.7118 12.8793 15.5414C13.2324 15.2273 13.3886 14.672 13.2981 13.9102C13.2086 13.1561 12.8824 12.2756 12.3812 11.4313C11.8811 10.5886 11.2196 9.80405 10.4812 9.2339C9.74077 8.66218 8.94757 8.32415 8.1756 8.32415C7.42376 8.32415 6.62101 8.66563 5.86276 9.24553C5.10793 9.82273 4.42614 10.6149 3.92276 11.4598C3.41742 12.3081 3.10795 13.1823 3.0656 13.9192ZM11.8207 7.06374C11.075 6.8415 10.5979 5.91496 10.8973 4.91039C11.1967 3.90582 12.1032 3.39162 12.8488 3.61385C13.5946 3.83609 14.0716 4.76262 13.7722 5.76719C13.4728 6.77176 12.5664 7.28596 11.8207 7.06374ZM10.1786 4.69619C9.79185 5.99388 10.3675 7.41319 11.6065 7.78243C12.8455 8.15173 14.1042 7.27908 14.491 5.98139C14.8777 4.6837 14.3021 3.26439 13.063 2.89513C11.824 2.52586 10.5654 3.3985 10.1786 4.69619ZM14.4199 8.89498C13.935 9.7349 14.1652 10.6531 14.764 10.9989C15.3628 11.3446 16.2732 11.0849 16.7581 10.245C17.2431 9.40498 17.0128 8.48675 16.414 8.14108C15.8152 7.79533 14.9049 8.05498 14.4199 8.89498ZM14.389 11.6484C13.3378 11.0414 13.137 9.617 13.7704 8.51998C14.4039 7.42286 15.7378 6.88458 16.789 7.49155C17.8403 8.09855 18.0411 9.52288 17.4076 10.62C16.7742 11.717 15.4403 12.2554 14.389 11.6484ZM1.15645 7.93505C0.571883 7.16108 0.687518 6.22146 1.23929 5.80472C1.79107 5.38798 2.72648 5.53379 3.31105 6.30777C3.89561 7.08176 3.77998 8.02138 3.2282 8.43815C2.67643 8.85485 1.74101 8.70905 1.15645 7.93505ZM0.787266 5.20622C-0.181452 5.93786 -0.205579 7.37615 0.557948 8.38708C1.32148 9.398 2.71151 9.76828 3.68023 9.03665C4.64895 8.30495 4.67308 6.86669 3.90955 5.85575C3.14602 4.84481 1.75599 4.47458 0.787266 5.20622Z" fill="#333646"/>
</svg>
