<svg width="14" height="15" viewBox="0 0 14 15" fill="none" xmlns="http://www.w3.org/2000/svg">
<g clip-path="url(#clip0)">
<path fill-rule="evenodd" clip-rule="evenodd" d="M6.36463 1.49215C7.84884 0.458782 9.60696 0.651986 10.4824 1.55176L10.489 1.55857C10.7738 1.88046 10.9287 2.25428 10.9384 2.64696C10.9475 3.0194 10.8256 3.39406 10.5838 3.74347V4.49193C10.8265 4.6803 10.9809 4.9498 11.0282 5.25763L11.0306 5.27275V6.40507C11.0306 6.63617 10.9428 6.86204 10.7597 7.03798C10.6083 7.18339 10.4006 7.28673 10.1422 7.33859C10.0196 8.32604 9.54104 9.24532 8.81058 9.92679L9.44461 10.9412H10.0487C10.9987 10.9412 11.8072 11.1961 12.3822 11.6712C12.961 12.1495 13.287 12.8383 13.287 13.6657V14.2912C13.287 14.4037 13.2486 14.513 13.1669 14.5946C13.0853 14.6763 12.976 14.7146 12.8635 14.7146C12.8162 14.7146 12.7694 14.7078 12.7249 14.6938H1.3628C1.31838 14.7078 1.27157 14.7146 1.22419 14.7146C1.17681 14.7146 1.12999 14.7078 1.08558 14.6938H1V14.6559C0.971598 14.6392 0.944985 14.6188 0.920796 14.5946C0.839144 14.513 0.800781 14.4037 0.800781 14.2912V13.6657C0.800781 12.8251 1.0866 12.1358 1.62496 11.6589C2.16014 11.1849 2.92181 10.9412 3.83802 10.9412H4.47096L5.13685 9.98738C4.38894 9.28311 3.93029 8.34118 3.8298 7.33344C3.52372 7.25938 3.32748 7.10066 3.20949 6.91888C3.07778 6.71598 3.05716 6.50577 3.05716 6.40507V5.27275L3.05949 5.25763C3.10685 4.9498 3.26128 4.6803 3.50397 4.49193V3.59017C3.50397 2.87786 3.71482 2.33552 4.22382 1.98213C4.70343 1.64916 5.41576 1.50857 6.36463 1.49215ZM1.64759 13.6938H12.4401V13.6657C12.4401 12.9757 12.1407 12.5173 11.7022 12.2233C11.2539 11.9228 10.649 11.788 10.0487 11.788H9.19972C9.1263 11.788 9.05279 11.7651 8.99283 11.7301C8.93992 11.6992 8.87681 11.6465 8.84165 11.5666L8.12747 10.4084C7.76316 10.6072 7.36299 10.7157 6.94333 10.7157C6.56516 10.7157 6.18936 10.6253 5.84617 10.4616L5.0534 11.6112C4.96141 11.7479 4.822 11.788 4.70929 11.788H3.86182C3.12015 11.799 2.56902 11.9817 2.20607 12.2928C1.84794 12.5998 1.64759 13.0535 1.64759 13.6657V13.6938ZM8.46248 1.64549C7.84133 1.64549 7.23471 1.8735 6.72823 2.25336L6.7138 2.26418L6.69767 2.27225L6.69001 2.27613C6.65217 2.29537 6.56827 2.33804 6.47419 2.33804C5.39921 2.33804 4.87672 2.51254 4.61895 2.73382C4.37534 2.94293 4.32844 3.22925 4.32844 3.61251V4.72953C4.32844 4.89648 4.2408 5.0216 4.12768 5.09701L4.1124 5.10719L4.09552 5.11443C4.00767 5.15208 3.93379 5.22755 3.88163 5.33192V6.40507C3.88163 6.44721 3.88513 6.45912 3.89561 6.47047C3.90742 6.48327 3.9734 6.54017 4.2178 6.54017C4.42674 6.54017 4.64121 6.7063 4.64121 6.96358C4.64121 7.64347 4.89906 8.38405 5.32213 8.95255C5.7462 9.52239 6.31315 9.89124 6.92099 9.89124C7.55272 9.89124 8.14821 9.50956 8.59476 8.93277C9.0405 8.35702 9.31248 7.61726 9.31248 6.96358C9.31248 6.85111 9.35085 6.74184 9.4325 6.66019C9.51415 6.57854 9.62342 6.54017 9.73589 6.54017C9.90573 6.54017 10.0336 6.50969 10.1111 6.47001C10.1491 6.45054 10.1683 6.43234 10.1768 6.42116C10.1837 6.41202 10.1838 6.40783 10.1838 6.40507V5.30107L10.1799 5.29484C10.1695 5.27889 10.1507 5.25717 10.1227 5.23137C10.0667 5.17987 9.99553 5.13196 9.94575 5.1021L9.93759 5.0972C9.87154 5.05317 9.82333 4.99224 9.79158 4.93326C9.76031 4.8752 9.73695 4.80362 9.73695 4.72953V3.61251C9.73695 3.51843 9.77963 3.43452 9.79887 3.39669L9.80275 3.38903L9.81174 3.37104L9.82413 3.35521C10.0059 3.12291 10.0832 2.90817 10.0832 2.7189C10.0832 2.53399 10.0096 2.34823 9.84022 2.16789C9.47924 1.82918 8.97342 1.64549 8.46248 1.64549Z" fill="#7A8793"/>
</g>
<defs>
<clipPath id="clip0">
<rect x="0.800781" y="0.793945" width="12.4862" height="13.9207" fill="white"/>
</clipPath>
</defs>
</svg>
