<svg width="16" height="16" viewBox="0 0 16 16" fill="none" xmlns="http://www.w3.org/2000/svg">
<path fill-rule="evenodd" clip-rule="evenodd" d="M3.75 2.5V5.25H2.75C1.64307 5.25 0.75 6.14307 0.75 7.25V10.5C0.75 11.0523 1.19772 11.5 1.75 11.5H3.75V13.5C3.75 14.0523 4.19772 14.5 4.75 14.5H11.25C11.8023 14.5 12.25 14.0523 12.25 13.5V11.5H14.25C14.8023 11.5 15.25 11.0523 15.25 10.5V7.25C15.25 6.14307 14.3569 5.25 13.25 5.25H12.25V2.5C12.25 1.94772 11.8023 1.5 11.25 1.5H4.75C4.19772 1.5 3.75 1.94772 3.75 2.5ZM4.75 2.5H11.25V5.25H4.75V2.5ZM1.75 7.25C1.75 6.69943 2.19943 6.25 2.75 6.25H13.25C13.8006 6.25 14.25 6.69943 14.25 7.25V10.5H12.25V9H3.75V10.5H1.75V7.25ZM4.75 10H11.25V13.5H4.75V10ZM12.4977 6.97559C12.1387 6.97559 11.8477 7.2666 11.8477 7.62559C11.8477 7.98457 12.1387 8.27559 12.4977 8.27559C12.8566 8.27559 13.1477 7.98457 13.1477 7.62559C13.1477 7.2666 12.8566 6.97559 12.4977 6.97559Z" fill="#7A8793"/>
</svg>
