<svg width="16" height="16" viewBox="0 0 16 16" fill="none" xmlns="http://www.w3.org/2000/svg">
<path fill-rule="evenodd" clip-rule="evenodd" d="M3.75 5.25V2.5C3.75 1.94772 4.19772 1.5 4.75 1.5H11.25C11.8023 1.5 12.25 1.94772 12.25 2.5V5.25H13.25C14.3569 5.25 15.25 6.14307 15.25 7.25V10.5C15.25 11.0523 14.8023 11.5 14.25 11.5H12.25V13.5C12.25 14.0523 11.8023 14.5 11.25 14.5H4.75C4.19772 14.5 3.75 14.0523 3.75 13.5V11.5H1.75C1.19772 11.5 0.75 11.0523 0.75 10.5V7.25C0.75 6.14307 1.64307 5.25 2.75 5.25H3.75ZM11.25 2.5H4.75V5.25H11.25V2.5ZM11.25 10H4.75V13.5H11.25V10ZM11.8477 7.62559C11.8477 7.2666 12.1387 6.97559 12.4977 6.97559C12.7047 6.97559 12.8892 7.07243 13.0083 7.22329C13.0979 7.33471 13.1516 7.47633 13.1516 7.63047C13.1516 7.98945 12.8605 8.28047 12.5016 8.28047C12.2938 8.28047 12.1089 8.18303 11.9899 8.03136C11.9009 7.92015 11.8477 7.77908 11.8477 7.62559Z" fill="#7A8793"/>
</svg>
