<svg width="18" height="18" viewBox="0 0 18 18" fill="none" xmlns="http://www.w3.org/2000/svg">
<g clip-path="url(#clip0)">
<path fill-rule="evenodd" clip-rule="evenodd" d="M13.6991 16.2897C13.7917 16.3829 13.865 16.4935 13.9148 16.6151C13.9647 16.7366 13.9901 16.8668 13.9896 16.9982C13.9892 17.1296 13.9628 17.2596 13.9121 17.3809C13.8614 17.5021 13.7873 17.6121 13.6941 17.7047C13.6008 17.7973 13.4903 17.8706 13.3687 17.9204C13.2471 17.9703 13.1169 17.9957 12.9855 17.9953C12.8541 17.9948 12.7241 17.9685 12.6029 17.9177C12.4817 17.867 12.3717 17.7929 12.2791 17.6997L4.27907 9.6997C4.09282 9.51234 3.98828 9.25889 3.98828 8.9947C3.98828 8.73052 4.09282 8.47707 4.27907 8.2897L12.2791 0.289703C12.3717 0.196464 12.4817 0.122374 12.6029 0.0716627C12.7241 0.0209511 12.8541 -0.00538883 12.9855 -0.00585313C13.1169 -0.00631742 13.2471 0.019103 13.3687 0.0689567C13.4903 0.11881 13.6008 0.192121 13.6941 0.284703C13.7873 0.377285 13.8614 0.487325 13.9121 0.60854C13.9628 0.729756 13.9892 0.859773 13.9896 0.991167C13.9901 1.12256 13.9647 1.25276 13.9148 1.37433C13.865 1.4959 13.7917 1.60646 13.6991 1.6997L6.40907 8.9897L13.6991 16.2897Z" fill="#6BB63F"/>
</g>
<defs>
<clipPath id="clip0">
<rect width="18" height="18" fill="white"/>
</clipPath>
</defs>
</svg>
