<svg width="18" height="18" viewBox="0 0 18 18" fill="none" xmlns="http://www.w3.org/2000/svg">
<path fill-rule="evenodd" clip-rule="evenodd" d="M15.1333 4.32594H5.15266L13.4755 1.01403C13.6673 0.937822 13.7607 0.720516 13.6846 0.528613C13.6084 0.336711 13.3911 0.243382 13.1992 0.319453L3.14017 4.32594H2.85645C1.5384 4.32594 0 5.07271 0 7.18239V14.889C0 16.9987 1.5384 17.7455 2.85645 17.7455H15.1333C16.4513 17.7455 17.9897 16.9987 17.9897 14.889V7.18612C17.9934 5.07643 16.4625 4.32594 15.1333 4.32594ZM17.2467 14.889C17.2467 16.7932 15.7531 16.9987 15.1369 16.9987H2.85645C2.22166 16.9987 0.746764 16.7932 0.746764 14.889V7.18612C0.746764 5.28187 2.24029 5.07644 2.85645 5.07644H15.1333C15.7681 5.07644 17.2429 5.28187 17.2429 7.18612L17.2467 14.889ZM3.69865 9.1533H14.2953C14.5014 9.1533 14.6687 8.98598 14.6687 8.7798V6.6254C14.6687 6.41928 14.5014 6.25196 14.2953 6.25196H3.69865C3.49252 6.25196 3.32519 6.41928 3.32519 6.6254V8.7798C3.32519 8.98598 3.49252 9.1533 3.69865 9.1533ZM13.9219 8.40637H11.2821V6.99872H13.9219V8.40637ZM4.07196 6.99872H10.5353V8.40637H4.07196V6.99872ZM10.5498 13.1899C10.5498 11.6597 11.7901 10.4194 13.3202 10.4194C14.8504 10.4194 16.0908 11.6597 16.0908 13.1899C16.0908 14.7201 14.8505 15.9604 13.3202 15.9604C11.7901 15.9604 10.5498 14.7201 10.5498 13.1899ZM11.2966 13.1899C11.2966 14.3075 12.2028 15.2137 13.3202 15.2137C14.437 15.2115 15.3418 14.3068 15.344 13.1899C15.344 12.0724 14.4378 11.1662 13.3202 11.1662C12.2028 11.1662 11.2966 12.0724 11.2966 13.1899ZM7.93687 13.0071C7.14715 13.0071 6.50683 13.6475 6.50683 14.4371C6.50683 15.227 7.14715 15.8672 7.93687 15.8672C8.72655 15.8672 9.36705 15.2268 9.36705 14.4371C9.36705 13.6472 8.72655 13.0071 7.93687 13.0071ZM7.93687 15.1168C7.5594 15.1168 7.2536 14.811 7.2536 14.4335C7.2536 14.0559 7.5594 13.7501 7.93687 13.7501C8.31442 13.7501 8.62012 14.0559 8.62012 14.4335C8.62012 14.8105 8.31442 15.1168 7.93687 15.1168ZM2.80664 14.4371C2.80664 13.6475 3.44696 13.0071 4.23666 13.0071C5.02636 13.0071 5.66682 13.6472 5.66668 14.4371C5.66668 15.2268 5.02636 15.8672 4.23666 15.8672C3.44696 15.8672 2.80664 15.227 2.80664 14.4371ZM3.5534 14.4335C3.5534 14.811 3.85921 15.1168 4.23666 15.1168C4.61411 15.1168 4.91992 14.811 4.91992 14.4335C4.91992 14.0559 4.61411 13.7501 4.23666 13.7501C3.85921 13.7501 3.5534 14.0559 3.5534 14.4335Z" fill="#333646"/>
</svg>
