<svg width="18" height="18" viewBox="0 0 18 18" fill="none" xmlns="http://www.w3.org/2000/svg">
<path fill-rule="evenodd" clip-rule="evenodd" d="M9.32213 1.02337C9.13922 0.858747 8.86156 0.858747 8.67865 1.02337L1.05961 7.88051C0.86217 8.0582 0.846165 8.3623 1.02386 8.55974C1.20155 8.75717 1.50565 8.77318 1.70309 8.59549L2.4242 7.94648V15.0951C2.4242 16.2023 3.32177 17.0999 4.42896 17.0999H13.5718C14.679 17.0999 15.5766 16.2023 15.5766 15.0951V7.94648L16.2977 8.59549C16.4951 8.77318 16.7992 8.75717 16.9769 8.55974C17.1546 8.3623 17.1386 8.0582 16.9412 7.88051L9.32213 1.02337ZM3.38611 7.17192C3.38611 7.14315 3.38357 7.11491 3.3787 7.08744L9.00039 2.02791L14.6221 7.08744C14.6172 7.11491 14.6147 7.14315 14.6147 7.17192V15.0951C14.6147 15.6711 14.1478 16.138 13.5718 16.138H11.7671V13.5713C11.7671 12.4641 10.8695 11.5666 9.7623 11.5666H8.23849C7.13129 11.5666 6.23373 12.4641 6.23373 13.5713V16.138H4.42897C3.85301 16.138 3.38611 15.6711 3.38611 15.0951V7.17192ZM7.19563 13.5713C7.19563 12.9954 7.66254 12.5285 8.23849 12.5285H9.7623C10.3383 12.5285 10.8052 12.9954 10.8052 13.5713V16.138H7.19563V13.5713Z" fill="#7A8793"/>
</svg>
