<svg width="18" height="18" viewBox="0 0 18 18" fill="none" xmlns="http://www.w3.org/2000/svg">
<path fill-rule="evenodd" clip-rule="evenodd" d="M6.75 4.5C6.75 3.917 6.52734 3.38599 6.16406 2.98609C5.75391 2.53418 5.15918 2.25 4.5 2.25C3.25781 2.25 2.25 3.25708 2.25 4.5V15.75H3H3.375C3.583 15.75 3.75 15.9177 3.75 16.125C3.75 16.3323 3.583 16.5 3.375 16.5H3H1.5H0.375C0.342773 16.5 0.310546 16.4963 0.27832 16.4883C0.237304 16.4773 0.199219 16.459 0.164062 16.4356C0.099609 16.3916 0.0498047 16.3271 0.0234375 16.2524C0.0087891 16.2129 0 16.1697 0 16.125C0 15.9902 0.0703125 15.8716 0.178711 15.8056C0.205078 15.7888 0.237304 15.7749 0.269531 15.7654L0.316406 15.7544L0.375 15.75H1.5V4.5C1.5 2.84326 2.84179 1.5 4.5 1.5C6.15821 1.5 7.5 2.84326 7.5 4.5C8.32913 4.5 9 5.17163 9 6V6.75H7.5V7.125C7.5 7.33228 7.333 7.5 7.125 7.5C6.917 7.5 6.75 7.33228 6.75 7.125V6.75H5.25V6C5.25 5.89673 5.25879 5.79639 5.27929 5.69897C5.29394 5.62866 5.31446 5.56054 5.33789 5.49463C5.39942 5.32251 5.49023 5.16431 5.60742 5.02734C5.88281 4.70435 6.29296 4.5 6.75 4.5ZM8.25 6H7.125H6C6 5.58545 6.33692 5.25 6.75 5.25H7.5C7.9131 5.25 8.25 5.58545 8.25 6ZM17.25 13.875V15.75H16.5V13.875C16.5 13.7513 16.5586 13.6414 16.6523 13.5733C16.7139 13.5271 16.79 13.5 16.875 13.5C17.083 13.5 17.25 13.6677 17.25 13.875ZM15.8144 13.5C15.9697 13.0635 16.3858 12.75 16.875 12.75C17.4961 12.75 18 13.2539 18 13.875V15.9001C18 16.2312 17.7304 16.5 17.3994 16.5H16.3506C16.0196 16.5 15.75 16.2312 15.75 15.9001V15.75H6.75V15.9001C6.75 16.2312 6.48046 16.5 6.14942 16.5H5.10058C4.76954 16.5 4.5 16.2312 4.5 15.9001V13.875C4.5 13.2539 5.00391 12.75 5.625 12.75C5.87402 12.75 6.10546 12.832 6.29296 12.9704C6.47168 13.103 6.60937 13.2868 6.68554 13.5H6.75H10.919L10.916 10.8003C10.916 10.7299 10.8925 10.6648 10.8516 10.6136C10.7959 10.544 10.7109 10.5 10.6172 10.5H6.25781C6.09375 10.5 5.95898 10.634 5.95898 10.8003V12.75H5.625H5.25V10.5C5.25 10.0855 5.56641 9.75 5.95898 9.75H10.916C11.0449 9.75 11.1709 9.7866 11.2734 9.8496C11.376 9.7866 11.499 9.75 11.6279 9.75H16.585C16.9775 9.75 17.2939 10.0855 17.2939 10.5V12.75H16.875H16.585V10.8003C16.585 10.634 16.4502 10.5 16.2861 10.5H11.9267C11.7627 10.5 11.6279 10.634 11.6279 10.8003V13.5H15.8144ZM10.916 14.25H11.6279H15.75V15H6.75V14.25H10.916ZM6 13.875V15.75H5.25V13.875C5.25 13.6677 5.417 13.5 5.625 13.5C5.833 13.5 6 13.6677 6 13.875Z" fill="#333646"/>
</svg>
