<svg width="14" height="14" fill="none" xmlns="http://www.w3.org/2000/svg"><path fill-rule="evenodd" clip-rule="evenodd" d="M9.333 14v-2.333c0-.92-.746-1.667-1.666-1.667H6.333c-.92 0-1.666.746-1.666 1.667V14H3c-.92 0-1.667-.746-1.667-1.667V5.882l-.777.7a.333.333 0 01-.446-.496l6.667-6a.333.333 0 01.446 0l6.667 6a.333.333 0 01-.446.495l-.777-.7v6.452c0 .92-.746 1.667-1.667 1.667H9.333z" fill="#fff"/><path fill-rule="evenodd" clip-rule="evenodd" d="M8.665 11.666a1 1 0 00-1-1H6.332a1 1 0 00-1 1V14h3.333v-2.334z" fill="#fff"/></svg>