<svg width="14" height="14" viewBox="0 0 14 14" fill="none" xmlns="http://www.w3.org/2000/svg">
<path fill-rule="evenodd" clip-rule="evenodd" d="M3 14C2.07953 14 1.33334 13.2538 1.33334 12.3333V5.88179L0.556324 6.5811C0.419488 6.70425 0.208724 6.69316 0.0855715 6.55632C-0.0375815 6.41949 -0.0264887 6.20872 0.110348 6.08557L6.77701 0.0855686C6.90378 -0.0285229 7.09622 -0.0285229 7.22299 0.0855686L13.8897 6.08557C14.0265 6.20872 14.0376 6.41949 13.9144 6.55632C13.7913 6.69316 13.5805 6.70425 13.4437 6.5811L12.6667 5.88179V12.3333C12.6667 13.2538 11.9205 14 11 14H8.66732V13.6665V12.6665H5.33398V13.6665V14H3ZM7.66732 6.6665C8.2196 6.6665 8.66732 7.11422 8.66732 7.6665V9.99984H5.33398V7.6665C5.33398 7.11422 5.7817 6.6665 6.33398 6.6665H7.66732Z" fill="#7A8793"/>
</svg>
