<svg width="16" height="16" viewBox="0 0 16 16" fill="none" xmlns="http://www.w3.org/2000/svg">
<path fill-rule="evenodd" clip-rule="evenodd" d="M9 3V8C9 8.55228 8.55228 9 8 9C7.44772 9 7 8.55228 7 8V3C7 2.44772 7.44772 2 8 2C8.55228 2 9 2.44772 9 3ZM6 3C6 1.89543 6.89543 1 8 1C9.10457 1 10 1.89543 10 3V8C10 9.10457 9.10457 10 8 10C6.89543 10 6 9.10457 6 8V3ZM9 13C9 13.5523 8.55228 14 8 14C7.44772 14 7 13.5523 7 13C7 12.4477 7.44772 12 8 12C8.55228 12 9 12.4477 9 13ZM10 13C10 14.1046 9.10457 15 8 15C6.89543 15 6 14.1046 6 13C6 11.8954 6.89543 11 8 11C9.10457 11 10 11.8954 10 13Z" fill="#7A8793"/>
</svg>
