<svg width="14" height="14" viewBox="0 0 14 14" fill="none" xmlns="http://www.w3.org/2000/svg">
<path d="M6.92424 0C4.76061 0 3 1.76061 3 3.92424C3 5.30303 3.72121 6.52273 4.80303 7.22273V11.8788C4.80303 13.0455 5.75758 14 6.92424 14C8.09091 14 9.04545 13.0455 9.04545 11.8788V7.22273C10.1273 6.53333 10.8485 5.31364 10.8485 3.92424C10.8485 1.76061 9.08788 0 6.92424 0Z" fill="#DBE3EA"/>
<path fill-rule="evenodd" clip-rule="evenodd" d="M5.80303 6.6787V11.8788C5.80303 12.4932 6.30986 13 6.92424 13C7.53862 13 8.04545 12.4932 8.04545 11.8788V6.67419L8.50804 6.37941C9.31176 5.86724 9.84848 4.96023 9.84848 3.92424C9.84848 2.31289 8.53559 1 6.92424 1C5.31289 1 4 2.31289 4 3.92424C4 4.94693 4.53478 5.85807 5.34628 6.38316L5.80303 6.6787ZM3 3.92424C3 1.76061 4.76061 0 6.92424 0C9.08788 0 10.8485 1.76061 10.8485 3.92424C10.8485 5.31364 10.1273 6.53333 9.04545 7.22273V11.8788C9.04545 13.0455 8.09091 14 6.92424 14C5.75758 14 4.80303 13.0455 4.80303 11.8788V7.22273C3.72121 6.52273 3 5.30303 3 3.92424Z" fill="#798591"/>
</svg>
