<svg width="18" height="18" viewBox="0 0 18 18" fill="none" xmlns="http://www.w3.org/2000/svg">
<path fill-rule="evenodd" clip-rule="evenodd" d="M15.7337 0H2.26634C1.02421 0 0 1.02421 0 2.26634V15.7337C0 16.9758 1.02421 18 2.26634 18H15.7337C16.9758 18 18 16.9758 18 15.7337V2.26634C18 1.02421 16.9758 0 15.7337 0ZM17.3027 15.7337H17.2809C17.2809 16.5836 16.5835 17.3027 15.7119 17.3027H2.26634C1.41647 17.3027 0.697336 16.6053 0.697336 15.7337V2.26634C0.697336 1.41647 1.39467 0.697336 2.26634 0.697336H15.7337C16.5836 0.697336 17.3027 1.39467 17.3027 2.26634V15.7337ZM9.522 8.65162H8.7375C8.69392 8.4555 8.60678 8.25937 8.4978 8.085L9.0426 7.5402C9.17332 7.40948 9.17332 7.19157 9.0426 7.03903C8.91187 6.90827 8.69392 6.90827 8.54138 7.03903L7.99657 7.58385C7.82227 7.47486 7.62615 7.38769 7.43 7.34411V6.5596C7.43 6.36348 7.27746 6.21094 7.08134 6.21094C6.88521 6.21094 6.73267 6.36348 6.73267 6.5596V7.34411C6.53654 7.38769 6.34042 7.47486 6.16608 7.58385L5.62129 7.03903C5.49054 6.90827 5.25082 6.90827 5.12008 7.03903C4.98933 7.16978 4.98933 7.40948 5.12008 7.5402L5.66487 8.085C5.55591 8.25937 5.46875 8.4555 5.42516 8.65162H4.64066C4.44454 8.65162 4.292 8.80417 4.292 9.0003C4.292 9.19642 4.44454 9.34897 4.64066 9.34897H5.42516C5.46875 9.5451 5.55591 9.74123 5.66487 9.91553L5.12008 10.4603C4.98933 10.5911 4.98933 10.809 5.12008 10.9615C5.18545 11.0269 5.27262 11.0705 5.35979 11.0705C5.44695 11.0705 5.53412 11.0269 5.59949 10.9615L6.16608 10.4167C6.34042 10.5257 6.53654 10.6129 6.73267 10.6565V11.4409C6.73267 11.6371 6.88521 11.7896 7.08134 11.7896C7.27746 11.7896 7.43 11.6371 7.43 11.4409V10.6565C7.62615 10.6129 7.82227 10.5257 7.99657 10.4167L8.5632 10.9615C8.62852 11.0269 8.71575 11.0705 8.8029 11.0705C8.89005 11.0705 8.9772 11.0269 9.0426 10.9615C9.17332 10.8308 9.17332 10.6129 9.0426 10.4603L8.4978 9.89377C8.60678 9.7194 8.69392 9.5451 8.7375 9.32715H9.522C9.71813 9.32715 9.87068 9.1746 9.87068 8.97848C9.87068 8.78235 9.71813 8.65162 9.522 8.65162ZM7.08134 9.98093C6.53654 9.98093 6.1007 9.5451 6.1007 9.0003C6.1007 8.4555 6.53654 8.01967 7.08134 8.01967C7.62615 8.01967 8.06198 8.4555 8.06198 9.0003C8.08372 9.5451 7.62615 9.98093 7.08134 9.98093ZM17.0638 5.94889C17.0638 6.64622 16.4972 7.2346 15.778 7.2346H15.4076V10.3508H15.7563C16.4536 10.3508 17.042 10.9174 17.042 11.6365C17.042 12.3339 16.4754 12.9223 15.7563 12.9223H15.4076V13.1837C15.4076 14.4259 14.3834 15.4501 13.1413 15.4501H4.83861C3.59648 15.4501 2.57227 14.4259 2.57227 13.1837V4.88109C2.57227 3.63896 3.59648 2.61475 4.83861 2.61475H13.1631C14.3399 2.61475 15.2987 3.50821 15.4076 4.66317H15.778C16.4754 4.66317 17.0638 5.22976 17.0638 5.94889ZM13.1413 14.7092C14.0129 14.7092 14.7103 13.9901 14.7103 13.1402V12.8787H14.3616C13.6643 12.8787 13.0759 12.3121 13.0759 11.593C13.0759 10.8956 13.6425 10.3073 14.3616 10.3073H14.7103V7.19102H14.3616C13.6643 7.19102 13.0759 6.62443 13.0759 5.9053C13.0759 5.20797 13.6425 4.61959 14.3616 4.61959H14.6885C14.5795 3.85687 13.9258 3.2685 13.1413 3.2685H4.83861C3.96694 3.2685 3.2696 3.98763 3.2696 4.83751V13.1402C3.2696 14.0119 3.98873 14.7092 4.83861 14.7092H13.1413ZM16.3664 11.593C16.3664 11.2661 16.105 11.0046 15.7999 11.0046H14.3834C14.0565 11.0046 13.795 11.2661 13.795 11.593C13.795 11.9198 14.0565 12.1814 14.3834 12.1814H15.0808H15.778C16.105 12.1814 16.3664 11.9198 16.3664 11.593ZM13.7732 5.92709C13.7732 6.25397 14.0347 6.51547 14.3616 6.51547H15.778C16.105 6.51547 16.3664 6.25397 16.3664 5.92709C16.3664 5.60022 16.105 5.33872 15.778 5.33872H14.3616C14.0347 5.33872 13.7732 5.60022 13.7732 5.92709Z" fill="#333646"/>
</svg>
