<svg width="18" height="18" viewBox="0 0 18 18" fill="none" xmlns="http://www.w3.org/2000/svg">
<g clip-path="url(#clip0)">
<path fill-rule="evenodd" clip-rule="evenodd" d="M12.9738 7.20057H12.8238C12.5988 7.12557 12.5238 6.90057 12.6738 6.67557C12.6738 6.67557 13.0488 5.85057 13.0488 5.02557C13.0488 4.65057 12.8988 4.35057 12.7488 4.05057C12.5238 3.60057 12.2988 3.15057 12.2988 2.47557C12.2988 1.27557 12.5988 0.375564 12.5988 0.375564C12.6738 0.225564 12.8238 0.0755642 13.0488 0.150564C13.1988 0.225564 13.3488 0.375564 13.2738 0.600564C13.2738 0.616379 13.2605 0.662212 13.2394 0.734543V0.734565C13.1606 1.00525 12.9738 1.647 12.9738 2.47557C12.9738 2.89302 13.1161 3.21564 13.2498 3.51884C13.2842 3.59694 13.3181 3.67375 13.3488 3.75057C13.5738 4.12557 13.7238 4.50057 13.7238 5.02557C13.7238 5.78884 13.494 6.50616 13.3942 6.81768V6.81768V6.8177C13.3665 6.9041 13.3488 6.95928 13.3488 6.97557C13.2738 7.12557 13.1238 7.20057 12.9738 7.20057ZM15.0012 7.20027H14.8512C14.6262 7.12527 14.5512 6.90027 14.6262 6.75027C14.6262 6.75027 15.0012 5.85027 15.0012 5.02527C15.0012 4.82527 14.9345 4.62527 14.8678 4.42527C14.8345 4.32527 14.8012 4.22527 14.7762 4.12527C14.5512 3.67527 14.3262 3.22527 14.3262 2.55027C14.3262 1.35027 14.6262 0.450271 14.6262 0.450271C14.7012 0.300271 14.8512 0.150271 15.0762 0.225271C15.2262 0.300271 15.3762 0.450271 15.3012 0.675271C15.3012 0.691087 15.2878 0.736919 15.2668 0.809254V0.809269C15.1879 1.07996 15.0012 1.72171 15.0012 2.55027C15.0012 2.89903 15.1364 3.20275 15.267 3.49632C15.3049 3.58155 15.3425 3.66591 15.3762 3.75027C15.6012 4.12527 15.7512 4.50027 15.7512 5.02527C15.7512 5.67527 15.5512 6.32527 15.44 6.68638C15.3845 6.86694 15.3512 6.97527 15.3762 6.97527C15.3012 7.12527 15.1512 7.20027 15.0012 7.20027ZM16.8762 2.55027C16.8762 1.72171 17.063 1.07996 17.1418 0.809269V0.809254C17.1628 0.736919 17.1762 0.691087 17.1762 0.675271C17.2512 0.450271 17.1012 0.300271 16.9512 0.225271C16.7262 0.150271 16.5762 0.300271 16.5012 0.450271C16.5012 0.450271 16.2012 1.35027 16.2012 2.55027C16.2012 3.22527 16.4262 3.67527 16.6512 4.12527C16.8012 4.42527 16.9512 4.72527 16.9512 5.10027C16.8762 5.85027 16.5012 6.75027 16.5012 6.75027C16.4262 6.97527 16.5012 7.12527 16.7262 7.27527H16.8762C17.0262 7.27527 17.1762 7.20027 17.2512 7.05027C17.2512 7.03398 17.2688 6.97881 17.2965 6.89241V6.89239C17.3963 6.58088 17.6262 5.86356 17.6262 5.10027C17.6262 4.57527 17.4762 4.20027 17.2512 3.82527C17.2074 3.69398 17.1572 3.56907 17.1082 3.44682V3.44678C16.989 3.15004 16.8762 2.86896 16.8762 2.55027ZM14.4 11.3257C14.475 11.3257 14.55 11.4007 14.625 11.4757C14.775 11.6257 16.95 15.0007 17.175 15.5257C17.7 16.5757 17.325 17.4007 16.725 17.7757C16.575 17.8507 16.425 17.8507 16.275 17.8507C15.75 17.8507 15.225 17.5507 14.85 17.1007C14.6812 16.8474 14.251 16.1189 13.8403 15.4235C13.5212 14.8833 13.214 14.363 13.05 14.1007H9H0.375C0.15 14.1007 0 13.9507 0 13.7257C0 13.5007 0.15 13.3507 0.375 13.3507H1.8C1.725 12.9007 1.875 12.3757 2.025 12.0757C2.025 12.0757 4.725 7.27569 5.025 6.75069C5.325 6.22569 5.625 5.92569 6 5.77569C5.625 5.40069 5.4 4.87569 5.4 4.35069C5.4 3.22569 6.3 2.32569 7.425 2.32569C8.55 2.32569 9.45 3.22569 9.45 4.35069C9.45 5.17569 9 5.92569 8.25 6.22569C8.4 6.37569 8.55 6.52569 8.625 6.75069V6.75072C8.85007 7.27581 9.975 9.90069 10.275 10.6507L14.4 11.3257ZM8.7 4.35069C8.7 3.67569 8.1 3.07569 7.425 3.07569C6.675 3.07569 6.15 3.67569 6.15 4.35069C6.15 5.02569 6.675 5.62569 7.425 5.62569C8.1 5.62569 8.7 5.02569 8.7 4.35069ZM4.125 13.1257L3.9 13.3507V13.4257H7.35C7.3125 13.3507 7.25625 13.2757 7.2 13.2007C7.14375 13.1257 7.0875 13.0507 7.05 12.9757L5.775 10.8007C5.5125 11.1757 5.13751 11.7007 4.80939 12.1601C4.48126 12.6194 4.2 13.0132 4.125 13.1257ZM15.525 16.6507C15.825 17.1007 16.275 17.1757 16.425 17.1007C16.65 16.9507 16.875 16.5007 16.575 15.7507C16.4528 15.4453 15.3854 13.7966 14.6288 12.628C14.4565 12.3617 14.3003 12.1205 14.175 11.9257L9.975 11.2507C9.825 11.2507 9.75 11.1757 9.675 11.0257C9.47812 10.5757 9.21795 9.96744 8.95785 9.35927C8.5242 8.34557 8.09063 7.33194 7.95 7.05069C7.8 6.67569 7.5 6.30069 6.975 6.30069C6.525 6.30069 6.15 6.30069 5.7 7.05069C5.4 7.57569 2.7 12.3757 2.7 12.3757C2.55 12.6007 2.475 12.9007 2.55 13.0507C2.55 13.1257 2.625 13.2007 2.625 13.2007C2.775 13.3507 3.225 12.9757 3.525 12.6007C3.75 12.3757 4.875 10.7257 5.475 9.82569C5.55 9.75069 5.625 9.67569 5.775 9.67569C5.925 9.67569 6 9.75069 6.075 9.82569L7.65 12.5257C7.875 13.0507 8.4 13.3507 9 13.3507H13.35C13.3875 13.3507 13.4062 13.3694 13.425 13.3882C13.4437 13.4069 13.4625 13.4257 13.5 13.4257H13.575L13.65 13.5007C13.65 13.5757 15.15 16.1257 15.525 16.6507Z" fill="#333646"/>
</g>
<defs>
<clipPath id="clip0">
<rect width="18" height="18" fill="white" transform="translate(0 0.000244141)"/>
</clipPath>
</defs>
</svg>
