<svg width="18" height="18" viewBox="0 0 18 18" fill="none" xmlns="http://www.w3.org/2000/svg">
<path fill-rule="evenodd" clip-rule="evenodd" d="M13 7C13 10.3137 10.3137 13 7 13C3.68629 13 1 10.3137 1 7C1 3.68629 3.68629 1 7 1C10.3137 1 13 3.68629 13 7ZM11.5895 12.2856C10.3607 13.3535 8.75584 14 7 14C3.13401 14 0 10.866 0 7C0 3.13401 3.13401 0 7 0C10.866 0 14 3.13401 14 7C14 8.75584 13.3535 10.3607 12.2856 11.5895C12.3095 11.6062 12.3323 11.6251 12.3536 11.6464L17.3536 16.6464C17.5488 16.8417 17.5488 17.1583 17.3536 17.3536C17.1583 17.5488 16.8417 17.5488 16.6464 17.3536L11.6464 12.3536C11.6251 12.3323 11.6062 12.3095 11.5895 12.2856Z" fill="#8F98A2"/>
</svg>
