<svg width="18" height="18" viewBox="0 0 18 18" fill="none" xmlns="http://www.w3.org/2000/svg">
<path fill-rule="evenodd" clip-rule="evenodd" d="M0 2.625C0 2.41789 0.167893 2.25 0.375 2.25H2.25H15.75H17.625C17.8321 2.25 18 2.41789 18 2.625C18 2.8321 17.8321 3 17.625 3H15.3L13.7185 5.63588C13.5829 5.86178 13.3388 6 13.0753 6H4.92464C4.6612 6 4.41707 5.86178 4.28153 5.63588L2.7 3H0.375C0.167893 3 0 2.8321 0 2.625ZM3.57464 3L4.92464 5.25H13.0753L14.4254 3H3.57464ZM0 7.875C0 7.66792 0.167893 7.5 0.375 7.5H2.25H15.75H17.625C17.8321 7.5 18 7.66792 18 7.875C18 8.08208 17.8321 8.25 17.625 8.25H15.3L13.7185 10.8859C13.5829 11.1118 13.3388 11.25 13.0753 11.25H4.92464C4.6612 11.25 4.41707 11.1118 4.28153 10.8859L2.7 8.25H0.375C0.167893 8.25 0 8.08208 0 7.875ZM3.57464 8.25L4.92464 10.5H13.0753L14.4254 8.25H3.57464ZM0.375 12.75C0.167893 12.75 0 12.9179 0 13.125C0 13.3321 0.167893 13.5 0.375 13.5H2.7L4.28153 16.1359C4.41707 16.3618 4.6612 16.5 4.92464 16.5H13.0753C13.3388 16.5 13.5829 16.3618 13.7185 16.1359L15.3 13.5H17.625C17.8321 13.5 18 13.3321 18 13.125C18 12.9179 17.8321 12.75 17.625 12.75H15.75H2.25H0.375ZM14.4254 13.5H3.57464L4.92464 15.75H13.0753L14.4254 13.5Z" fill="#343747"/>
</svg>
