<svg width="16" height="16" viewBox="0 0 16 16" fill="none" xmlns="http://www.w3.org/2000/svg">
<path fill-rule="evenodd" clip-rule="evenodd" d="M12 3C12 3.55228 11.5523 4 11 4C10.4477 4 10 3.55228 10 3C10 2.44772 10.4477 2 11 2C11.5523 2 12 2.44772 12 3ZM13 3C13 4.10457 12.1046 5 11 5C10.5842 5 10.198 4.87311 9.87809 4.65594L5.79073 7.10835C5.92466 7.37681 6 7.67961 6 8C6 8.33072 5.91973 8.64269 5.77761 8.91749L9.66607 11.5098C10.02 11.1928 10.4875 11 11 11C12.1046 11 13 11.8954 13 13C13 14.1046 12.1046 15 11 15C9.89543 15 9 14.1046 9 13C9 12.7693 9.03906 12.5477 9.11092 12.3415L5.10226 9.6691C4.78623 9.87823 4.40733 10 4 10C2.89543 10 2 9.10457 2 8C2 6.89543 2.89543 6 4 6C4.4156 6 4.8016 6.12677 5.12143 6.34374L9.20903 3.89118C9.07525 3.62284 9 3.32021 9 3C9 1.89543 9.89543 1 11 1C12.1046 1 13 1.89543 13 3ZM4 9C4.55228 9 5 8.55228 5 8C5 7.44772 4.55228 7 4 7C3.44772 7 3 7.44772 3 8C3 8.55228 3.44772 9 4 9ZM11 14C11.5523 14 12 13.5523 12 13C12 12.4477 11.5523 12 11 12C10.4477 12 10 12.4477 10 13C10 13.5523 10.4477 14 11 14Z" fill="#7A8793"/>
</svg>
