<svg width="18" height="18" viewBox="0 0 18 18" fill="none" xmlns="http://www.w3.org/2000/svg">
<g clip-path="url(#clip0)">
<path fill-rule="evenodd" clip-rule="evenodd" d="M13.5 1.87524V2.25024H13.125C12.9 2.25024 12.75 2.40024 12.75 2.62524C12.75 2.85024 12.9 3.00024 13.125 3.00024H14.625C14.85 3.00024 15 2.85024 15 2.62524C15 2.40024 14.85 2.25024 14.625 2.25024H14.25V1.87524C14.25 0.825244 13.425 0.000244141 12.375 0.000244141C11.325 0.000244141 10.5 0.825244 10.5 1.87524V12.0002H5.25H3.75V1.87524C3.75 1.27524 4.275 0.750244 4.875 0.750244C5.475 0.750244 6 1.27524 6 1.87524V2.25024H5.625C5.4 2.25024 5.25 2.40024 5.25 2.62524C5.25 2.85024 5.4 3.00024 5.625 3.00024H7.125C7.35 3.00024 7.5 2.85024 7.5 2.62524C7.5 2.40024 7.35 2.25024 7.125 2.25024H6.75V1.87524C6.75 0.825244 5.925 0.000244141 4.875 0.000244141C3.825 0.000244141 3 0.825244 3 1.87524V12.0002H1.125C0.525 12.0002 0 12.5252 0 13.1252C0 13.7252 0.525 14.2502 1.125 14.2502H1.575C1.875 15.5252 3.075 16.5002 4.5 16.5002V16.8752C4.5 17.1002 4.65 17.2502 4.875 17.2502C5.1 17.2502 5.25 17.1002 5.25 16.8752V16.5002H12.75V16.8752C12.75 17.1002 12.9 17.2502 13.125 17.2502C13.35 17.2502 13.5 17.1002 13.5 16.8752V16.5002C14.925 16.5002 16.05 15.5252 16.425 14.2502H16.875C17.475 14.2502 18 13.7252 18 13.1252C18 12.5252 17.475 12.0002 16.875 12.0002H12.75H11.25V1.87524C11.25 1.27524 11.775 0.750244 12.375 0.750244C12.975 0.750244 13.5 1.27524 13.5 1.87524ZM3 12.7502H1.125C0.9 12.7502 0.75 12.9002 0.75 13.1252C0.75 13.3502 0.9 13.5002 1.125 13.5002H1.5H16.5H16.875C17.1 13.5002 17.25 13.3502 17.25 13.1252C17.25 12.9002 17.1 12.7502 16.875 12.7502H12.75H10.5H5.25H3ZM13.875 5.25024C14.2892 5.25024 14.625 4.91445 14.625 4.50024C14.625 4.08603 14.2892 3.75024 13.875 3.75024C13.4608 3.75024 13.125 4.08603 13.125 4.50024C13.125 4.91445 13.4608 5.25024 13.875 5.25024ZM14.625 6.75024C14.625 7.16446 14.2892 7.50024 13.875 7.50024C13.4608 7.50024 13.125 7.16446 13.125 6.75024C13.125 6.33603 13.4608 6.00024 13.875 6.00024C14.2892 6.00024 14.625 6.33603 14.625 6.75024ZM13.5 15.7502H4.5C3.525 15.7502 2.7 15.1502 2.4 14.2502H15.675C15.3 15.1502 14.475 15.7502 13.5 15.7502ZM6.375 7.50024C6.78922 7.50024 7.125 7.16446 7.125 6.75024C7.125 6.33603 6.78922 6.00024 6.375 6.00024C5.96079 6.00024 5.625 6.33603 5.625 6.75024C5.625 7.16446 5.96079 7.50024 6.375 7.50024ZM7.125 4.50024C7.125 4.91445 6.78922 5.25024 6.375 5.25024C5.96079 5.25024 5.625 4.91445 5.625 4.50024C5.625 4.08603 5.96079 3.75024 6.375 3.75024C6.78922 3.75024 7.125 4.08603 7.125 4.50024Z" fill="#333646"/>
</g>
<defs>
<clipPath id="clip0">
<rect width="18" height="18" fill="white" transform="translate(0 0.000244141)"/>
</clipPath>
</defs>
</svg>
