<svg width="18" height="18" viewBox="0 0 18 18" fill="none" xmlns="http://www.w3.org/2000/svg">
<path fill-rule="evenodd" clip-rule="evenodd" d="M13.125 0.375C13.125 0.167893 13.2929 0 13.5 0C13.7071 0 13.875 0.167893 13.875 0.375V3.75C13.875 3.75628 13.8748 3.76253 13.8745 3.76874C14.7316 3.85474 15.5372 4.23393 16.1516 4.84835C16.8549 5.55161 17.25 6.50544 17.25 7.5V7.8C17.25 8.04855 17.0485 8.25 16.8 8.25H10.2C9.95145 8.25 9.75 8.04855 9.75 7.8V7.5C9.75 6.50544 10.1451 5.55161 10.8484 4.84835C11.4628 4.23393 12.2684 3.85474 13.1255 3.76874C13.1252 3.76253 13.125 3.75628 13.125 3.75V0.375ZM7.15165 4.84835C7.8549 5.55161 8.25 6.50544 8.25 7.5V7.8C8.25 8.04855 8.04855 8.25 7.8 8.25H1.2C0.951473 8.25 0.75 8.04855 0.75 7.8V7.5C0.75 6.50544 1.14508 5.55161 1.84835 4.84835C2.46277 4.23393 3.26845 3.85474 4.12546 3.76874C4.12516 3.76253 4.125 3.75628 4.125 3.75V0.375C4.125 0.167893 4.2929 0 4.5 0C4.7071 0 4.875 0.167893 4.875 0.375V3.75C4.875 3.75628 4.87484 3.76253 4.87454 3.76874C5.73154 3.85474 6.53723 4.23393 7.15165 4.84835ZM1.50039 7.5C1.50039 6.70445 1.81643 5.94149 2.37896 5.37895C2.94149 4.81642 3.70445 4.50039 4.5 4.50039C5.29555 4.50039 6.05851 4.81642 6.62105 5.37895C7.18358 5.94149 7.49961 6.70445 7.49961 7.5H1.50039ZM10.5004 7.5C10.5004 6.70445 10.8164 5.94149 11.3789 5.37895C11.9415 4.81642 12.7045 4.50039 13.5 4.50039C14.2955 4.50039 15.0585 4.81642 15.6211 5.37895C16.1836 5.94149 16.4996 6.70445 16.4996 7.5H10.5004ZM3.84244 15.4226C3.60163 15.4226 3.40723 15.617 3.40723 15.8579V16.747C3.40723 16.9879 3.60163 17.1823 3.84244 17.1823C4.08327 17.1823 4.27767 16.9879 4.27767 16.747V15.8579C4.27767 15.617 4.08327 15.4226 3.84244 15.4226ZM6.00001 15.8579C6.00001 15.617 6.19441 15.4226 6.43523 15.4226C6.67606 15.4226 6.87046 15.617 6.87046 15.8579V16.747C6.87046 16.9879 6.67606 17.1823 6.43523 17.1823C6.19441 17.1823 6.00001 16.9879 6.00001 16.747V15.8579ZM2.55338 12.8804C2.31256 12.8804 2.11817 13.0748 2.11817 13.3156V14.2013C2.11817 14.4421 2.31256 14.6365 2.55338 14.6365C2.79421 14.6365 2.98861 14.4421 2.98861 14.2013V13.3156C2.98861 13.0748 2.79421 12.8804 2.55338 12.8804ZM4.70215 13.3156C4.70215 13.0748 4.89655 12.8804 5.13736 12.8804C5.37818 12.8804 5.57258 13.0748 5.57258 13.3156V14.2013C5.57258 14.4421 5.37818 14.6365 5.13736 14.6365C4.89655 14.6365 4.70215 14.4421 4.70215 14.2013V13.3156ZM7.72425 12.8804C7.48343 12.8804 7.28903 13.0748 7.28903 13.3156V14.2013C7.28903 14.4421 7.48343 14.6365 7.72425 14.6365C7.96508 14.6365 8.15948 14.4421 8.15948 14.2013V13.3156C8.15948 13.0751 7.96185 12.8804 7.72425 12.8804ZM0.82617 10.7675C0.82617 10.5267 1.02057 10.3323 1.26139 10.3323C1.50298 10.3323 1.69969 10.5272 1.69662 10.7667V11.6567C1.69662 11.8975 1.50221 12.092 1.26139 12.092C1.02057 12.092 0.82617 11.8975 0.82617 11.6567V10.7675ZM3.84244 10.3323C3.60163 10.3323 3.40723 10.5267 3.40723 10.7675V11.6567C3.40723 11.8975 3.60163 12.092 3.84244 12.092C4.08327 12.092 4.27767 11.8975 4.27767 11.6567V10.7675C4.27767 10.5267 4.08327 10.3323 3.84244 10.3323ZM6.00001 10.7675C6.00001 10.5267 6.19441 10.3323 6.43523 10.3323C6.67606 10.3323 6.87046 10.5267 6.87046 10.7675V11.6567C6.87046 11.8976 6.67606 12.092 6.43523 12.092C6.19441 12.092 6.00001 11.8976 6.00001 11.6567V10.7675ZM9.0075 10.3323H9.00892H9.01042C9.25125 10.3323 9.44565 10.5267 9.44565 10.7675V11.6567C9.44565 11.8976 9.25125 12.092 9.01042 12.092H9.00892H9.0075C8.76667 12.092 8.57228 11.8975 8.57228 11.6567V10.7675C8.57228 10.5267 8.76667 10.3323 9.0075 10.3323ZM11.5885 15.4226C11.3477 15.4226 11.1533 15.617 11.1533 15.8579V16.747C11.1533 16.9879 11.3477 17.1823 11.5885 17.1823C11.8294 17.1823 12.0238 16.9879 12.0238 16.747V15.8579C12.0238 15.617 11.8294 15.4226 11.5885 15.4226ZM13.7461 15.8579C13.7461 15.617 13.9405 15.4226 14.1813 15.4226C14.4221 15.4226 14.6165 15.617 14.6165 15.8579V16.747C14.6165 16.9879 14.4221 17.1823 14.1813 17.1823C13.9405 17.1823 13.7461 16.9879 13.7461 16.747V15.8579ZM10.2994 12.8804C10.0586 12.8804 9.86423 13.0748 9.86423 13.3156V14.2013C9.86423 14.4421 10.0586 14.6365 10.2994 14.6365C10.5403 14.6365 10.7347 14.4421 10.7347 14.2013V13.3156C10.7347 13.0748 10.5403 12.8804 10.2994 12.8804ZM12.4482 13.3156C12.4482 13.0748 12.6426 12.8804 12.8834 12.8804C13.1243 12.8804 13.3186 13.0748 13.3186 13.3156V14.2013C13.3186 14.4421 13.1243 14.6365 12.8834 14.6365C12.6426 14.6365 12.4482 14.4421 12.4482 14.2013V13.3156ZM15.4703 12.8804C15.2295 12.8804 15.0351 13.0748 15.0351 13.3156V14.2013C15.0351 14.4421 15.2295 14.6365 15.4703 14.6365C15.7112 14.6365 15.9056 14.4421 15.9056 14.2013V13.3156C15.9056 13.0751 15.7079 12.8804 15.4703 12.8804ZM11.5885 10.3323C11.3477 10.3323 11.1533 10.5267 11.1533 10.7675V11.6567C11.1533 11.8975 11.3477 12.092 11.5885 12.092C11.8294 12.092 12.0238 11.8975 12.0238 11.6567V10.7675C12.0238 10.5267 11.8294 10.3323 11.5885 10.3323ZM13.7461 10.7675C13.7461 10.5267 13.9405 10.3323 14.1813 10.3323C14.4221 10.3323 14.6165 10.5267 14.6165 10.7675V11.6567C14.6165 11.8976 14.4221 12.092 14.1813 12.092C13.9405 12.092 13.7461 11.8976 13.7461 11.6567V10.7675ZM16.7565 10.3323C16.5157 10.3323 16.3213 10.5267 16.3213 10.7675V11.6567C16.3213 11.8975 16.5157 12.092 16.7565 12.092C16.9973 12.092 17.1917 11.8976 17.1917 11.6567V10.7675C17.1917 10.5267 16.9973 10.3323 16.7565 10.3323Z" fill="#343747"/>
</svg>
