<svg width="14" height="14" viewBox="0 0 14 14" fill="none" xmlns="http://www.w3.org/2000/svg">
<g clip-path="url(#clip0)">
<path d="M9.06315 0C7.12061 0 5.53628 1.54576 5.4674 3.47176C3.18871 3.65912 1.40324 5.51073 1.33435 7.83901C1.3316 7.94371 1.33435 8.23854 1.72286 8.23854H9.97241C10.3554 8.23854 10.3637 7.94371 10.3609 7.83901C10.292 5.51348 8.51483 3.66739 6.24165 3.47451C6.31054 1.9756 7.5477 0.779768 9.06039 0.779768C10.6199 0.779768 11.8874 2.04723 11.8874 3.60677V13.6115C11.8874 13.8264 12.061 14 12.2759 14C12.4908 14 12.6644 13.8264 12.6644 13.6115V3.60402C12.6644 1.6174 11.0498 0 9.06315 0ZM9.55085 7.46152H2.14443C2.39241 5.62094 3.94919 4.23224 5.84764 4.23224C7.74608 4.23224 9.30286 5.62094 9.55085 7.46152Z" fill="black" stroke="white" stroke-width="0.1"/>
<path d="M4.84358 12.5283C4.62867 12.5283 4.45508 12.7019 4.45508 12.9168V13.6084C4.45508 13.8233 4.62867 13.9969 4.84358 13.9969C5.0585 13.9969 5.23209 13.8233 5.23209 13.6084V12.9168C5.23209 12.7019 5.0585 12.5283 4.84358 12.5283Z" fill="black" stroke="white" stroke-width="0.1"/>
<path d="M6.8553 12.5283C6.64038 12.5283 6.4668 12.7019 6.4668 12.9168V13.6084C6.4668 13.8233 6.64038 13.9969 6.8553 13.9969C7.07021 13.9969 7.24379 13.8233 7.24379 13.6084V12.9168C7.24379 12.7019 7.07021 12.5283 6.8553 12.5283Z" fill="black" stroke="white" stroke-width="0.1"/>
<path d="M3.83773 10.5503C3.62281 10.5503 3.44922 10.7239 3.44922 10.9388V11.6276C3.44922 11.8426 3.62281 12.0161 3.83773 12.0161C4.05264 12.0161 4.22623 11.8426 4.22623 11.6276V10.9388C4.22623 10.7239 4.05264 10.5503 3.83773 10.5503Z" fill="black" stroke="white" stroke-width="0.1"/>
<path d="M5.84944 10.5503C5.63453 10.5503 5.46094 10.7239 5.46094 10.9388V11.6276C5.46094 11.8426 5.63453 12.0161 5.84944 12.0161C6.06436 12.0161 6.23795 11.8426 6.23795 11.6276V10.9388C6.23795 10.7239 6.06436 10.5503 5.84944 10.5503Z" fill="black" stroke="white" stroke-width="0.1"/>
<path d="M7.86116 10.5503C7.64624 10.5503 7.47266 10.7239 7.47266 10.9388V11.6276C7.47266 11.8426 7.64624 12.0161 7.86116 12.0161C8.07608 12.0161 8.24967 11.8426 8.24967 11.6276V10.9388C8.24967 10.7239 8.07332 10.5503 7.86116 10.5503Z" fill="black" stroke="white" stroke-width="0.1"/>
<path d="M2.83187 8.56934C2.61695 8.56934 2.44336 8.74292 2.44336 8.95784V9.64944C2.44336 9.86436 2.61695 10.0379 2.83187 10.0379C3.04679 10.0379 3.22038 9.86436 3.22038 9.64944V8.95784C3.22313 8.74292 3.04679 8.56934 2.83187 8.56934Z" fill="black" stroke="white" stroke-width="0.1"/>
<path d="M4.84358 8.56934C4.62867 8.56934 4.45508 8.74292 4.45508 8.95784V9.64944C4.45508 9.86436 4.62867 10.0379 4.84358 10.0379C5.0585 10.0379 5.23209 9.86436 5.23209 9.64944V8.95784C5.23209 8.74292 5.0585 8.56934 4.84358 8.56934Z" fill="black" stroke="white" stroke-width="0.1"/>
<path d="M6.8553 8.56934C6.64038 8.56934 6.4668 8.74292 6.4668 8.95784V9.64944C6.4668 9.86436 6.64038 10.0379 6.8553 10.0379C7.07021 10.0379 7.24379 9.86436 7.24379 9.64944V8.95784C7.24379 8.74292 7.07021 8.56934 6.8553 8.56934Z" fill="black" stroke="white" stroke-width="0.1"/>
<path d="M8.86116 8.56934C8.64624 8.56934 8.47266 8.74292 8.47266 8.95784V9.64944C8.47266 9.86436 8.64624 10.0379 8.86116 10.0379C9.07608 10.0379 9.24967 9.86436 9.24967 9.64944V8.95784C9.24967 8.74292 9.07608 8.56934 8.86116 8.56934Z" fill="black" stroke="white" stroke-width="0.1"/>
</g>
<defs>
<clipPath id="clip0">
<rect width="14" height="14" fill="white"/>
</clipPath>
</defs>
</svg>
