<svg width="18" height="18" viewBox="0 0 18 18" fill="none" xmlns="http://www.w3.org/2000/svg">
<path fill-rule="evenodd" clip-rule="evenodd" d="M9 0C8.79292 0 8.625 0.167893 8.625 0.375V17.625C8.625 17.8321 8.79292 18 9 18C9.20708 18 9.375 17.8321 9.375 17.625V0.375C9.375 0.167893 9.20708 0 9 0ZM14.25 6C15.0785 6 15.75 5.32843 15.75 4.5C15.75 3.67157 15.0785 3 14.25 3C13.4215 3 12.75 3.67157 12.75 4.5C12.75 5.32843 13.4215 6 14.25 6ZM14.25 6.75C15.4927 6.75 16.5 5.74264 16.5 4.5C16.5 3.25736 15.4927 2.25 14.25 2.25C13.0073 2.25 12 3.25736 12 4.5C12 5.74264 13.0073 6.75 14.25 6.75ZM10.931 15.1972C10.9994 15.3077 11.12 15.375 11.25 15.375H17.25C17.38 15.375 17.5007 15.3077 17.569 15.1972C17.6373 15.0866 17.6435 14.9485 17.5854 14.8323L14.5854 8.8323C14.5219 8.70525 14.392 8.625 14.25 8.625C14.108 8.625 13.9781 8.70525 13.9146 8.8323L10.9146 14.8323C10.8565 14.9485 10.8627 15.0866 10.931 15.1972ZM11.8568 14.625L14.25 9.8385L16.6432 14.625H11.8568ZM3.75 6C4.57843 6 5.25 5.32843 5.25 4.5C5.25 3.67157 4.57843 3 3.75 3C2.92157 3 2.25 3.67157 2.25 4.5C2.25 5.32843 2.92157 6 3.75 6ZM3.75 6.75C4.99264 6.75 6 5.74264 6 4.5C6 3.25736 4.99264 2.25 3.75 2.25C2.50736 2.25 1.5 3.25736 1.5 4.5C1.5 5.74264 2.50736 6.75 3.75 6.75ZM0.75 8.625C0.620034 8.625 0.499333 8.69228 0.431006 8.80282C0.362679 8.91337 0.356467 9.05145 0.41459 9.1677L3.41459 15.1677C3.47811 15.2948 3.60796 15.375 3.75 15.375C3.89204 15.375 4.02189 15.2948 4.08541 15.1677L7.08541 9.1677C7.14353 9.05145 7.13732 8.91337 7.069 8.80282C7.00067 8.69228 6.87997 8.625 6.75 8.625H0.75ZM3.75 14.1615L1.35676 9.375H6.14324L3.75 14.1615Z" fill="#333646"/>
</svg>
