<svg width="18" height="18" viewBox="0 0 18 18" fill="none" xmlns="http://www.w3.org/2000/svg">
<g clip-path="url(#clip0)">
<path d="M17.604 12.2753C17.598 12.2528 17.5965 12.2295 17.586 12.2078L14.25 5.53577V1.125C14.25 0.504738 13.7453 0 13.125 0H4.87501C4.25475 0 3.75001 0.504738 3.75001 1.125V5.535L0.414 12.207C0.40275 12.2295 0.402012 12.2527 0.395262 12.276C0.15525 12.4823 0 12.7845 0 13.125V16.125V17.625C0 17.832 0.168012 18 0.375012 18H1.87502C2.08199 18 2.25 17.832 2.25 17.625V16.5H15.75V17.625C15.75 17.832 15.918 18 16.125 18H17.625C17.832 18 18 17.832 18 17.625V16.125V13.125C18 12.7845 17.8447 12.4823 17.604 12.2753ZM4.5 1.125C4.5 0.918 4.66875 0.749988 4.87501 0.749988H13.125C13.3313 0.749988 13.5 0.918 13.5 1.125V5.24999H12.3817L12.2332 4.50675C12.0593 3.63301 11.286 2.99925 10.395 2.99925H7.60426C6.71326 2.99925 5.94 3.63301 5.76601 4.50675L5.61751 5.24999H4.5V1.125ZM11.415 6.33825C11.2005 6.59999 10.8832 6.75 10.545 6.75H7.45425C7.11601 6.75 6.80024 6.59999 6.58501 6.33825C6.36975 6.07651 6.28502 5.73599 6.35175 5.4045L6.50176 4.65451C6.60677 4.13026 7.07027 3.75001 7.605 3.75001H10.395C10.9298 3.75001 11.3933 4.13026 11.4982 4.65451L11.6483 5.4045C11.7142 5.73599 11.6295 6.07651 11.415 6.33825ZM4.35674 6.00001H5.62423C5.68424 6.29402 5.80873 6.57376 6.00448 6.813C6.36223 7.25024 6.89098 7.49999 7.45499 7.49999H10.5457C11.1098 7.49999 11.6385 7.25024 11.9948 6.813C12.1905 6.57376 12.315 6.29399 12.375 6.00001H13.6433L16.6432 12H1.35675L4.35674 6.00001ZM1.50001 17.25H0.749988V16.5H1.49998V17.25H1.50001ZM17.25 17.25H16.5V16.5H17.25V17.25ZM17.25 15.75H0.749988V13.125C0.749988 12.918 0.918738 12.75 1.125 12.75H16.875C17.0813 12.75 17.25 12.918 17.25 13.125V15.75Z" fill="#333646"/>
</g>
<defs>
<clipPath id="clip0">
<rect width="18" height="18" fill="white"/>
</clipPath>
</defs>
</svg>
