<svg width="18" height="18" viewBox="0 0 18 18" fill="none" xmlns="http://www.w3.org/2000/svg">
<path fill-rule="evenodd" clip-rule="evenodd" d="M2.20981 3.20729C2.30248 3.3925 2.22746 3.61778 2.04225 3.71045C1.78906 3.83713 1.59063 4.10798 1.48463 4.46593C1.37892 4.82294 1.38274 5.21279 1.48036 5.50698C1.63245 5.96531 1.90218 6.26577 2.20522 6.60334C2.23782 6.63965 2.2708 6.67639 2.30406 6.7138C2.63842 7.08986 3.00113 7.53953 2.99995 8.25068C2.99895 8.8554 2.89788 9.29085 2.72531 9.63638C2.55689 9.97365 2.33218 10.198 2.1476 10.3823L2.13943 10.3904C1.99288 10.5368 1.75545 10.5366 1.6091 10.3901C1.46275 10.2435 1.46292 10.0061 1.60947 9.85973C1.7989 9.67058 1.94434 9.52155 2.05432 9.30128C2.16267 9.08438 2.24909 8.76975 2.24995 8.24948C2.25064 7.83563 2.06098 7.56915 1.74356 7.21214C1.71205 7.17669 1.6792 7.14034 1.64536 7.10289C1.34713 6.77284 0.97269 6.35844 0.768532 5.74319C0.617287 5.28738 0.62137 4.73973 0.765502 4.25299C0.909352 3.76719 1.21036 3.28804 1.70665 3.03972C1.89187 2.94704 2.11714 3.02207 2.20981 3.20729ZM16.4345 8.3406L12.094 10.0068L12.6315 11.4072L16.9721 9.741L16.4345 8.3406ZM11.8252 9.3066L11.125 9.5754L2.72278 12.8007L2.02259 13.0695L0.761707 13.5535C0.37606 13.7015 0.181738 14.1354 0.330299 14.5225L0.867855 15.9228C1.01641 16.3099 1.45116 16.5023 1.83681 16.3542L3.09769 15.8702L3.79788 15.6014L12.2001 12.3761L12.9003 12.1073L17.2409 10.4411C17.6265 10.2932 17.8208 9.8592 17.6723 9.4722L17.1347 8.0718C16.9861 7.6848 16.5514 7.49238 16.1658 7.6404L11.8252 9.3066ZM3.5291 14.9013L11.9313 11.6759L11.3938 10.2756L2.99155 13.5009L3.5291 14.9013ZM2.29136 13.7697L1.03048 14.2537L1.56804 15.6541L2.82892 15.17L2.29136 13.7697ZM1.29271 9.33548C1.47795 9.24285 1.55303 9.01763 1.46041 8.83238C1.36779 8.64713 1.14253 8.57205 0.957292 8.66468C0.788805 8.7489 0.55845 8.91225 0.366228 9.1467C0.171453 9.38438 0 9.71565 0 10.1251C0 10.7888 0.414305 11.182 0.703006 11.456C0.742463 11.4935 0.779572 11.5287 0.812962 11.5622C0.967447 11.7166 1.07357 11.8469 1.13242 11.9999C1.18794 12.1443 1.21468 12.3452 1.1362 12.6591C1.08596 12.86 1.20812 13.0637 1.40905 13.1139C1.60997 13.1642 1.81357 13.042 1.8638 12.8411C1.97282 12.4049 1.95268 12.0434 1.83243 11.7307C1.71549 11.4266 1.51693 11.2055 1.34329 11.0318C1.29597 10.9845 1.2512 10.9406 1.2091 10.8994C0.914385 10.6106 0.75 10.4494 0.75 10.1251C0.75 9.93458 0.828547 9.76583 0.946275 9.6222C1.06655 9.47543 1.2112 9.37628 1.29271 9.33548Z" fill="#333646"/>
</svg>
