<svg width="22" height="22" fill="none" xmlns="http://www.w3.org/2000/svg">
    <g clip-path="url(#a)">
        <path fill-rule="evenodd" clip-rule="evenodd" d="M20.825 9.297a.568.568 0 0 0 .146-.592.568.568 0 0 0-.467-.393l-5.327-.774a1.696 1.696 0 0 1-1.277-.929l-2.382-4.826A.569.569 0 0 0 11 1.461a.568.568 0 0 0-.518.322L8.101 6.609a1.697 1.697 0 0 1-1.278.929l-5.327.774a.569.569 0 0 0-.467.393.568.568 0 0 0 .146.592l3.854 3.757c.399.389.583.95.489 1.502l-.91 5.306a.545.545 0 0 0 .123.464l.001.002c.172.203.48.265.714.142l4.765-2.505a1.713 1.713 0 0 1 1.575-.002l.004.002 4.764 2.505c.091.048.18.069.269.069.166 0 .329-.074.445-.212l.001-.001a.545.545 0 0 0 .123-.463v-.002l-.91-5.305a1.697 1.697 0 0 1 .488-1.501l3.855-3.758Zm-3.358 5.09.91 5.305c.08.466-.041.921-.344 1.28-.303.36-.745.567-1.21.567-.256 0-.503-.062-.735-.184l-4.764-2.505a.713.713 0 0 0-.648 0l-4.764 2.505a1.594 1.594 0 0 1-1.945-.384 1.545 1.545 0 0 1-.344-1.279l.91-5.305a.698.698 0 0 0-.202-.617L.477 10.014a1.568 1.568 0 0 1-.399-1.618 1.568 1.568 0 0 1 1.274-1.074l5.327-.774a.697.697 0 0 0 .525-.38L9.585 1.34c.268-.542.81-.879 1.415-.879s1.148.337 1.415.88l2.382 4.826a.696.696 0 0 0 .524.381l5.327.774c.599.087 1.086.498 1.274 1.074a1.568 1.568 0 0 1-.4 1.617l-3.854 3.757a.697.697 0 0 0-.2.617Z" fill="#333646"/>
    </g>
    <defs>
        <clipPath id="a">
        <path fill="#fff" d="M0 0h22v22H0z"/>
    </clipPath>
    </defs>
</svg>