<svg width="22" height="22" viewBox="0 0 22 22" fill="none" xmlns="http://www.w3.org/2000/svg">
<g clip-path="url(#clip0)">
<path d="M21.5225 10.0132C21.9555 9.59114 22.1084 8.97176 21.9216 8.39598C21.7343 7.82021 21.2467 7.4092 20.6476 7.32198L15.3207 6.54797C15.0938 6.51493 14.8978 6.37264 14.7965 6.16691L12.415 1.34048C12.1476 0.798186 11.6048 0.461182 11 0.461182C10.3956 0.461182 9.85285 0.798186 9.58545 1.34048L7.20351 6.16735C7.10219 6.37308 6.90571 6.51537 6.67884 6.54841L1.35197 7.32242C0.753287 7.4092 0.265181 7.82065 0.0779565 8.39642C-0.108828 8.9722 0.0440358 9.59158 0.477075 10.0136L4.33126 13.7704C4.49558 13.9308 4.57091 14.1616 4.53214 14.3872L3.62289 19.692C3.54227 20.159 3.66474 20.6132 3.96694 20.9713C4.43655 21.5295 5.25637 21.6995 5.91188 21.355L10.6758 18.8502C10.8749 18.7458 11.1255 18.7466 11.3242 18.8502L16.0885 21.355C16.3202 21.477 16.5674 21.5387 16.8225 21.5387C17.2881 21.5387 17.7295 21.3317 18.033 20.9713C18.3357 20.6132 18.4577 20.1581 18.3771 19.692L17.4674 14.3872C17.4286 14.1612 17.504 13.9308 17.6683 13.7704L21.5225 10.0132Z" fill="#FFA801"/>
</g>
<defs>
<clipPath id="clip0">
<rect width="22" height="22" fill="white"/>
</clipPath>
</defs>
</svg>
