<svg width="18" height="18" viewBox="0 0 18 18" fill="none" xmlns="http://www.w3.org/2000/svg">
<path fill-rule="evenodd" clip-rule="evenodd" d="M7.49941 0.299805C6.52442 0.299805 5.77442 1.1248 5.77442 2.0248V11.9463C5.76639 11.9402 5.75836 11.9341 5.75032 11.928L5.75017 11.9278L5.74992 11.9277C5.09098 11.4259 4.36676 10.8745 3.375 10.8745C1.72231 10.8745 0.88044 11.7138 0.484835 12.1093C0.338388 12.2558 0.338388 12.4932 0.484835 12.6397C0.631282 12.7861 0.868718 12.7861 1.01516 12.6397L1.01724 12.6376C1.37213 12.2827 2.03032 11.6245 3.375 11.6245C4.10223 11.6245 4.62405 12.0183 5.32317 12.546C5.37884 12.588 5.43564 12.6309 5.49375 12.6745C6.25964 13.2489 7.18624 13.8745 8.625 13.8745C10.2319 13.8745 11.3369 13.2664 12.2471 12.6915C12.3583 12.6213 12.465 12.5527 12.5683 12.4862L12.5687 12.486C12.8949 12.2762 13.188 12.0876 13.4879 11.9355C13.8728 11.7404 14.2352 11.6245 14.625 11.6245C15.2755 11.6245 15.761 11.8671 16.0875 12.112C16.2514 12.2349 16.3738 12.3575 16.4541 12.4479C16.4942 12.4929 16.5233 12.5295 16.5415 12.5535C16.5507 12.5654 16.557 12.5742 16.5606 12.5792L16.5632 12.5828L16.5633 12.583L16.5634 12.5831L16.5639 12.5839C16.6792 12.7551 16.9111 12.8011 17.083 12.6865C17.2553 12.5716 17.3019 12.3388 17.187 12.1665L16.875 12.3745C17.187 12.1665 17.1869 12.1664 17.1868 12.1662L17.1866 12.1659L17.1861 12.1652L17.185 12.1634L17.1818 12.1587L17.1719 12.1446C17.1637 12.1331 17.1524 12.1177 17.1381 12.0989C17.1095 12.0613 17.0683 12.01 17.0146 11.9496C16.9075 11.829 16.7486 11.6704 16.5375 11.512C16.114 11.1945 15.4745 10.8745 14.625 10.8745C14.0773 10.8745 13.596 11.0399 13.1488 11.2666C12.8112 11.4378 12.4735 11.6551 12.1399 11.8698C12.093 11.9001 12.0462 11.9302 11.9994 11.9601V2.0998C11.9994 1.5748 12.4494 1.1248 12.9744 1.1248C13.4994 1.1248 13.9494 1.5748 13.9494 2.0998C13.9494 2.3248 14.0994 2.4748 14.3244 2.4748C14.5494 2.4748 14.6994 2.3248 14.6994 2.0998C14.6994 1.1248 13.8744 0.374805 12.9744 0.374805C12.0744 0.374805 11.2494 1.1248 11.2494 2.0998V4.4998H6.44942V2.0998C6.44942 1.4998 6.89942 1.0498 7.49941 1.0498C8.0994 1.0498 8.4744 1.4998 8.4744 2.0248C8.4744 2.2498 8.6244 2.3998 8.8494 2.3998C9.0744 2.3998 9.2244 2.2498 9.2244 2.0248C9.2244 1.1248 8.4744 0.299805 7.49941 0.299805ZM11.2494 12.4139V9.37481H6.44942V12.4343C7.04294 12.825 7.70648 13.1245 8.625 13.1245C9.70852 13.1245 10.5286 12.8118 11.2494 12.4139ZM11.2494 5.2498V8.62481H6.44942V5.2498H11.2494ZM1.01724 16.3876L1.01516 16.3897C0.868718 16.5361 0.631282 16.5361 0.484835 16.3897C0.338388 16.2432 0.338388 16.0058 0.484835 15.8593C0.88044 15.4638 1.72231 14.6245 3.375 14.6245C4.36676 14.6245 5.09098 15.1759 5.74992 15.6777C5.8151 15.7273 5.87965 15.7764 5.94375 15.8245C6.67786 16.3751 7.43876 16.8745 8.625 16.8745C10.0181 16.8745 10.9756 16.3576 11.8466 15.8075C11.944 15.746 12.0418 15.6831 12.1399 15.6198H12.14C12.4735 15.4051 12.8112 15.1878 13.1488 15.0166C13.596 14.7899 14.0773 14.6245 14.625 14.6245C15.4745 14.6245 16.114 14.9445 16.5375 15.262C16.7486 15.4204 16.9075 15.579 17.0146 15.6996C17.0683 15.76 17.1095 15.8113 17.1381 15.8489C17.1524 15.8677 17.1637 15.8831 17.1719 15.8946L17.1818 15.9087L17.185 15.9134L17.1861 15.9152L17.1866 15.9159L17.1868 15.9162C17.1869 15.9164 17.187 15.9165 16.875 16.1245L17.187 15.9165C17.3019 16.0888 17.2553 16.3216 17.083 16.4365C16.9111 16.5511 16.6792 16.5051 16.5639 16.3339L16.5634 16.3331L16.5633 16.333L16.5632 16.3328L16.5606 16.3292C16.557 16.3242 16.5507 16.3154 16.5415 16.3035C16.5233 16.2795 16.4942 16.2429 16.4541 16.1979C16.3738 16.1075 16.2514 15.9849 16.0875 15.862C15.761 15.6171 15.2755 15.3745 14.625 15.3745C14.2352 15.3745 13.8728 15.4904 13.4879 15.6855C13.188 15.8376 12.8949 16.0262 12.5687 16.236L12.5683 16.2362C12.465 16.3027 12.3583 16.3713 12.2471 16.4415C11.3369 17.0164 10.2319 17.6245 8.625 17.6245C7.18624 17.6245 6.25964 16.9989 5.49375 16.4245C5.43564 16.3809 5.37884 16.338 5.32317 16.296C4.62405 15.7683 4.10223 15.3745 3.375 15.3745C2.03032 15.3745 1.37213 16.0327 1.01724 16.3876Z" fill="#333646"/>
</svg>
