<svg width="18" height="18" viewBox="0 0 18 18" fill="none" xmlns="http://www.w3.org/2000/svg">
<path d="M17.1965 3H0.803417C0.358974 3 0 3.36712 0 3.81199V14.938C0 15.3872 0.363247 15.75 0.803417 15.75H17.1965C17.641 15.75 18 15.3829 18 14.938V3.81199C18.0042 3.3628 17.641 3 17.1965 3ZM9.3846 7.91082C10.0256 8.08359 10.5 8.6753 10.5 9.375C10.5 10.0747 10.0256 10.6664 9.3846 10.8392V7.91082ZM0.769229 6.26524H4.30768V12.4891H0.769229V6.26524ZM8.61537 10.8392C8.33759 10.7658 8.08118 10.6103 7.8846 10.39C7.63674 10.1136 7.49998 9.75076 7.49998 9.375C7.49998 8.6753 7.97434 8.08359 8.61537 7.91082V10.8392ZM8.61537 7.11611C7.54699 7.30183 6.73076 8.24339 6.73076 9.375C6.73076 9.9408 6.93588 10.485 7.31195 10.9083C7.65383 11.2927 8.11537 11.5475 8.61109 11.6339V14.9769H6.79486H0.803417C0.786323 14.9769 0.769229 14.9596 0.769229 14.9423V13.2665H4.44871C4.79486 13.2665 5.08119 12.9815 5.08119 12.6273V6.12271C5.08119 5.77287 4.79914 5.48349 4.44871 5.48349H0.769229V3.81199C0.769229 3.79472 0.786323 3.77744 0.803417 3.77744H8.61537V7.11611ZM17.235 12.4891H13.6966V6.26524H17.235V12.4891ZM17.235 5.4878H13.5555C13.2094 5.4878 12.9231 5.77287 12.9231 6.12703V12.6316C12.9231 12.9815 13.2051 13.2708 13.5555 13.2708H17.235V14.9466C17.235 14.9639 17.2179 14.9812 17.2008 14.9812H15.6068H9.3846V11.6425C10.453 11.4568 11.2692 10.5152 11.2692 9.38364C11.2692 8.25203 10.453 7.31047 9.3846 7.12475V3.77744H17.1965C17.2136 3.77744 17.2307 3.79472 17.2307 3.81199L17.235 5.4878Z" fill="#333646"/>
</svg>
