<svg width="18" height="18" viewBox="0 0 18 18" fill="none" xmlns="http://www.w3.org/2000/svg">
<path fill-rule="evenodd" clip-rule="evenodd" d="M10.061 3.75H15.814C15.7726 3.86729 15.75 3.99351 15.75 4.125C15.75 4.74632 16.2537 5.25 16.875 5.25C17.0065 5.25 17.1327 5.22744 17.25 5.18599V13.564C17.1327 13.5226 17.0065 13.5 16.875 13.5C16.2537 13.5 15.75 14.0037 15.75 14.625C15.75 14.7565 15.7726 14.8827 15.814 15H10.061C10.1024 14.8827 10.125 14.7565 10.125 14.625C10.125 14.0037 9.6213 13.5 9 13.5C8.3787 13.5 7.875 14.0037 7.875 14.625C7.875 14.7565 7.89757 14.8827 7.93905 15H2.18599C2.22744 14.8827 2.25 14.7565 2.25 14.625C2.25 14.0037 1.74632 13.5 1.125 13.5C0.99351 13.5 0.867293 13.5226 0.75 13.564V5.18599C0.867293 5.22744 0.99351 5.25 1.125 5.25C1.74632 5.25 2.25 4.74632 2.25 4.125C2.25 3.99351 2.22744 3.86729 2.18599 3.75H7.93905C7.89757 3.86729 7.875 3.99351 7.875 4.125C7.875 4.74632 8.3787 5.25 9 5.25C9.6213 5.25 10.125 4.74632 10.125 4.125C10.125 3.99351 10.1024 3.86729 10.061 3.75ZM0 14.625V4.125C0 3.50368 0.50368 3 1.125 3H9H16.875C17.4963 3 18 3.50368 18 4.125V14.625C18 15.2463 17.4963 15.75 16.875 15.75H9H1.125C0.50368 15.75 0 15.2463 0 14.625ZM1.125 4.5C0.917895 4.5 0.75 4.33211 0.75 4.125C0.75 3.9179 0.917895 3.75 1.125 3.75C1.33211 3.75 1.5 3.9179 1.5 4.125C1.5 4.33211 1.33211 4.5 1.125 4.5ZM9 3.75C8.79292 3.75 8.625 3.9179 8.625 4.125C8.625 4.33211 8.79292 4.5 9 4.5C9.20708 4.5 9.375 4.33211 9.375 4.125C9.375 3.9179 9.20708 3.75 9 3.75ZM16.5 4.125C16.5 3.9179 16.6679 3.75 16.875 3.75C17.0821 3.75 17.25 3.9179 17.25 4.125C17.25 4.33211 17.0821 4.5 16.875 4.5C16.6679 4.5 16.5 4.33211 16.5 4.125ZM0.75 14.625C0.75 14.8321 0.917895 15 1.125 15C1.33211 15 1.5 14.8321 1.5 14.625C1.5 14.4179 1.33211 14.25 1.125 14.25C0.917895 14.25 0.75 14.4179 0.75 14.625ZM9.375 14.625C9.375 14.8321 9.20708 15 9 15C8.79292 15 8.625 14.8321 8.625 14.625C8.625 14.4179 8.79292 14.25 9 14.25C9.20708 14.25 9.375 14.4179 9.375 14.625ZM16.875 15C17.0821 15 17.25 14.8321 17.25 14.625C17.25 14.4179 17.0821 14.25 16.875 14.25C16.6679 14.25 16.5 14.4179 16.5 14.625C16.5 14.8321 16.6679 15 16.875 15ZM14.625 9.375C14.625 9.58208 14.4571 9.75 14.25 9.75C14.0429 9.75 13.875 9.58208 13.875 9.375C13.875 9.16792 14.0429 9 14.25 9C14.4571 9 14.625 9.16792 14.625 9.375ZM15.375 9.375C15.375 9.9963 14.8713 10.5 14.25 10.5C13.6287 10.5 13.125 9.9963 13.125 9.375C13.125 8.7537 13.6287 8.25 14.25 8.25C14.8713 8.25 15.375 8.7537 15.375 9.375ZM9 9.75C9.20708 9.75 9.375 9.58208 9.375 9.375C9.375 9.16792 9.20708 9 9 9C8.79292 9 8.625 9.16792 8.625 9.375C8.625 9.58208 8.79292 9.75 9 9.75ZM9 10.5C9.6213 10.5 10.125 9.9963 10.125 9.375C10.125 8.7537 9.6213 8.25 9 8.25C8.3787 8.25 7.875 8.7537 7.875 9.375C7.875 9.9963 8.3787 10.5 9 10.5ZM7.125 10.5C7.125 10.7071 6.95711 10.875 6.75 10.875C6.54289 10.875 6.375 10.7071 6.375 10.5C6.375 10.2929 6.54289 10.125 6.75 10.125C6.95711 10.125 7.125 10.2929 7.125 10.5ZM7.875 10.5C7.875 11.1213 7.37132 11.625 6.75 11.625C6.12868 11.625 5.625 11.1213 5.625 10.5C5.625 9.8787 6.12868 9.375 6.75 9.375C7.37132 9.375 7.875 9.8787 7.875 10.5ZM7.875 8.25C7.875 8.8713 7.37132 9.375 6.75 9.375C6.12868 9.375 5.625 8.8713 5.625 8.25C5.625 7.6287 6.12868 7.125 6.75 7.125C7.37132 7.125 7.875 7.6287 7.875 8.25ZM6.75 8.625C6.95711 8.625 7.125 8.45708 7.125 8.25C7.125 8.04292 6.95711 7.875 6.75 7.875C6.54289 7.875 6.375 8.04292 6.375 8.25C6.375 8.45708 6.54289 8.625 6.75 8.625ZM4.875 11.625C4.875 11.8321 4.70711 12 4.5 12C4.29289 12 4.125 11.8321 4.125 11.625C4.125 11.4179 4.29289 11.25 4.5 11.25C4.70711 11.25 4.875 11.4179 4.875 11.625ZM5.625 11.625C5.625 12.2463 5.12132 12.75 4.5 12.75C3.87868 12.75 3.375 12.2463 3.375 11.625C3.375 11.0037 3.87868 10.5 4.5 10.5C5.12132 10.5 5.625 11.0037 5.625 11.625ZM4.5 8.25C3.87868 8.25 3.375 8.7537 3.375 9.375C3.375 9.9963 3.87868 10.5 4.5 10.5C5.12132 10.5 5.625 9.9963 5.625 9.375C5.625 8.7537 5.12132 8.25 4.5 8.25ZM4.5 8.25C3.87868 8.25 3.375 7.7463 3.375 7.125C3.375 6.50368 3.87868 6 4.5 6C5.12132 6 5.625 6.50368 5.625 7.125C5.625 7.7463 5.12132 8.25 4.5 8.25ZM4.5 9.75C4.70711 9.75 4.875 9.58208 4.875 9.375C4.875 9.16792 4.70711 9 4.5 9C4.29289 9 4.125 9.16792 4.125 9.375C4.125 9.58208 4.29289 9.75 4.5 9.75ZM4.875 7.125C4.875 7.33211 4.70711 7.5 4.5 7.5C4.29289 7.5 4.125 7.33211 4.125 7.125C4.125 6.9179 4.29289 6.75 4.5 6.75C4.70711 6.75 4.875 6.9179 4.875 7.125Z" fill="#333646"/>
</svg>
