<svg width="18" height="18" viewBox="0 0 18 18" fill="none" xmlns="http://www.w3.org/2000/svg">
<path fill-rule="evenodd" clip-rule="evenodd" d="M8.62792 0.618617C8.62792 0.421975 8.80283 0.24707 8.99948 0.24707C9.19613 0.24707 9.37103 0.421976 9.37103 0.618617V2.45195C9.37103 2.64859 9.19613 2.82349 8.99948 2.82349C8.80283 2.82349 8.62792 2.64859 8.62792 2.45195V0.618617ZM5.98602 5.98119C6.74901 5.19575 7.82783 4.7229 8.99895 4.7229C10.1672 4.7229 11.2482 5.21751 12.0144 5.98374V5.98376L12.017 5.98626C12.8024 6.74926 13.2753 7.82809 13.2753 8.99921C13.2753 10.1673 12.7807 11.2485 12.0144 12.0147L12.0119 12.0172C11.249 12.8027 10.1701 13.2755 8.99895 13.2755C7.83083 13.2755 6.74973 12.7809 5.9835 12.0147C5.21726 11.2485 4.72266 10.1673 4.72266 8.99921C4.72266 7.83101 5.21726 6.74998 5.9835 5.98374L5.98352 5.98376L5.98602 5.98119ZM8.99895 5.466C8.02875 5.466 7.13243 5.84907 6.49063 6.49087C5.84882 7.13266 5.46575 8.02901 5.46575 8.99921C5.46575 9.96941 5.84882 10.8657 6.49063 11.5076C7.13243 12.1494 8.02875 12.5324 8.99895 12.5324C9.96915 12.5324 10.8655 12.1494 11.5073 11.5076C12.1491 10.8657 12.5322 9.96941 12.5322 8.99921C12.5322 8.02901 12.1491 7.13266 11.5073 6.49087C10.8655 5.84907 9.96915 5.466 8.99895 5.466ZM15.1729 8.99974C15.1729 8.80309 15.3478 8.62819 15.5444 8.62819H17.3777C17.5744 8.62819 17.7493 8.80309 17.7493 8.99974C17.7493 9.19639 17.5744 9.37129 17.3777 9.37129H15.5444C15.3478 9.37129 15.1729 9.19639 15.1729 8.99974ZM8.99948 15.1761C8.80283 15.1761 8.62792 15.351 8.62792 15.5475V17.3809C8.62792 17.5776 8.80283 17.7525 8.99948 17.7525C9.19613 17.7525 9.37103 17.5776 9.37103 17.3809V15.5475C9.37103 15.351 9.19613 15.1761 8.99948 15.1761ZM15.206 2.81701C15.0645 2.67558 14.8403 2.67558 14.6988 2.81701L13.3893 4.12654C13.2479 4.26798 13.2479 4.49223 13.3893 4.63366L13.3939 4.63827L13.3982 4.64311C13.5094 4.76655 13.7495 4.78051 13.8964 4.63366L15.206 3.32414C15.3474 3.1827 15.3474 2.95846 15.206 2.81701ZM0.246094 8.99974C0.246094 8.80309 0.420998 8.62819 0.617641 8.62819H2.45097C2.64761 8.62819 2.82252 8.80309 2.82252 8.99974C2.82252 9.19639 2.64761 9.37129 2.45097 9.37129H0.617641C0.40337 9.37129 0.246094 9.20261 0.246094 8.99974ZM4.6003 13.3559C4.4892 13.2325 4.24898 13.2185 4.10213 13.3653L2.7926 14.6749C2.65116 14.8164 2.65116 15.0405 2.7926 15.182C2.93405 15.3234 3.15829 15.3234 3.29973 15.182L4.60925 13.8725C4.7507 13.731 4.7507 13.5068 4.60925 13.3653L4.60465 13.3608L4.6003 13.3559ZM2.7926 2.81701C2.93405 2.67558 3.15829 2.67558 3.29973 2.81701L4.60925 4.12654C4.7507 4.26798 4.7507 4.49223 4.60925 4.63366C4.46781 4.77511 4.24357 4.77511 4.10213 4.63366L2.7926 3.32414C2.65116 3.1827 2.65116 2.95846 2.7926 2.81701ZM13.8611 13.3559C13.75 13.2325 13.5098 13.2185 13.3629 13.3653C13.2215 13.5068 13.2215 13.731 13.3629 13.8725L14.6725 15.182C14.8139 15.3234 15.0381 15.3234 15.1796 15.182C15.321 15.0405 15.321 14.8164 15.1796 14.6749L13.8655 13.3608L13.8611 13.3559Z" fill="#333646"/>
</svg>
