<svg width="18" height="18" viewBox="0 0 18 18" fill="none" xmlns="http://www.w3.org/2000/svg">
<path fill-rule="evenodd" clip-rule="evenodd" d="M1.5 0.75H4.5C4.91421 0.75 5.25 1.08579 5.25 1.5V1.875H0.75V1.5C0.75 1.08579 1.08579 0.75 1.5 0.75ZM6 2.625V1.875V1.5C6 0.671573 5.32843 0 4.5 0H1.5C0.671573 0 0 0.671572 0 1.5V1.875V2.625V9C0 9.41422 0.335786 9.75 0.75 9.75H2.625V11.625C2.625 12.6605 3.46447 13.5 4.5 13.5V17.625C4.5 17.8321 4.66789 18 4.875 18H10.875H11.25C11.4571 18 11.625 17.8321 11.625 17.625V14.6152C13.4844 14.5166 14.7029 13.6846 15.4544 12.641C16.1351 11.6954 16.4206 10.5947 16.4852 9.75H16.875C17.4963 9.75 18 9.2463 18 8.625C18 8.0037 17.4963 7.5 16.875 7.5H6V2.625ZM6 8.25V9H16.5H16.875C17.0821 9 17.25 8.83208 17.25 8.625C17.25 8.41792 17.0821 8.25 16.875 8.25H6ZM5.25 7.5V2.625H0.75V9H2.625H5.25V7.5ZM5.25 9.75H3.375V11.625C3.375 12.2463 3.87868 12.75 4.5 12.75H5.25V17.25H10.875V14.625H9.0003C8.7933 14.625 8.62545 14.4573 8.6253 14.2503C8.62515 14.0431 8.79307 13.875 9.0003 13.875H11.25C13.0778 13.875 14.1839 13.1219 14.8457 12.2027C15.4166 11.4098 15.6684 10.4748 15.7327 9.75H5.25Z" fill="#333646"/>
</svg>
