<svg width="18" height="18" viewBox="0 0 18 18" fill="none" xmlns="http://www.w3.org/2000/svg">
<path d="M17.4076 3.96163C16.9672 3.12514 16.1387 2.625 15.193 2.625H7.9209C7.00798 2.625 6.13508 3.01522 5.50755 3.71773L1.00479 9.61461C0.503218 10.2444 0.226562 11.035 0.226562 11.8402V12.4997C0.226562 12.5092 0.226562 12.5187 0.227279 12.5281C0.267308 13.8982 1.39427 15.0012 2.77457 15.0012H10.0547C10.1027 15.0012 10.1486 14.9917 10.1916 14.9743C11.0914 14.8585 11.9068 14.3656 12.4287 13.6071L17.2554 6.54318C17.7905 5.7642 17.848 4.79811 17.4076 3.96163ZM16.6548 6.13184L11.8281 13.1957C11.3644 13.8706 10.5985 14.2731 9.77951 14.2731H2.77461C1.77142 14.2731 0.954595 13.4563 0.954595 12.4531C0.954595 11.4499 1.77142 10.6331 2.77461 10.6338H9.3267C9.92877 10.6338 10.4187 11.1238 10.4187 11.7259C10.4187 12.3279 9.92877 12.8179 9.3267 12.8179H2.77461C2.57368 12.8179 2.41059 12.6548 2.41059 12.4539C2.41059 12.2529 2.57368 12.0898 2.77461 12.0898H9.3267C9.52763 12.0898 9.69071 11.9267 9.69071 11.7258C9.69071 11.5249 9.52763 11.3618 9.3267 11.3618H2.77461C2.17253 11.3618 1.68259 11.8517 1.68259 12.4538C1.68259 13.0559 2.17253 13.5458 2.77461 13.5458H9.3267C10.3299 13.5458 11.1467 12.729 11.1467 11.7258C11.1467 10.7226 10.3299 9.9058 9.3267 9.9058H2.77461C2.27081 9.9058 1.80053 10.0521 1.40522 10.3055C1.45836 10.2218 1.51661 10.141 1.57923 10.0623L6.06884 4.1815C6.54059 3.65515 7.21546 3.35303 7.92162 3.35303H15.1937C15.8642 3.35303 16.451 3.70756 16.7633 4.3009C17.0756 4.89424 17.0349 5.57856 16.6548 6.13184Z" fill="#333646"/>
</svg>
