<svg width="18" height="18" viewBox="0 0 18 18" fill="none" xmlns="http://www.w3.org/2000/svg">
<path d="M17.55 3.0752H6.225C6 3.0752 5.85 3.2252 5.85 3.4502V5.2502H3.15C3 5.2502 2.925 5.32519 2.85 5.40019L1.05 7.95019L0.375 8.92519L0.15 9.30019C0 9.37519 0 9.45019 0 9.52519V12.6752C0 12.7502 0 12.9002 0.075 12.9752C0.15 13.0502 0.225 13.1252 0.375 13.1252H1.35C1.5 14.1002 2.25 14.7755 3.3 14.7755C4.275 14.7755 5.175 14.1002 5.325 13.1252H11.55C11.7 14.1002 12.525 14.7755 13.575 14.7755C14.55 14.7755 15.45 14.1002 15.6 13.1252H17.775C18 13.1255 18 13.1255 18 12.7502V3.4502C18 3.37549 17.9414 3.0752 17.55 3.0752ZM13.575 13.9502C12.9 13.9502 12.3 13.3502 12.3 12.6752C12.3 12.0002 12.9 11.4002 13.575 11.4002C14.25 11.4002 14.85 12.0002 14.85 12.6752C14.85 13.4252 14.25 13.9502 13.575 13.9502ZM8.025 9.97519C8.025 10.2002 8.175 10.3502 8.4 10.3502H17.25V12.3752H15.6C15.45 11.4002 14.625 10.6502 13.575 10.6502C12.6 10.6502 11.7 11.4002 11.55 12.3752H6.6V5.32519H8.925C9.15 5.32519 9.3 5.17519 9.3 4.9502C9.3 4.7252 9.15 4.57519 8.925 4.57519H6.6V3.8252H17.175V9.60019H8.325C8.175 9.60019 8.025 9.7502 8.025 9.97519ZM3.3 13.9502C2.625 13.9502 2.025 13.3502 2.025 12.6752C2.025 12.0002 2.625 11.4002 3.3 11.4002C3.975 11.4002 4.575 12.0002 4.575 12.6752C4.575 13.4252 4.05 13.9502 3.3 13.9502ZM5.175 9.15019V6.75019C5.175 6.52519 5.025 6.37519 4.8 6.37519H3.075L3.3 6.0002H5.85V12.3752H5.325C5.175 11.4002 4.35 10.6502 3.3 10.6502C2.325 10.6502 1.425 11.4002 1.275 12.3752H0.75V9.67519L0.825 9.60019H4.8C5.025 9.52519 5.175 9.37519 5.175 9.15019ZM1.35 8.77519L2.55 7.12519H4.425V8.77519H1.35Z" fill="#333646"/>
</svg>
