<svg width="14" height="14" viewBox="0 0 14 14" fill="none" xmlns="http://www.w3.org/2000/svg">
<g clip-path="url(#clip0)">
<path fill-rule="evenodd" clip-rule="evenodd" d="M12.5417 3.5001H7.25083L9.28667 0.455099C9.31212 0.423494 9.33071 0.386925 9.34122 0.347729C9.35174 0.308533 9.35396 0.267573 9.34775 0.227469C9.34154 0.187365 9.32702 0.149 9.30513 0.114826C9.28324 0.0806516 9.25446 0.0514214 9.22063 0.0290044C9.1868 0.00658729 9.14867 -0.00852334 9.10867 -0.0153612C9.06867 -0.0221991 9.02768 -0.0206138 8.98832 -0.0107066C8.94897 -0.000799419 8.91211 0.0172116 8.88012 0.0421746C8.84812 0.0671376 8.82168 0.0985033 8.8025 0.134266L6.55083 3.5001H5.11583L2.87 0.128432C2.82441 0.0718371 2.75934 0.034299 2.68752 0.0231699C2.61571 0.0120408 2.54233 0.0281224 2.48175 0.0682651C2.42117 0.108408 2.37776 0.16972 2.36002 0.240193C2.34227 0.310667 2.35148 0.385225 2.38583 0.449266L4.41583 3.5001H1.45833C1.07156 3.5001 0.700626 3.65374 0.427136 3.92724C0.153645 4.20073 0 4.57166 0 4.95843L0 12.5418C0 13.3526 0.653333 14.0001 1.45833 14.0001H12.5417C13.3467 14.0001 14 13.3468 14 12.5418V4.95843C14 4.15343 13.3467 3.5001 12.5417 3.5001ZM13.4167 12.5418C13.4167 13.0259 13.02 13.4168 12.5417 13.4168H1.45833C0.974167 13.4168 0.583333 13.0259 0.583333 12.5418V4.95843C0.583333 4.47427 0.98 4.08343 1.45833 4.08343H12.5417C13.0258 4.08343 13.4167 4.47427 13.4167 4.95843V12.5418ZM9.63083 5.2501H3.2025C2.81727 5.2501 2.44782 5.40313 2.17543 5.67553C1.90303 5.94792 1.75 6.31737 1.75 6.7026V10.7976C1.75154 11.1824 1.90506 11.5509 2.17712 11.823C2.44919 12.095 2.81775 12.2486 3.2025 12.2501H9.63083C9.82158 12.2501 10.0105 12.2125 10.1867 12.1395C10.3629 12.0665 10.523 11.9595 10.6579 11.8247C10.7928 11.6898 10.8998 11.5297 10.9728 11.3534C11.0458 11.1772 11.0833 10.9883 11.0833 10.7976V6.7026C11.0818 6.31784 10.9283 5.94929 10.6562 5.67722C10.3841 5.40516 10.0156 5.25164 9.63083 5.2501ZM10.5 10.7976C10.5 11.2759 10.1092 11.6668 9.63083 11.6668H3.2025C2.72417 11.6668 2.33333 11.2759 2.33333 10.7976V6.7026C2.33333 6.22427 2.72417 5.83343 3.2025 5.83343H9.63083C10.1092 5.83343 10.5 6.22427 10.5 6.7026V10.7976ZM12.8333 5.83343C12.8333 5.98814 12.7719 6.13652 12.6625 6.24591C12.5531 6.35531 12.4047 6.41677 12.25 6.41677C12.0953 6.41677 11.9469 6.35531 11.8375 6.24591C11.7281 6.13652 11.6667 5.98814 11.6667 5.83343C11.6667 5.67872 11.7281 5.53035 11.8375 5.42095C11.9469 5.31156 12.0953 5.2501 12.25 5.2501C12.4047 5.2501 12.5531 5.31156 12.6625 5.42095C12.7719 5.53035 12.8333 5.67872 12.8333 5.83343ZM12.8333 7.58343C12.8333 7.73814 12.7719 7.88652 12.6625 7.99591C12.5531 8.10531 12.4047 8.16677 12.25 8.16677C12.0953 8.16677 11.9469 8.10531 11.8375 7.99591C11.7281 7.88652 11.6667 7.73814 11.6667 7.58343C11.6667 7.42872 11.7281 7.28035 11.8375 7.17095C11.9469 7.06156 12.0953 7.0001 12.25 7.0001C12.4047 7.0001 12.5531 7.06156 12.6625 7.17095C12.7719 7.28035 12.8333 7.42872 12.8333 7.58343Z" fill="black"/>
</g>
<defs>
<clipPath id="clip0">
<rect width="14" height="14" fill="white"/>
</clipPath>
</defs>
</svg>
