<svg width="14" height="14" viewBox="0 0 14 14" fill="none" xmlns="http://www.w3.org/2000/svg">
<path d="M8.39805 8.2998C8.39805 7.41615 9.11439 6.6998 9.99805 6.6998H11.998C12.8817 6.6998 13.598 7.41615 13.598 8.2998V11.7998C13.598 12.1312 13.3294 12.3998 12.998 12.3998H8.99805C8.66668 12.3998 8.39805 12.1312 8.39805 11.7998V8.2998Z" stroke="#7A8793" stroke-width="0.8"/>
<circle cx="10.9973" cy="3.6999" r="1.9" stroke="#7A8793" stroke-width="0.8"/>
<path d="M1.39805 8.2998C1.39805 7.41615 2.11439 6.6998 2.99805 6.6998H4.99805C5.8817 6.6998 6.59805 7.41615 6.59805 8.2998V11.7998C6.59805 12.1312 6.32942 12.3998 5.99805 12.3998H1.99805C1.66668 12.3998 1.39805 12.1312 1.39805 11.7998V8.2998Z" stroke="#7A8793" stroke-width="0.8"/>
<circle cx="3.99727" cy="3.6999" r="1.9" stroke="#7A8793" stroke-width="0.8"/>
</svg>
