<svg width="14" height="14" viewBox="0 0 14 14" fill="none" xmlns="http://www.w3.org/2000/svg">
<g clip-path="url(#clip0)">
<path fill-rule="evenodd" clip-rule="evenodd" d="M2.91667 2.04167C2.91667 1.92676 2.89403 1.81298 2.85006 1.70682C2.80609 1.60066 2.74164 1.5042 2.66039 1.42295C2.57913 1.3417 2.48267 1.27724 2.37651 1.23327C2.27035 1.1893 2.15657 1.16667 2.04167 1.16667C1.92676 1.16667 1.81298 1.1893 1.70682 1.23327C1.60066 1.27724 1.5042 1.3417 1.42295 1.42295C1.3417 1.5042 1.27724 1.60066 1.23327 1.70682C1.1893 1.81298 1.16667 1.92676 1.16667 2.04167C1.16667 2.27373 1.25885 2.49629 1.42295 2.66039C1.58704 2.82448 1.8096 2.91667 2.04167 2.91667C2.27373 2.91667 2.49629 2.82448 2.66039 2.66039C2.82448 2.49629 2.91667 2.27373 2.91667 2.04167ZM2.04167 2.33333C1.96431 2.33333 1.89013 2.3026 1.83543 2.24791C1.78073 2.19321 1.75 2.11902 1.75 2.04167C1.75 1.96431 1.78073 1.89013 1.83543 1.83543C1.89013 1.78073 1.96431 1.75 2.04167 1.75C2.11902 1.75 2.19321 1.78073 2.24791 1.83543C2.3026 1.89013 2.33333 1.96431 2.33333 2.04167C2.33333 2.11902 2.3026 2.19321 2.24791 2.24791C2.19321 2.3026 2.11902 2.33333 2.04167 2.33333ZM4.375 2.91667C4.48991 2.91667 4.60369 2.89403 4.70985 2.85006C4.81601 2.80609 4.91247 2.74164 4.99372 2.66039C5.07497 2.57913 5.13942 2.48267 5.18339 2.37651C5.22737 2.27035 5.25 2.15657 5.25 2.04167C5.25 1.92676 5.22737 1.81298 5.18339 1.70682C5.13942 1.60066 5.07497 1.5042 4.99372 1.42295C4.91247 1.3417 4.81601 1.27724 4.70985 1.23327C4.60369 1.1893 4.48991 1.16667 4.375 1.16667C4.14294 1.16667 3.92038 1.25885 3.75628 1.42295C3.59219 1.58704 3.5 1.8096 3.5 2.04167C3.5 2.27373 3.59219 2.49629 3.75628 2.66039C3.92038 2.82448 4.14294 2.91667 4.375 2.91667ZM4.375 1.75C4.45235 1.75 4.52654 1.78073 4.58124 1.83543C4.63594 1.89013 4.66667 1.96431 4.66667 2.04167C4.66667 2.11902 4.63594 2.19321 4.58124 2.24791C4.52654 2.3026 4.45235 2.33333 4.375 2.33333C4.29765 2.33333 4.22346 2.3026 4.16876 2.24791C4.11406 2.19321 4.08333 2.11902 4.08333 2.04167C4.08333 1.96431 4.11406 1.89013 4.16876 1.83543C4.22346 1.78073 4.29765 1.75 4.375 1.75ZM7 3.5C4.4275 3.5 2.33333 5.59417 2.33333 8.16667C2.33333 10.7392 4.4275 12.8333 7 12.8333C9.5725 12.8333 11.6667 10.7392 11.6667 8.16667C11.6667 5.59417 9.5725 3.5 7 3.5ZM7 12.25C4.74833 12.25 2.91667 10.4183 2.91667 8.16667C2.91667 5.915 4.74833 4.08333 7 4.08333C9.25167 4.08333 11.0833 5.915 11.0833 8.16667C11.0833 10.4183 9.25167 12.25 7 12.25ZM12.5417 0H1.45833C1.07203 0.00153601 0.701991 0.155675 0.428833 0.428833C0.155675 0.701991 0.00153601 1.07203 0 1.45833L0 12.5417C0 13.3467 0.653333 14 1.45833 14H12.5417C13.3467 14 14 13.3467 14 12.5417V1.45833C14 0.653333 13.3467 0 12.5417 0ZM13.4167 12.5417C13.4167 13.0258 13.02 13.4167 12.5417 13.4167H1.45833C0.974167 13.4167 0.583333 13.02 0.583333 12.5417V1.45833C0.583333 0.974167 0.98 0.583333 1.45833 0.583333H12.5417C13.0258 0.583333 13.4167 0.98 13.4167 1.45833V12.5417ZM9.8175 8.97167C9.84642 8.99721 9.86998 9.02823 9.88683 9.06294C9.90367 9.09765 9.91346 9.13536 9.91564 9.17388C9.9178 9.2124 9.91231 9.25097 9.89947 9.28735C9.88663 9.32373 9.8667 9.35721 9.84083 9.38583C9.73406 9.49818 9.60999 9.5927 9.47333 9.66583C8.8025 10.045 7.91583 10.045 6.85417 9.44417C5.9675 8.94833 5.3025 8.94833 4.80667 9.2225C4.72741 9.26417 4.65469 9.31723 4.59083 9.38C4.56614 9.41066 4.53549 9.43601 4.50073 9.45451C4.46597 9.47301 4.42783 9.48428 4.3886 9.48764C4.34938 9.49101 4.30987 9.48639 4.27247 9.47408C4.23508 9.46177 4.20056 9.44201 4.171 9.416C4.14144 9.38999 4.11746 9.35826 4.10049 9.32274C4.08352 9.28721 4.07393 9.24861 4.07227 9.20927C4.07062 9.16994 4.07695 9.13067 4.09089 9.09385C4.10482 9.05702 4.12606 9.0234 4.15333 8.995C4.26011 8.88266 4.38418 8.78813 4.52083 8.715C5.19167 8.33583 6.07833 8.33583 7.14 8.93667C8.02667 9.4325 8.69167 9.4325 9.1875 9.15833C9.26676 9.11667 9.33948 9.0636 9.40333 9.00083C9.42887 8.97191 9.4599 8.94835 9.49461 8.9315C9.52932 8.91466 9.56702 8.90487 9.60554 8.9027C9.64406 8.90053 9.68263 8.90602 9.71902 8.91886C9.7554 8.9317 9.78887 8.95163 9.8175 8.9775V8.97167ZM9.8175 6.93C9.84642 6.95554 9.86998 6.98656 9.88683 7.02127C9.90367 7.05598 9.91346 7.09369 9.91564 7.13221C9.9178 7.17073 9.91231 7.2093 9.89947 7.24568C9.88663 7.28207 9.8667 7.31554 9.84083 7.34417C9.73406 7.45651 9.60999 7.55104 9.47333 7.62417C8.8025 8.00333 7.91583 8.00333 6.85417 7.4025C5.9675 6.90667 5.3025 6.90667 4.80667 7.18083C4.72741 7.2225 4.65469 7.27556 4.59083 7.33833C4.56614 7.369 4.53549 7.39434 4.50073 7.41284C4.46597 7.43134 4.42783 7.44261 4.3886 7.44598C4.34938 7.44934 4.30987 7.44473 4.27247 7.43242C4.23508 7.4201 4.20056 7.40035 4.171 7.37434C4.14144 7.34832 4.11746 7.3166 4.10049 7.28107C4.08352 7.24554 4.07393 7.20694 4.07227 7.16761C4.07062 7.12827 4.07695 7.089 4.09089 7.05218C4.10482 7.01535 4.12606 6.98173 4.15333 6.95333C4.26011 6.84099 4.38418 6.74646 4.52083 6.67333C5.19167 6.29417 6.07833 6.29417 7.14 6.895C8.02667 7.39083 8.69167 7.39083 9.1875 7.11667C9.26676 7.075 9.33948 7.02194 9.40333 6.95917C9.42887 6.93025 9.4599 6.90668 9.49461 6.88984C9.52932 6.87299 9.56702 6.8632 9.60554 6.86103C9.64406 6.85886 9.68263 6.86435 9.71902 6.87719C9.7554 6.89004 9.78887 6.90997 9.8175 6.93583V6.93Z" fill="black"/>
</g>
<defs>
<clipPath id="clip0">
<rect width="14" height="14" fill="white"/>
</clipPath>
</defs>
</svg>
