<svg width="18" height="18" viewBox="0 0 18 18" fill="none" xmlns="http://www.w3.org/2000/svg">
<path d="M17.9819 7.03273C17.9694 6.8349 17.8122 6.67771 17.6151 6.66598C15.707 6.5471 13.9646 6.99051 12.4897 7.95004C12.3771 5.67437 11.2111 3.53399 9.2287 2.03328C9.08952 1.92771 8.89556 1.92771 8.75638 2.03328C6.77788 3.53084 5.61265 5.66733 5.49693 7.93989C4.02518 6.98816 2.28752 6.55025 0.384864 6.66598C0.187025 6.67771 0.0298388 6.83567 0.0181085 7.03273C-0.135155 9.56021 0.686736 11.7992 2.39701 13.5086C4.02595 15.1368 6.22655 16.0463 8.50069 16.0463C8.66726 16.0463 8.83383 16.0408 9.0004 16.0315C9.16697 16.0408 9.33277 16.0463 9.49854 16.0463C11.7734 16.0463 13.974 15.1368 15.603 13.5086C17.3132 11.7992 18.1351 9.55944 17.9819 7.03273ZM8.61404 15.2627C6.52058 15.2885 4.45993 14.4643 2.95065 12.955C1.48359 11.4887 0.737542 9.58444 0.784464 7.43156C2.62689 7.39326 4.31217 7.94535 5.68304 9.04173C5.89964 9.21611 6.11079 9.40145 6.30709 9.59775C6.33132 9.62198 6.35243 9.64859 6.3767 9.67282C6.52293 9.82297 6.66369 9.97781 6.79665 10.1373C6.84357 10.1936 6.88657 10.2515 6.93114 10.3086C7.04218 10.4501 7.15009 10.5948 7.25097 10.7426C7.28851 10.7974 7.32447 10.8529 7.36047 10.9084C7.46604 11.0726 7.56535 11.24 7.65842 11.4113C7.68188 11.4543 7.70692 11.4965 7.72957 11.5403C7.95322 11.9704 8.13621 12.4208 8.27697 12.8838C8.30436 12.9737 8.32547 13.066 8.34893 13.1567C8.38335 13.2873 8.4162 13.4179 8.44435 13.5501C8.46939 13.6721 8.49127 13.7957 8.51081 13.9192C8.57961 14.3493 8.61873 14.7849 8.61404 15.2244C8.61404 15.2369 8.61404 15.2502 8.61404 15.2627ZM9.08794 12.3333C9.06136 12.4114 9.0246 12.4857 8.99956 12.5647C8.97687 12.4912 8.94248 12.4224 8.91745 12.3497C8.8588 12.1808 8.79622 12.015 8.72742 11.85C8.66642 11.7029 8.60308 11.5567 8.53427 11.4128C8.46546 11.2705 8.39039 11.1329 8.31374 10.9945C8.2332 10.8482 8.15421 10.702 8.06429 10.5604C7.97279 10.4158 7.87114 10.2766 7.77103 10.1374C7.68346 10.0162 7.60211 9.89104 7.50827 9.77374C7.32528 9.54382 7.12744 9.3233 6.92018 9.11138C6.89907 9.09027 6.88187 9.06604 6.86076 9.04492C6.6723 8.85647 6.47289 8.67582 6.26644 8.50533C6.26097 8.43964 6.25548 8.37472 6.25548 8.30826C6.25548 6.23746 7.24943 4.2613 8.99256 2.84194C10.7357 4.2613 11.7296 6.23826 11.7296 8.30826C11.7296 8.37864 11.7242 8.44745 11.7179 8.51629C11.5201 8.68051 11.3261 8.85724 11.1392 9.04415C11.1189 9.0645 11.1017 9.08873 11.0813 9.10907C10.8725 9.32179 10.6747 9.54309 10.4909 9.77378C10.3986 9.8895 10.318 10.0123 10.232 10.132C10.1304 10.2735 10.0272 10.4135 9.93487 10.5605C9.84495 10.702 9.76595 10.8491 9.68461 10.9953C9.60954 11.1321 9.53446 11.2682 9.46643 11.4082C9.39527 11.556 9.33035 11.7062 9.26778 11.8579C9.20367 12.015 9.14348 12.173 9.08794 12.3333ZM15.05 12.9558C13.54 14.4643 11.4723 15.2698 9.38589 15.2635C9.38589 15.251 9.38589 15.2385 9.38589 15.226C9.3812 14.7693 9.42185 14.3165 9.49615 13.8707C9.51258 13.7714 9.52977 13.6729 9.55011 13.5751C9.58373 13.4117 9.62361 13.249 9.66742 13.0879C9.68461 13.0246 9.69949 12.9605 9.71826 12.8987C9.86137 12.4247 10.0483 11.9649 10.2782 11.5254C10.293 11.4973 10.3087 11.4707 10.3235 11.4426C10.4252 11.2541 10.5355 11.0695 10.652 10.8889C10.6794 10.8474 10.7067 10.8052 10.7349 10.7645C10.8491 10.5956 10.9702 10.4322 11.0977 10.2719C11.1282 10.2336 11.1572 10.1937 11.1892 10.1561C11.348 9.96377 11.5153 9.77766 11.6929 9.59936C11.7382 9.55402 11.7883 9.5149 11.8352 9.47033C11.9846 9.32799 12.1355 9.1888 12.2919 9.06211C13.6651 7.95166 15.3559 7.39249 17.2171 7.43318C17.2616 9.58448 16.5171 11.4887 15.05 12.9558Z" fill="#333646"/>
</svg>
