<svg width="14" height="14" viewBox="0 0 14 14" fill="none" xmlns="http://www.w3.org/2000/svg">
<path fill-rule="evenodd" clip-rule="evenodd" d="M7.00066 8.75C6.53653 8.75 6.09141 8.93437 5.76322 9.26256C5.43503 9.59075 5.25066 10.0359 5.25066 10.5C5.25066 10.9641 5.43503 11.4092 5.76322 11.7374C6.09141 12.0656 6.53653 12.25 7.00066 12.25C7.46479 12.25 7.90991 12.0656 8.2381 11.7374C8.56628 11.4092 8.75066 10.9641 8.75066 10.5C8.75066 10.0359 8.56628 9.59075 8.2381 9.26256C7.90991 8.93437 7.46479 8.75 7.00066 8.75ZM7.00066 11.6667C6.69124 11.6667 6.39449 11.5437 6.1757 11.325C5.95691 11.1062 5.83399 10.8094 5.83399 10.5C5.83399 10.1906 5.95691 9.89383 6.1757 9.67504C6.39449 9.45625 6.69124 9.33333 7.00066 9.33333C7.31008 9.33333 7.60682 9.45625 7.82562 9.67504C8.04441 9.89383 8.16733 10.1906 8.16733 10.5C8.16733 10.8094 8.04441 11.1062 7.82562 11.325C7.60682 11.5437 7.31008 11.6667 7.00066 11.6667ZM10.454 8.295C10.4751 8.32717 10.4896 8.36318 10.4967 8.40097C10.5039 8.43875 10.5035 8.47758 10.4957 8.51523C10.4878 8.55287 10.4726 8.5886 10.451 8.62038C10.4293 8.65215 10.4016 8.67935 10.3694 8.70042C10.3372 8.72148 10.3012 8.73601 10.2634 8.74316C10.2257 8.75031 10.1868 8.74994 10.1492 8.74209C10.1115 8.73424 10.0758 8.71904 10.044 8.69738C10.0123 8.67572 9.98506 8.64801 9.96399 8.61583C9.26982 7.56 8.17316 7 7.00066 7C5.82816 7 4.73149 7.56 4.03733 8.62167C3.99478 8.68664 3.92817 8.73206 3.85214 8.74792C3.7761 8.76378 3.69689 8.7488 3.63191 8.70625C3.56693 8.6637 3.52152 8.59709 3.50565 8.52106C3.48979 8.44503 3.50478 8.36581 3.54733 8.30083C4.35233 7.07583 5.63566 6.41667 7.00066 6.41667C8.36566 6.41667 9.64899 7.07583 10.454 8.30083V8.295ZM12.1923 6.5275C12.2186 6.55745 12.2384 6.59246 12.2506 6.63037C12.2628 6.66827 12.267 6.70827 12.2632 6.7479C12.2593 6.78753 12.2474 6.82595 12.2281 6.8608C12.2089 6.89564 12.1827 6.92617 12.1512 6.9505C12.1196 6.97484 12.0835 6.99246 12.0449 7.00229C12.0063 7.01212 11.9661 7.01394 11.9268 7.00765C11.8875 7.00136 11.8499 6.98708 11.8163 6.9657C11.7827 6.94432 11.7538 6.91629 11.7315 6.88333C10.7632 5.635 8.68649 4.66667 7.00066 4.66667C5.34983 4.66667 3.34899 5.61167 2.26399 6.895C2.21371 6.95379 2.14214 6.9902 2.06501 6.99621C1.98789 7.00223 1.91153 6.97736 1.85274 6.92708C1.79395 6.8768 1.75754 6.80523 1.75153 6.7281C1.74551 6.65098 1.77038 6.57462 1.82066 6.51583C3.01649 5.10417 5.17483 4.08333 7.00066 4.08333C8.86149 4.08333 11.1132 5.13333 12.1923 6.5275ZM13.9132 5.16833C13.8853 5.19492 13.8524 5.21572 13.8165 5.22954C13.7805 5.24335 13.7422 5.24991 13.7036 5.24882C13.6651 5.24774 13.6272 5.23904 13.5921 5.22322C13.557 5.2074 13.5253 5.18478 13.499 5.15667C11.784 3.36583 9.58483 2.33333 7.00066 2.33333C4.41649 2.33333 2.21733 3.36583 0.502326 5.1625C0.447593 5.21172 0.376273 5.23843 0.302672 5.23726C0.229071 5.2361 0.158632 5.20714 0.105486 5.15621C0.0523404 5.10528 0.020418 5.03614 0.0161224 4.96265C0.0118268 4.88917 0.0354759 4.81678 0.0823257 4.76C1.90233 2.8525 4.24733 1.75 7.00066 1.75C9.75399 1.75 12.099 2.8525 13.919 4.76C13.9456 4.78788 13.9664 4.82074 13.9802 4.8567C13.994 4.89267 14.0006 4.93101 13.9995 4.96952C13.9984 5.00802 13.9897 5.04593 13.9739 5.08106C13.9581 5.11619 13.9354 5.14783 13.9073 5.17417L13.9132 5.16833Z" fill="#1F212B"/>
</svg>
