<svg width="165" height="22" viewBox="0 0 165 22" fill="none" xmlns="http://www.w3.org/2000/svg">
<path d="M35.6718 15.0071C35.7504 15.0071 35.829 15.0071 35.9075 15.0857C35.9861 15.0857 36.0647 15.1643 36.1432 15.2429L37.3218 16.5C36.7718 17.2071 36.1432 17.6786 35.3575 17.9929C34.5718 18.3071 33.7075 18.4643 32.6075 18.4643C31.6647 18.4643 30.8004 18.3071 30.0147 17.9929C29.229 17.6786 28.6004 17.2071 28.0504 16.6571C27.5004 16.1071 27.1075 15.4 26.7932 14.6143C26.479 13.8286 26.4004 12.9643 26.4004 12.0214C26.4004 11.0786 26.5575 10.2143 26.8718 9.42857C27.1861 8.64286 27.6575 7.93571 28.2075 7.38571C28.7575 6.83571 29.4647 6.36429 30.329 6.05C31.1147 5.73571 32.0575 5.57857 33.0004 5.57857C33.4718 5.57857 33.9432 5.65714 34.3361 5.73571C34.729 5.81429 35.1218 5.97143 35.5147 6.05C35.9075 6.20714 36.2218 6.36429 36.5361 6.6C36.8504 6.83571 37.0861 6.99286 37.3218 7.30714L36.3004 8.64286L36.0647 8.87857C35.9861 8.95714 35.829 8.95714 35.6718 8.95714C35.5933 8.95714 35.4361 8.95714 35.3575 8.87857C35.279 8.8 35.2004 8.8 35.0432 8.72143C34.9647 8.64286 34.8075 8.56429 34.729 8.48571C34.5718 8.40714 34.4932 8.32857 34.2575 8.25C34.1004 8.17143 33.8647 8.09286 33.629 8.09286C33.3932 8.01429 33.1575 8.01429 32.8432 8.01429C32.2932 8.01429 31.8218 8.09286 31.3504 8.32857C30.879 8.48571 30.5647 8.8 30.1718 9.11429C29.8575 9.42857 29.6218 9.9 29.4647 10.3714C29.3075 10.8429 29.229 11.4714 29.229 12.0214C29.229 12.65 29.3075 13.2786 29.4647 13.75C29.6218 14.2214 29.8575 14.6929 30.1718 15.0071C30.4861 15.3214 30.8004 15.6357 31.2718 15.7929C31.6647 15.95 32.1361 16.0286 32.6075 16.0286H33.3147C33.5504 16.0286 33.7075 15.95 33.9432 15.8714C34.1004 15.7929 34.3361 15.7143 34.4932 15.6357C34.6504 15.5571 34.8075 15.4 35.0432 15.2429C35.1218 15.1643 35.2004 15.1643 35.279 15.0857C35.5147 15.0071 35.5933 15.0071 35.6718 15.0071ZM50.0504 18.3071H47.0647V12.9643H41.879V18.3071H38.8932V5.57857H41.879V10.9214H47.0647V5.57857H50.0504V18.3071ZM60.6575 5.57857V7.85714H55.4718V10.8429H59.479V13.0429H55.4718V16.1071H60.6575V18.3857H52.4861V5.57857H60.6575ZM71.2647 15.0071C71.3432 15.0071 71.4218 15.0071 71.5004 15.0857C71.579 15.0857 71.6575 15.1643 71.7361 15.2429L72.9147 16.5C72.3647 17.2071 71.7361 17.6786 70.9504 17.9929C70.1647 18.3071 69.3004 18.4643 68.2004 18.4643C67.2575 18.4643 66.3932 18.3071 65.6075 17.9929C64.8218 17.6786 64.1932 17.2071 63.6432 16.6571C63.0932 16.1071 62.7004 15.4 62.3861 14.6143C62.0718 13.8286 61.9932 12.9643 61.9932 12.0214C61.9932 11.0786 62.1504 10.2143 62.4647 9.42857C62.779 8.64286 63.2504 7.93571 63.8004 7.38571C64.429 6.67857 65.1361 6.28571 65.9218 5.97143C66.7075 5.65714 67.6504 5.5 68.5933 5.5C69.0647 5.5 69.5361 5.57857 69.929 5.65714C70.3218 5.73571 70.7147 5.89286 71.1075 5.97143C71.5004 6.05 71.8147 6.28571 72.129 6.44286C72.4432 6.67857 72.679 6.83571 72.9147 7.15L71.8932 8.48571L71.6575 8.72143C71.579 8.8 71.4218 8.8 71.2647 8.8C71.1861 8.8 71.029 8.8 70.9504 8.72143C70.8718 8.64286 70.7933 8.64286 70.6361 8.56429C70.5575 8.48571 70.4004 8.40714 70.3218 8.32857C70.1647 8.25 70.0861 8.17143 69.8504 8.09286C69.6932 8.01429 69.4575 7.93571 69.2218 7.93571C68.9861 7.85714 68.7504 7.85714 68.4361 7.85714C67.8861 7.85714 67.4147 7.93571 66.9432 8.17143C66.4718 8.32857 66.1575 8.64286 65.7647 8.95714C65.4504 9.27143 65.2147 9.74286 65.0575 10.2143C64.9004 10.6857 64.8218 11.3143 64.8218 11.8643C64.8218 12.4929 64.9004 13.1214 65.0575 13.5929C65.2147 14.0643 65.4504 14.5357 65.7647 14.85C66.079 15.1643 66.3932 15.4786 66.8647 15.6357C67.2575 15.7929 67.729 15.8714 68.2004 15.8714H68.9075C69.1432 15.8714 69.3004 15.7929 69.5361 15.7143C69.6932 15.6357 69.929 15.5571 70.0861 15.4786C70.2432 15.4 70.4004 15.2429 70.6361 15.0857C70.7147 15.0071 70.7932 15.0071 70.8718 14.9286C71.029 15.0071 71.1861 15.0071 71.2647 15.0071ZM77.4718 10.7643H77.9432C78.4147 10.7643 78.729 10.6071 78.8861 10.3714L81.7147 6.20714C81.8718 5.97143 82.029 5.81429 82.2647 5.73571C82.5004 5.65714 82.7361 5.57857 82.9718 5.57857H85.5647L81.7932 10.6857C81.6361 10.8429 81.5575 11 81.4004 11.1571C81.2432 11.3143 81.0861 11.3929 80.929 11.4714C81.1647 11.55 81.3218 11.6286 81.5575 11.7857C81.7147 11.9429 81.9504 12.1 82.029 12.3357L85.879 18.2286H82.7361C82.6575 18.2286 82.5004 18.15 82.4218 18.15C82.3433 18.15 82.2647 18.0714 82.1861 17.9929C82.1075 17.9143 82.029 17.8357 82.029 17.7571L79.1218 13.3571C79.0432 13.2 78.8861 13.0429 78.729 13.0429C78.5718 12.9643 78.3361 12.9643 78.1004 12.9643H77.3932V18.3857H74.4075V5.57857H77.3932V10.7643H77.4718ZM86.5075 11.9429H91.2218V14.1429H86.5075V11.9429ZM102.379 5.57857V6.67857C102.379 6.83571 102.379 6.99286 102.3 7.15C102.222 7.30714 102.222 7.46429 102.065 7.54286L96.0932 16.0286H102.143V18.3071H92.3218V17.2071C92.3218 17.05 92.3218 16.9714 92.4004 16.8143C92.479 16.6571 92.479 16.5786 92.5575 16.4214L98.529 7.85714H92.7932V5.57857H102.379ZM107.25 18.3071H104.265V5.57857H107.25V18.3071ZM116.443 12.4929C116.522 12.7286 116.679 12.9643 116.758 13.2C116.836 13.4357 116.993 13.6714 117.072 13.9071C117.15 13.6714 117.308 13.4357 117.386 13.2C117.465 12.9643 117.622 12.7286 117.7 12.4929L120.922 6.05C121 5.97143 121 5.89286 121.079 5.81429C121.158 5.73571 121.236 5.73571 121.315 5.65714C121.393 5.65714 121.472 5.57857 121.55 5.57857H124.143V18.3071H121.55V11C121.55 10.6071 121.55 10.2929 121.629 9.82143L118.25 16.3429C118.172 16.5786 118.015 16.7357 117.858 16.8143C117.7 16.8929 117.465 16.9714 117.229 16.9714H116.836C116.6 16.9714 116.443 16.8929 116.208 16.8143C116.05 16.7357 115.893 16.5786 115.815 16.3429L112.436 9.82143C112.436 10.0571 112.515 10.2143 112.515 10.45V18.3071H110V5.57857H112.593C112.672 5.57857 112.75 5.57857 112.829 5.65714C112.908 5.65714 112.986 5.73571 113.065 5.81429C113.143 5.89286 113.222 5.97143 113.222 6.05L116.443 12.4929ZM133.179 12.4929C133.258 12.7286 133.415 12.9643 133.493 13.2C133.572 13.4357 133.729 13.6714 133.808 13.9071C133.886 13.6714 134.043 13.4357 134.122 13.2C134.2 12.9643 134.358 12.7286 134.436 12.4929L137.736 6.05C137.815 5.97143 137.815 5.89286 137.893 5.81429C137.972 5.73571 138.05 5.73571 138.129 5.65714C138.208 5.65714 138.286 5.57857 138.365 5.57857H140.958V18.3071H138.365V11C138.365 10.6071 138.365 10.2929 138.443 9.82143L135.065 16.3429C134.986 16.5786 134.829 16.7357 134.672 16.8143C134.515 16.8929 134.279 16.9714 134.043 16.9714H133.65C133.415 16.9714 133.258 16.8929 133.022 16.8143C132.865 16.7357 132.708 16.5786 132.629 16.3429L129.25 9.82143C129.25 10.0571 129.329 10.2143 129.329 10.45V18.3071H126.736V5.57857H129.329C129.408 5.57857 129.486 5.57857 129.565 5.65714C129.643 5.65714 129.722 5.73571 129.8 5.81429C129.879 5.89286 129.958 5.97143 129.958 6.05L133.179 12.4929ZM151.643 5.57857V7.85714H146.458V10.8429H150.465V13.0429H146.458V16.1071H151.643V18.3857H143.472V5.57857H151.643ZM156.593 13.5929V18.3071H153.608V5.57857H157.772C158.715 5.57857 159.5 5.65714 160.129 5.89286C160.758 6.05 161.308 6.36429 161.7 6.67857C162.093 6.99286 162.408 7.38571 162.565 7.85714C162.722 8.32857 162.879 8.8 162.879 9.35C162.879 9.74286 162.8 10.1357 162.722 10.5286C162.643 10.9214 162.408 11.2357 162.25 11.55C162.015 11.8643 161.779 12.1 161.465 12.4143C161.15 12.65 160.758 12.8857 160.365 13.0429C160.6 13.1214 160.758 13.2786 160.915 13.4357C161.072 13.5929 161.229 13.75 161.386 13.9857L164.058 18.3857H161.386C160.915 18.3857 160.522 18.2286 160.286 17.8357L158.165 14.1429C158.086 13.9857 157.929 13.8286 157.85 13.8286C157.693 13.75 157.536 13.75 157.3 13.75H156.593V13.5929ZM156.593 11.55H157.772C158.165 11.55 158.479 11.4714 158.793 11.3929C159.108 11.3143 159.343 11.1571 159.5 11C159.658 10.8429 159.815 10.6071 159.893 10.3714C159.972 10.1357 160.05 9.9 160.05 9.58571C160.05 9.03571 159.893 8.56429 159.5 8.25C159.108 7.93571 158.558 7.77857 157.85 7.77857H156.672V11.55H156.593Z" fill="#333646"/>
<path d="M9.97857 0L0 9.9V19.8786H19.8786V9.9L9.97857 0ZM8.01429 17.4429L3.69286 13.1214L5.73571 11.0786L7.93571 13.2786L13.2786 7.85714L15.3214 9.9L8.01429 17.4429Z" fill="url(#paint0_linear)"/>
<defs>
<linearGradient id="paint0_linear" x1="24.1733" y1="2.58579" x2="-2.63371" y2="22.8761" gradientUnits="userSpaceOnUse">
<stop stop-color="#0F7FEB"/>
<stop offset="1" stop-color="#00CEFF"/>
</linearGradient>
</defs>
</svg>
