<svg width="6" height="14" viewBox="0 0 6 14" fill="none" xmlns="http://www.w3.org/2000/svg">
<path fill-rule="evenodd" clip-rule="evenodd" d="M4.29531 2.3C4.29531 3.01797 3.71328 3.6 2.99531 3.6C2.27734 3.6 1.69531 3.01797 1.69531 2.3C1.69531 1.58203 2.27734 1 2.99531 1C3.71328 1 4.29531 1.58203 4.29531 2.3ZM5.29531 2.3C5.29531 3.57025 4.26557 4.6 2.99531 4.6C1.72506 4.6 0.69531 3.57025 0.69531 2.3C0.69531 1.02975 1.72506 0 2.99531 0C4.26557 0 5.29531 1.02975 5.29531 2.3ZM2 6.59961H4C4.55228 6.59961 5 7.04732 5 7.59961V12.9996H1V7.59961C1 7.04733 1.44772 6.59961 2 6.59961ZM0 7.59961C0 6.49504 0.89543 5.59961 2 5.59961H4C5.10457 5.59961 6 6.49504 6 7.59961V12.9996C6 13.5519 5.55228 13.9996 5 13.9996H1C0.44772 13.9996 0 13.5519 0 12.9996V7.59961Z" fill="#7A8793"/>
</svg>
