<svg width="14" height="15" viewBox="0 0 14 15" fill="none" xmlns="http://www.w3.org/2000/svg">
<path d="M9.40078 10.8997C9.30078 10.6997 9.10078 10.4997 8.90078 10.1997C9.60078 9.59968 10.1008 8.59968 10.2008 7.49968C11.2008 7.29968 11.4008 6.59968 11.4008 6.29968V5.49968C11.4008 5.09968 11.2008 4.69968 10.8008 4.49968V3.89968C11.0008 3.59968 11.2008 3.19968 11.2008 2.69968C11.1008 2.09968 10.8008 1.59968 10.2008 1.29968C8.60078 0.399683 7.10078 1.29968 6.60078 1.69968C6.10078 1.69968 4.80078 1.79968 4.10078 2.39968C3.60078 2.79968 3.60078 3.49968 3.60078 4.49968C3.20078 4.69968 3.00078 5.09968 3.00078 5.49968V6.19968C3.00078 6.79968 3.30078 7.19968 3.80078 7.39968C3.90078 8.59968 4.40078 9.49968 5.10078 10.0997C4.90078 10.3997 4.70078 10.6997 4.60078 10.7997C1.20078 10.9997 0.800781 13.0997 0.800781 13.9997C0.800781 14.2997 0.900781 14.4997 1.10078 14.6997C1.30078 14.8997 1.50078 14.9997 1.80078 14.9997H12.2008C12.5008 14.9997 12.7008 14.8997 12.9008 14.6997C13.1008 14.4997 13.2008 14.1997 13.2008 13.9997C13.2008 13.0997 12.8008 10.9997 9.40078 10.8997ZM4.80078 6.99968C4.80078 6.69968 4.60078 6.49968 4.30078 6.49968C4.00078 6.49968 4.00078 6.29968 4.00078 6.29968V5.59968L4.10078 5.49968C4.40078 5.49968 4.60078 5.29968 4.60078 4.99968V4.79968C4.60078 4.39968 4.60078 3.39968 4.80078 3.19968C5.10078 2.69968 6.00078 2.59968 6.50078 2.59968C6.60078 2.59968 6.60078 2.59968 6.70078 2.59968C6.80078 2.59968 6.90078 2.59968 7.00078 2.49968C7.00078 2.49968 8.40078 1.39968 9.60078 2.09968C9.90078 2.29968 10.1008 2.49968 10.1008 2.69968C10.2008 2.99968 10.0008 3.19968 10.0008 3.29968C9.80078 3.39968 9.80078 3.49968 9.80078 3.69968V4.89968C9.80078 5.19968 10.0008 5.39968 10.3008 5.39968L10.4008 5.49968V6.19968C10.4008 6.29968 10.4008 6.39968 9.70078 6.39968C9.40078 6.49968 9.20078 6.69968 9.20078 6.99968C9.20078 8.69968 8.20078 9.89968 7.00078 9.89968C5.80078 9.89968 4.80078 8.69968 4.80078 6.99968ZM1.80078 13.9997C1.80078 12.9997 2.40078 11.8997 4.80078 11.8997H5.00078L5.10078 11.7997C5.30078 11.5997 5.60078 11.0997 5.90078 10.6997C6.20078 10.7997 6.60078 10.8997 7.00078 10.8997C7.40078 10.8997 7.70078 10.7997 8.10078 10.6997C8.40078 11.0997 8.70078 11.5997 8.90078 11.7997L9.00078 11.8997H9.20078C11.7008 11.8997 12.2008 12.9997 12.2008 13.9997H1.80078Z" fill="#545769"/>
</svg>
