<svg width="14" height="20" viewBox="0 0 14 20" fill="none" xmlns="http://www.w3.org/2000/svg">
<ellipse cx="7.00078" cy="7.14314" rx="4.2" ry="4.28571" fill="white"/>
<path d="M0.426523 9.68992C1.63082 13.0749 4.94265 17.7519 6.34767 19.6641C6.67384 20.1034 7.32617 20.1034 7.65233 19.6641C9.05735 17.7519 12.3692 13.0749 13.5735 9.68992C13.8495 8.91473 14 8.08786 14 7.2093C14 3.22997 10.8638 0 7 0C3.1362 0 0 3.22997 0 7.2093C0 8.08786 0.150538 8.91473 0.426523 9.68992ZM10.7634 7.2093C10.7634 9.354 9.08244 11.0594 7 11.0594C4.91756 11.0594 3.26165 9.32817 3.26165 7.2093C3.26165 5.0646 4.94265 3.33333 7 3.33333C9.08244 3.35917 10.7634 5.0646 10.7634 7.2093Z" fill="#6BB63F"/>
</svg>
