<svg width="18" height="18" viewBox="0 0 18 18" fill="none" xmlns="http://www.w3.org/2000/svg">
<path fill-rule="evenodd" clip-rule="evenodd" d="M12.9738 7.20081H12.8238C12.5988 7.12581 12.5238 6.90081 12.6738 6.67581C12.6738 6.67581 13.0488 5.85081 13.0488 5.02581C13.0488 4.65081 12.8988 4.35081 12.7488 4.05081C12.5238 3.60081 12.2988 3.15081 12.2988 2.47581C12.2988 1.27581 12.5988 0.375808 12.5988 0.375808C12.6738 0.225808 12.8238 0.0758084 13.0488 0.150808C13.1988 0.225808 13.3488 0.375808 13.2738 0.600808C13.2738 0.616624 13.2605 0.662456 13.2394 0.734788V0.734809C13.1606 1.0055 12.9738 1.64725 12.9738 2.47581C12.9738 2.89327 13.1161 3.21589 13.2498 3.51908C13.2842 3.59718 13.3181 3.674 13.3488 3.75081C13.5738 4.12581 13.7238 4.50081 13.7238 5.02581C13.7238 5.78908 13.494 6.5064 13.3942 6.81792V6.81793V6.81794C13.3665 6.90434 13.3488 6.95952 13.3488 6.97581C13.2738 7.12581 13.1238 7.20081 12.9738 7.20081ZM15.0012 7.20052H14.8512C14.6262 7.12552 14.5512 6.90052 14.6262 6.75052C14.6262 6.75052 15.0012 5.85052 15.0012 5.02552C15.0012 4.82551 14.9345 4.62551 14.8678 4.42551C14.8345 4.32551 14.8012 4.22552 14.7762 4.12552C14.5512 3.67552 14.3262 3.22552 14.3262 2.55052C14.3262 1.35052 14.6262 0.450515 14.6262 0.450515C14.7012 0.300515 14.8512 0.150515 15.0762 0.225515C15.2262 0.300515 15.3762 0.450515 15.3012 0.675515C15.3012 0.691331 15.2878 0.737163 15.2668 0.809498V0.809513C15.1879 1.0802 15.0012 1.72196 15.0012 2.55052C15.0012 2.89928 15.1364 3.203 15.267 3.49657C15.3049 3.58179 15.3425 3.66615 15.3762 3.75052C15.6012 4.12552 15.7512 4.50052 15.7512 5.02552C15.7512 5.67551 15.5512 6.32552 15.44 6.68663C15.3845 6.86718 15.3512 6.97552 15.3762 6.97552C15.3012 7.12552 15.1512 7.20052 15.0012 7.20052ZM16.8762 2.55052C16.8762 1.72196 17.063 1.0802 17.1418 0.809513V0.809498C17.1628 0.737163 17.1762 0.691331 17.1762 0.675515C17.2512 0.450515 17.1012 0.300515 16.9512 0.225515C16.7262 0.150515 16.5762 0.300515 16.5012 0.450515C16.5012 0.450515 16.2012 1.35052 16.2012 2.55052C16.2012 3.22552 16.4262 3.67552 16.6512 4.12552C16.8012 4.42552 16.9512 4.72552 16.9512 5.10052C16.8762 5.85052 16.5012 6.75052 16.5012 6.75052C16.4262 6.97552 16.5012 7.12552 16.7262 7.27552H16.8762C17.0262 7.27552 17.1762 7.20052 17.2512 7.05052C17.2512 7.03423 17.2688 6.97905 17.2965 6.89265V6.89264C17.3963 6.58112 17.6262 5.8638 17.6262 5.10052C17.6262 4.57552 17.4762 4.20052 17.2512 3.82552C17.2074 3.69422 17.1572 3.56931 17.1082 3.44706V3.44702C16.989 3.15029 16.8762 2.86921 16.8762 2.55052ZM14.4 11.3259C14.475 11.3259 14.55 11.4009 14.625 11.4759C14.775 11.6259 16.95 15.0009 17.175 15.5259C17.7 16.5759 17.325 17.4009 16.725 17.7759C16.575 17.8509 16.425 17.8509 16.275 17.8509C15.75 17.8509 15.225 17.5509 14.85 17.1009C14.6812 16.8477 14.251 16.1192 13.8403 15.4238C13.5212 14.8836 13.214 14.3632 13.05 14.1009H9H0.375C0.15 14.1009 0 13.9509 0 13.7259C0 13.5009 0.15 13.3509 0.375 13.3509H1.8C1.725 12.9009 1.875 12.3759 2.025 12.0759C2.025 12.0759 4.725 7.27593 5.025 6.75093C5.325 6.22593 5.625 5.92593 6 5.77593C5.625 5.40093 5.4 4.87593 5.4 4.35093C5.4 3.22593 6.3 2.32593 7.425 2.32593C8.55 2.32593 9.45 3.22593 9.45 4.35093C9.45 5.17593 9 5.92593 8.25 6.22593C8.4 6.37593 8.55 6.52593 8.625 6.75093V6.75097C8.85007 7.27605 9.975 9.90094 10.275 10.6509L14.4 11.3259ZM8.7 4.35093C8.7 3.67593 8.1 3.07593 7.425 3.07593C6.675 3.07593 6.15 3.67593 6.15 4.35093C6.15 5.02593 6.675 5.62593 7.425 5.62593C8.1 5.62593 8.7 5.02593 8.7 4.35093ZM4.125 13.1259L3.9 13.3509V13.4259H7.35C7.3125 13.3509 7.25625 13.2759 7.2 13.2009C7.14375 13.1259 7.0875 13.0509 7.05 12.9759L5.775 10.8009C5.5125 11.1759 5.13751 11.7009 4.80939 12.1603C4.48126 12.6197 4.2 13.0134 4.125 13.1259ZM15.525 16.6509C15.825 17.1009 16.275 17.1759 16.425 17.1009C16.65 16.9509 16.875 16.5009 16.575 15.7509C16.4528 15.4455 15.3854 13.7968 14.6288 12.6282C14.4565 12.362 14.3003 12.1207 14.175 11.9259L9.975 11.2509C9.825 11.2509 9.75 11.1759 9.675 11.0259C9.47812 10.5759 9.21795 9.96769 8.95785 9.35951C8.5242 8.34581 8.09063 7.33218 7.95 7.05093C7.8 6.67593 7.5 6.30093 6.975 6.30093C6.525 6.30093 6.15 6.30093 5.7 7.05093C5.4 7.57594 2.7 12.3759 2.7 12.3759C2.55 12.6009 2.475 12.9009 2.55 13.0509C2.55 13.1259 2.625 13.2009 2.625 13.2009C2.775 13.3509 3.225 12.9759 3.525 12.6009C3.75 12.3759 4.875 10.7259 5.475 9.82594C5.55 9.75094 5.625 9.67594 5.775 9.67594C5.925 9.67594 6 9.75094 6.075 9.82594L7.65 12.5259C7.875 13.0509 8.4 13.3509 9 13.3509H13.35C13.3875 13.3509 13.4062 13.3697 13.425 13.3884C13.4437 13.4072 13.4625 13.4259 13.5 13.4259H13.575L13.65 13.5009C13.65 13.5759 15.15 16.1259 15.525 16.6509Z" fill="#333646"/>
</svg>
