<svg width="18" height="14" viewBox="0 0 18 14" fill="none" xmlns="http://www.w3.org/2000/svg">
<rect width="18" height="14" rx="1.3" fill="white"/>
<mask id="mask0" mask-type="alpha" maskUnits="userSpaceOnUse" x="0" y="0" width="18" height="14">
<rect width="18" height="14" rx="1.3" fill="white"/>
</mask>
<g mask="url(#mask0)">
<path fill-rule="evenodd" clip-rule="evenodd" d="M18 0H4.88281e-05V0.933333H18V0ZM18 1.86666H0V2.8H18V1.86666ZM0 3.73334H18V4.66667H0V3.73334ZM18 5.6H0V6.53333H18V5.6ZM0 7.46666H18V8.39999H0V7.46666ZM18 9.33334H0V10.2667H18V9.33334ZM0 11.2H18V12.1333H0V11.2ZM18 13.0667H0V14H18V13.0667Z" fill="#D02F44"/>
<rect width="7.71429" height="6.53333" fill="#46467F"/>
<g filter="url(#filter0_d)">
<path fill-rule="evenodd" clip-rule="evenodd" d="M1.71456 1.39977C1.71456 1.65751 1.52269 1.86644 1.28599 1.86644C1.0493 1.86644 0.857422 1.65751 0.857422 1.39977C0.857422 1.14204 1.0493 0.933105 1.28599 0.933105C1.52269 0.933105 1.71456 1.14204 1.71456 1.39977ZM3.42901 1.39978C3.42901 1.65751 3.23713 1.86644 3.00044 1.86644C2.76375 1.86644 2.57187 1.65751 2.57187 1.39978C2.57187 1.14204 2.76375 0.93311 3.00044 0.93311C3.23713 0.93311 3.42901 1.14204 3.42901 1.39978ZM4.71462 1.86644C4.95131 1.86644 5.14319 1.65751 5.14319 1.39978C5.14319 1.14204 4.95131 0.93311 4.71462 0.93311C4.47793 0.93311 4.28605 1.14204 4.28605 1.39978C4.28605 1.65751 4.47793 1.86644 4.71462 1.86644ZM6.85753 1.39978C6.85753 1.65751 6.66565 1.86644 6.42896 1.86644C6.19226 1.86644 6.00039 1.65751 6.00039 1.39978C6.00039 1.14204 6.19226 0.93311 6.42896 0.93311C6.66565 0.93311 6.85753 1.14204 6.85753 1.39978ZM2.14319 2.79979C2.37989 2.79979 2.57176 2.59085 2.57176 2.33312C2.57176 2.07539 2.37989 1.86645 2.14319 1.86645C1.9065 1.86645 1.71462 2.07539 1.71462 2.33312C1.71462 2.59085 1.9065 2.79979 2.14319 2.79979ZM4.2861 2.33312C4.2861 2.59085 4.09422 2.79979 3.85753 2.79979C3.62084 2.79979 3.42896 2.59085 3.42896 2.33312C3.42896 2.07539 3.62084 1.86645 3.85753 1.86645C4.09422 1.86645 4.2861 2.07539 4.2861 2.33312ZM5.57187 2.79979C5.80856 2.79979 6.00044 2.59085 6.00044 2.33312C6.00044 2.07539 5.80856 1.86645 5.57187 1.86645C5.33517 1.86645 5.1433 2.07539 5.1433 2.33312C5.1433 2.59085 5.33517 2.79979 5.57187 2.79979ZM6.85753 3.26644C6.85753 3.52417 6.66565 3.7331 6.42896 3.7331C6.19226 3.7331 6.00039 3.52417 6.00039 3.26644C6.00039 3.0087 6.19226 2.79977 6.42896 2.79977C6.66565 2.79977 6.85753 3.0087 6.85753 3.26644ZM4.71462 3.7331C4.95131 3.7331 5.14319 3.52417 5.14319 3.26644C5.14319 3.0087 4.95131 2.79977 4.71462 2.79977C4.47793 2.79977 4.28605 3.0087 4.28605 3.26644C4.28605 3.52417 4.47793 3.7331 4.71462 3.7331ZM3.42901 3.26644C3.42901 3.52417 3.23713 3.7331 3.00044 3.7331C2.76375 3.7331 2.57187 3.52417 2.57187 3.26644C2.57187 3.0087 2.76375 2.79977 3.00044 2.79977C3.23713 2.79977 3.42901 3.0087 3.42901 3.26644ZM1.2861 3.7331C1.5228 3.7331 1.71467 3.52417 1.71467 3.26644C1.71467 3.0087 1.5228 2.79977 1.2861 2.79977C1.04941 2.79977 0.857532 3.0087 0.857532 3.26644C0.857532 3.52417 1.04941 3.7331 1.2861 3.7331ZM2.57176 4.19977C2.57176 4.45751 2.37989 4.66644 2.14319 4.66644C1.9065 4.66644 1.71462 4.45751 1.71462 4.19977C1.71462 3.94204 1.9065 3.73311 2.14319 3.73311C2.37989 3.73311 2.57176 3.94204 2.57176 4.19977ZM3.85753 4.66644C4.09422 4.66644 4.2861 4.45751 4.2861 4.19977C4.2861 3.94204 4.09422 3.73311 3.85753 3.73311C3.62084 3.73311 3.42896 3.94204 3.42896 4.19977C3.42896 4.45751 3.62084 4.66644 3.85753 4.66644ZM6.00044 4.19977C6.00044 4.45751 5.80856 4.66644 5.57187 4.66644C5.33517 4.66644 5.1433 4.45751 5.1433 4.19977C5.1433 3.94204 5.33517 3.73311 5.57187 3.73311C5.80856 3.73311 6.00044 3.94204 6.00044 4.19977ZM6.42896 5.59978C6.66565 5.59978 6.85753 5.39085 6.85753 5.13312C6.85753 4.87538 6.66565 4.66645 6.42896 4.66645C6.19226 4.66645 6.00039 4.87538 6.00039 5.13312C6.00039 5.39085 6.19226 5.59978 6.42896 5.59978ZM5.14319 5.13312C5.14319 5.39085 4.95131 5.59978 4.71462 5.59978C4.47793 5.59978 4.28605 5.39085 4.28605 5.13312C4.28605 4.87538 4.47793 4.66645 4.71462 4.66645C4.95131 4.66645 5.14319 4.87538 5.14319 5.13312ZM3.00044 5.59978C3.23713 5.59978 3.42901 5.39085 3.42901 5.13312C3.42901 4.87538 3.23713 4.66645 3.00044 4.66645C2.76375 4.66645 2.57187 4.87538 2.57187 5.13312C2.57187 5.39085 2.76375 5.59978 3.00044 5.59978ZM1.71467 5.13312C1.71467 5.39085 1.5228 5.59978 1.2861 5.59978C1.04941 5.59978 0.857532 5.39085 0.857532 5.13312C0.857532 4.87538 1.04941 4.66645 1.2861 4.66645C1.5228 4.66645 1.71467 4.87538 1.71467 5.13312Z" fill="url(#paint0_linear)"/>
</g>
</g>
<defs>
<filter id="filter0_d" x="0.857422" y="0.933105" width="6.00011" height="5.31668" filterUnits="userSpaceOnUse" color-interpolation-filters="sRGB">
<feFlood flood-opacity="0" result="BackgroundImageFix"/>
<feColorMatrix in="SourceAlpha" type="matrix" values="0 0 0 0 0 0 0 0 0 0 0 0 0 0 0 0 0 0 127 0"/>
<feOffset dy="0.65"/>
<feColorMatrix type="matrix" values="0 0 0 0 0 0 0 0 0 0 0 0 0 0 0 0 0 0 0.06 0"/>
<feBlend mode="normal" in2="BackgroundImageFix" result="effect1_dropShadow"/>
<feBlend mode="normal" in="SourceGraphic" in2="effect1_dropShadow" result="shape"/>
</filter>
<linearGradient id="paint0_linear" x1="0.857422" y1="0.933105" x2="0.857422" y2="5.59978" gradientUnits="userSpaceOnUse">
<stop stop-color="white"/>
<stop offset="1" stop-color="#F0F0F0"/>
</linearGradient>
</defs>
</svg>
