<svg width="49" height="50" viewBox="0 0 49 50" fill="none" xmlns="http://www.w3.org/2000/svg">
<g filter="url(#filter0_d)">
<g clip-path="url(#clip0)">
<path d="M41.895 7.04171C37.24 2.54187 31.115 0 24.5919 0C5.86979 0 -5.88613 20.284 3.46267 36.4193L0 49L12.934 45.6272C18.569 48.6713 23.1852 48.4018 24.6041 48.5815C46.3132 48.5815 57.1197 22.3175 41.8644 7.12133L41.895 7.04171Z" fill="white"/>
<path d="M24.6377 44.4084L24.6254 44.4063H24.5927C18.0962 44.4063 13.9454 41.3295 13.5371 41.1519L5.88086 43.1425L7.93273 35.7006L7.44478 34.935C5.42353 31.7174 4.34961 28.0117 4.34961 24.1959C4.34961 6.24348 26.2873 -2.73373 38.9824 9.95523C51.6469 22.5115 42.7554 44.4084 24.6377 44.4084Z" fill="#4CAF50"/>
<path d="M35.7447 29.2104L35.7263 29.3636C35.1118 29.0573 32.1187 27.5934 31.5613 27.3913C30.3098 26.9278 30.663 27.3178 28.26 30.07C27.9027 30.4681 27.5474 30.4987 26.941 30.2231C26.3285 29.9168 24.3624 29.2737 22.0349 27.1912C20.2219 25.5681 19.0051 23.5775 18.6458 22.965C18.0475 21.9319 19.2991 21.7849 20.4383 19.6289C20.6425 19.2001 20.5384 18.8633 20.3873 18.5591C20.2342 18.2528 19.0153 15.2516 18.5049 14.0551C18.0149 12.8628 17.5106 13.0139 17.1329 13.0139C15.9569 12.9118 15.0973 12.9281 14.3399 13.7162C11.0446 17.3381 11.8756 21.0744 14.6951 25.0475C20.2362 32.2995 23.1885 33.6347 28.5866 35.4886C30.0444 35.952 31.3735 35.8867 32.425 35.7356C33.5969 35.5498 36.0326 34.2636 36.541 32.8242C37.0616 31.3848 37.0616 30.1904 36.9085 29.9148C36.7574 29.6392 36.3572 29.4861 35.7447 29.2104Z" fill="#FAFAFA"/>
</g>
</g>
<defs>
<filter id="filter0_d" x="0" y="0" width="49" height="50" filterUnits="userSpaceOnUse" color-interpolation-filters="sRGB">
<feFlood flood-opacity="0" result="BackgroundImageFix"/>
<feColorMatrix in="SourceAlpha" type="matrix" values="0 0 0 0 0 0 0 0 0 0 0 0 0 0 0 0 0 0 127 0"/>
<feOffset dy="1"/>
<feColorMatrix type="matrix" values="0 0 0 0 0 0 0 0 0 0 0 0 0 0 0 0 0 0 0.16 0"/>
<feBlend mode="normal" in2="BackgroundImageFix" result="effect1_dropShadow"/>
<feBlend mode="normal" in="SourceGraphic" in2="effect1_dropShadow" result="shape"/>
</filter>
<clipPath id="clip0">
<rect width="49" height="49" fill="white"/>
</clipPath>
</defs>
</svg>
