<svg width="26" height="27" viewBox="0 0 26 27" fill="none" xmlns="http://www.w3.org/2000/svg">
<g filter="url(#filter0_d)">
<path d="M22.23 3.73642C19.76 1.34875 16.51 0 13.0488 0C3.11458 0 -3.12325 10.7629 1.83733 19.3245L0 26L6.86292 24.2103C9.85292 25.8256 12.3023 25.6826 13.0553 25.7779C24.5743 25.7779 30.3084 11.8419 22.2138 3.77867L22.23 3.73642Z" fill="white"/>
<path d="M13.0737 23.5636L13.0672 23.5625H13.0498C9.60268 23.5625 7.40026 21.9299 7.18359 21.8357L3.12109 22.8919L4.20984 18.9432L3.95093 18.5369C2.87843 16.8296 2.30859 14.8633 2.30859 12.8386C2.30859 3.31282 13.949 -1.4506 20.6852 5.28232C27.4051 11.9448 22.6872 23.5636 13.0737 23.5636Z" fill="#4CAF50"/>
<path d="M18.9661 15.4993L18.9563 15.5806C18.6302 15.4181 17.0421 14.6414 16.7463 14.5341C16.0822 14.2882 16.2696 14.4951 14.9946 15.9554C14.805 16.1667 14.6165 16.1829 14.2947 16.0367C13.9697 15.8742 12.9265 15.5329 11.6915 14.4279C10.7295 13.5667 10.0838 12.5104 9.89315 12.1854C9.57573 11.6373 10.2398 11.5593 10.8443 10.4153C10.9526 10.1878 10.8974 10.009 10.8172 9.8476C10.736 9.6851 10.0892 8.0926 9.8184 7.45777C9.5584 6.8251 9.29082 6.90527 9.0904 6.90527C8.4664 6.8511 8.01032 6.85977 7.6084 7.27794C5.8599 9.19977 6.30082 11.1823 7.7969 13.2904C10.7371 17.1384 12.3036 17.8469 15.1679 18.8306C15.9414 19.0765 16.6466 19.0418 17.2046 18.9617C17.8264 18.8631 19.1188 18.1806 19.3886 17.4168C19.6648 16.6531 19.6648 16.0194 19.5836 15.8731C19.5034 15.7269 19.2911 15.6456 18.9661 15.4993Z" fill="#FAFAFA"/>
</g>
<defs>
<filter id="filter0_d" x="0" y="0" width="26.0003" height="27" filterUnits="userSpaceOnUse" color-interpolation-filters="sRGB">
<feFlood flood-opacity="0" result="BackgroundImageFix"/>
<feColorMatrix in="SourceAlpha" type="matrix" values="0 0 0 0 0 0 0 0 0 0 0 0 0 0 0 0 0 0 127 0"/>
<feOffset dy="1"/>
<feColorMatrix type="matrix" values="0 0 0 0 0 0 0 0 0 0 0 0 0 0 0 0 0 0 0.16 0"/>
<feBlend mode="normal" in2="BackgroundImageFix" result="effect1_dropShadow"/>
<feBlend mode="normal" in="SourceGraphic" in2="effect1_dropShadow" result="shape"/>
</filter>
</defs>
</svg>
